<svg width="100%" height="100%" viewBox="0 0 122 47" fill="none" xmlns="http://www.w3.org/2000/svg" preserveAspectRatio="none"><rect x="0.5" y="0.200684" width="121" height="46.4591" rx="4.55804" fill="#FFDD2D" data-color-group="0"/><path d="M18.2535 20.782V14.095H22.1941V11.6616H11.4437V14.095H15.3842V20.782H18.2535Z" fill="#333333" data-color-group="1"/><path d="M26.1161 16.9691V11.6616H23.3424V20.782H25.7909L30.5732 15.4746V20.782H33.3468V11.6616H30.8983L26.1161 16.9691Z" fill="#333333" data-color-group="1"/><path d="M42.6781 17.3906V20.782H45.4518V11.6616H42.6781V14.9956H38.2211V11.6616H35.4474V20.782H38.2211V17.3906H42.6781Z" fill="#333333" data-color-group="1"/><path d="M53.1763 20.782C53.8076 20.782 54.3814 20.7246 54.9171 20.5713C56.3517 20.1689 57.289 19.0001 57.289 17.4098C57.289 15.8961 56.4856 14.8423 55.204 14.3633C54.5919 14.1333 53.865 14.1142 53.1763 14.1142H50.3261V11.6616H47.5524V20.782H53.1763ZM52.6981 16.2602C53.0807 16.2602 53.4441 16.2602 53.7693 16.3751C54.2284 16.5284 54.4962 16.9116 54.4962 17.3715C54.4962 17.8505 54.2284 18.2529 53.7884 18.4445C53.4824 18.5786 53.1763 18.5786 52.6981 18.5786H50.3261V16.2602H52.6981Z" fill="#333333" data-color-group="1"/><path d="M62.2622 17.3331L65.5715 20.782H69.2634L64.6534 16.0302L69.0913 11.6616H65.6098L62.2622 15.0914H61.4971V11.6616H58.7234V20.782H61.4971V17.3331H62.2622Z" fill="#333333" data-color-group="1"/><path d="M74.9707 11.4125C71.2406 11.4125 69.0025 13.5202 69.0025 16.241C69.0025 18.9618 71.2406 21.0695 74.9707 21.0695C78.6817 21.0695 80.9198 18.9618 80.9198 16.241C80.9198 13.5202 78.6817 11.4125 74.9707 11.4125ZM74.9707 18.8468C73.1152 18.8468 71.9292 17.7355 71.9292 16.241C71.9292 14.7465 73.1152 13.6543 74.9707 13.6543C76.8071 13.6543 78.0122 14.7465 78.0122 16.241C78.0122 17.7355 76.8071 18.8468 74.9707 18.8468Z" fill="#333333" data-color-group="1"/><path d="M90.1571 11.1443H87.3834V12.064C83.9019 12.1406 81.8169 13.616 81.8169 16.2218C81.8169 18.8277 83.9019 20.1881 87.3834 20.2647V21.1844H90.1571V20.2647C93.6577 20.1881 95.7427 18.8277 95.7427 16.2218C95.7427 13.616 93.6577 12.1406 90.1571 12.064V11.1443ZM87.3834 18.3103C85.4705 18.2337 84.6288 17.4481 84.6288 16.2218C84.6288 14.9956 85.4705 14.1142 87.3834 14.0375V18.3103ZM90.1571 14.0375C92.0891 14.1142 92.9117 14.9956 92.9117 16.2218C92.9117 17.4481 92.0891 18.2337 90.1571 18.3103V14.0375Z" fill="#333333" data-color-group="1"/><path d="M104.971 11.1443H102.197V12.064C98.7156 12.1406 96.6306 13.616 96.6306 16.2218C96.6306 18.8277 98.7156 20.1881 102.197 20.2647V21.1844H104.971V20.2647C108.471 20.1881 110.556 18.8277 110.556 16.2218C110.556 13.616 108.471 12.1406 104.971 12.064V11.1443ZM102.197 18.3103C100.284 18.2337 99.4425 17.4481 99.4425 16.2218C99.4425 14.9956 100.284 14.1142 102.197 14.0375V18.3103ZM104.971 14.0375C106.903 14.1142 107.725 14.9956 107.725 16.2218C107.725 17.4481 106.903 18.2337 104.971 18.3103V14.0375Z" fill="#333333" data-color-group="1"/><path d="M16.2165 30.1708H13.4153V29.3005H18.229V27.8048H11.4437V34.2773H16.0397C16.6788 34.2773 17.1547 34.2229 17.5083 34.087C18.2562 33.8014 18.7593 33.1079 18.7593 32.1969C18.7593 31.2722 18.2834 30.6331 17.5355 30.3476C17.1819 30.2116 16.7196 30.1708 16.2165 30.1708ZM16.1077 32.6456H13.4153V31.6122H16.1077C16.3253 31.6122 16.502 31.6258 16.638 31.6937C16.8012 31.7753 16.8828 31.9249 16.8828 32.1153C16.8828 32.3056 16.7876 32.5096 16.5564 32.5912C16.4477 32.632 16.2981 32.6456 16.1077 32.6456Z" fill="#333333" data-color-group="1"/><path d="M25.2603 27.8048L21.8608 31.5714V27.8048H19.8892V34.2773H21.6297L25.0291 30.5107V34.2773H27.0008V27.8048H25.2603Z" fill="#333333" data-color-group="1"/><path d="M31.7303 27.5736C30.9552 27.5736 30.2481 27.6416 29.5682 27.8728C28.7116 28.1583 28.1541 28.7838 28.0453 29.6269H30.1665C30.3025 29.3277 30.4793 29.1781 30.7377 29.083C30.9688 28.9878 31.2408 28.947 31.6079 28.947C32.0158 28.947 32.3422 28.9878 32.6006 29.0966C32.9541 29.2325 33.0765 29.4773 33.0765 29.6949C33.0765 29.9532 32.9541 30.1436 32.6685 30.2388C32.4238 30.3068 32.1926 30.3068 31.7983 30.3068H30.1937V31.7753H31.9207C32.4918 31.7753 32.6821 31.7889 32.8589 31.8569C33.0765 31.9249 33.2396 32.1017 33.2396 32.3736C33.2396 32.632 33.1173 32.8632 32.8181 32.9719C32.6277 33.0399 32.4238 33.1351 31.6895 33.1351C31.1864 33.1351 30.8464 33.0535 30.6425 32.9583C30.4385 32.8631 30.2345 32.6728 30.1665 32.4008H27.9909C28.0997 33.3391 28.6572 33.9102 29.4459 34.1957C29.9762 34.3861 30.7649 34.4677 31.6759 34.4677C32.8045 34.4677 33.3756 34.3589 33.838 34.2229C34.7626 33.951 35.3065 33.2847 35.3065 32.4416C35.3065 31.7073 34.8306 31.1226 34.0011 30.9187C34.681 30.6331 35.1297 30.1436 35.1297 29.3957C35.1297 28.675 34.613 28.0767 33.6476 27.8048C33.2261 27.6824 32.6006 27.5736 31.7303 27.5736Z" fill="#333333" data-color-group="1"/><path d="M38.473 31.8705H41.6413V34.2773H43.613V27.8048H41.6413V30.1708H38.473V27.8048H36.5013V34.2773H38.473V31.8705Z" fill="#333333" data-color-group="1"/><path d="M51.6875 29.2869V27.8048H45.1062V34.2773H51.6875V32.7952H47.0778V31.6529H51.4155V30.3612H47.0778V29.2869H51.6875Z" fill="#333333" data-color-group="1"/><path d="M58.4638 30.3748H60.5714C60.2859 28.7702 58.8581 27.628 56.6009 27.628C54.0173 27.6008 52.4263 29.0966 52.4263 31.0546C52.4263 32.9855 54.0173 34.4813 56.6009 34.4813C58.8853 34.4677 60.2587 33.3391 60.5578 31.7209H58.4774C58.2734 32.4552 57.5527 32.9583 56.5465 32.9583C55.2819 32.9583 54.5068 32.1153 54.5068 31.0546C54.5068 29.994 55.2819 29.1646 56.5465 29.1646C57.5527 29.1646 58.2598 29.6541 58.4638 30.3748Z" fill="#333333" data-color-group="1"/></svg>