<svg width="465.958" height="119" viewBox="0 0 465.958 119" xmlns="http://www.w3.org/2000/svg"><g fill="#333" stroke="#000"><path d="M21.93 30.62V7.208H2.168V30.62h6.178V12.447h7.406V30.62zM34.684 31.162c3.059 0 5.395-.837 7.009-2.511 1.614-1.674 2.42-4.1 2.42-7.28 0-3.18-.806-5.612-2.42-7.298-1.614-1.686-3.95-2.53-7.01-2.53-3.106 0-5.467.844-7.08 2.53-1.614 1.686-2.421 4.119-2.421 7.298 0 3.18.807 5.606 2.42 7.28 1.614 1.674 3.975 2.51 7.082 2.51zm0-3.83c-.554 0-1.036-.096-1.445-.289-.41-.192-.747-.512-1.012-.957-.265-.446-.463-1.054-.596-1.825-.133-.77-.199-1.734-.199-2.89 0-1.132.066-2.077.199-2.836.133-.759.331-1.373.596-1.843.265-.47.602-.806 1.012-1.011.409-.205.89-.307 1.445-.307.53 0 .993.102 1.39.307.398.205.73.542.994 1.011.265.47.464 1.084.596 1.843.133.759.2 1.704.2 2.836 0 1.156-.067 2.12-.2 2.89-.132.77-.33 1.38-.596 1.825-.265.445-.596.765-.993.957-.398.193-.861.29-1.391.29zM45.559 26.032h0v4.552c1.975.265 3.552.27 4.733.018 1.18-.253 2.083-.867 2.71-1.843.625-.975 1.035-2.366 1.228-4.173.192-1.806.289-4.142.289-7.009v-1.336h3.215V30.62h5.925V12.086H48.846v4.552c0 2.24-.042 4.004-.126 5.293-.084 1.289-.241 2.258-.47 2.908-.228.65-.56 1.042-.993 1.175-.434.132-1 .138-1.698.018zM75.257 26.429h0-.542c0-.313-.043-.819-.127-1.517a41.17 41.17 0 00-.397-2.511 94.4 94.4 0 00-.669-3.252 73.757 73.757 0 00-.939-3.74l-.94-3.323h-5.997l6.25 20.882-1.336 4.083h6.214l7.479-24.965H78.4l-.94 3.432a71.74 71.74 0 00-.939 3.667 87.485 87.485 0 00-.668 3.198 53.63 53.63 0 00-.416 2.492 26.303 26.303 0 00-.18 1.554zM102.353 12.086h-5.925v7.984a5.837 5.837 0 01-1.156.326c-.41.072-.819.108-1.228.108-.65 0-1.217-.127-1.698-.38-.482-.252-.723-.728-.723-1.427v-6.611h-5.925v7.37c0 1.132.18 2.066.542 2.8.361.735.849 1.325 1.463 1.77a5.715 5.715 0 002.096.94c.782.18 1.595.27 2.438.27.723 0 1.445-.047 2.168-.144a12.511 12.511 0 002.023-.433v5.961h5.925zM105.966 30.62h7.551l2.565-5.672a70.628 70.628 0 001.86-4.823 60.505 60.505 0 001.174-3.812l.507.072c-.072.386-.156.928-.253 1.626a66.09 66.09 0 00-.27 2.276c-.085.82-.157 1.65-.218 2.493-.06.843-.09 1.59-.09 2.24v5.6h5.708V12.086h-7.514l-2.566 5.672a42.946 42.946 0 00-.993 2.403c-.325.855-.626 1.68-.903 2.474a57.401 57.401 0 00-1.175 3.758l-.47-.072c.073-.386.157-.928.254-1.626.096-.699.18-1.463.253-2.294.072-.831.138-1.668.198-2.511.06-.843.09-1.602.09-2.276v-5.528h-5.708zM131.329 30.62h5.925V16.783h4.48v-4.697h-14.885v4.697h4.48zM160.593 24.442h-5.13c.096 1.132-.133 1.927-.687 2.384-.553.458-1.312.687-2.276.687-.626 0-1.15-.133-1.571-.398a3.117 3.117 0 01-1.03-1.065 4.956 4.956 0 01-.578-1.554 9.486 9.486 0 01-.18-1.897h11.488c.073-.409.12-.903.145-1.48.024-.579.036-1.037.036-1.374 0-1.084-.138-2.12-.415-3.107a6.673 6.673 0 00-1.41-2.62c-.662-.758-1.535-1.36-2.619-1.806-1.084-.445-2.42-.668-4.01-.668-1.662 0-3.083.265-4.263.795-1.18.53-2.15 1.258-2.909 2.186a8.89 8.89 0 00-1.662 3.215 14.007 14.007 0 00-.524 3.884c0 1.397.181 2.673.542 3.83.362 1.156.916 2.155 1.662 2.998.747.843 1.705 1.5 2.873 1.97 1.168.469 2.559.704 4.172.704 1.373 0 2.608-.15 3.704-.452 1.095-.3 2.005-.74 2.727-1.319a5.177 5.177 0 001.59-2.095c.337-.819.446-1.758.325-2.818zm-8.093-9.394c1.084 0 1.831.344 2.24 1.03.41.687.615 1.716.615 3.09v.18h-6.215c.025-1.325.314-2.373.867-3.143.554-.771 1.385-1.157 2.493-1.157zM174.467 18.77h-.506v-.47c0-.964.072-1.824.217-2.583.144-.759.397-1.427.758-2.005a4.65 4.65 0 011.482-1.464c.626-.397 1.42-.716 2.384-.957.65-.169 1.265-.307 1.843-.415.578-.109 1.15-.217 1.716-.326a28.625 28.625 0 001.698-.379 16.538 16.538 0 001.716-.542l-.325-5.492c-.506.217-.982.41-1.427.579-.446.168-.933.325-1.463.47-.53.144-1.126.288-1.789.433-.662.144-1.475.325-2.438.542-1.759.385-3.198.975-4.318 1.77-1.12.795-2.005 1.752-2.655 2.872-.65 1.12-1.096 2.39-1.337 3.812a27.233 27.233 0 00-.361 4.552c0 1.855.168 3.523.505 5.004.338 1.481.874 2.734 1.608 3.757a7.267 7.267 0 002.872 2.367c1.18.554 2.602.83 4.264.83 1.445 0 2.721-.246 3.83-.74 1.107-.494 2.034-1.162 2.781-2.005a8.585 8.585 0 001.698-2.963c.386-1.131.578-2.336.578-3.612 0-1.205-.156-2.319-.47-3.342-.313-1.024-.758-1.903-1.336-2.638a6.169 6.169 0 00-2.15-1.734c-.855-.422-1.824-.632-2.908-.632-1.012 0-1.885.126-2.62.38-.734.252-1.36.607-1.878 1.065a5.437 5.437 0 00-1.265 1.662 8.019 8.019 0 00-.704 2.204zm4.227 7.623c-.964 0-1.674-.301-2.132-.903-.458-.603-.686-1.614-.686-3.035 0-1.445.24-2.505.722-3.18.482-.674 1.18-1.011 2.096-1.011.963 0 1.68.313 2.15.94.47.625.704 1.65.704 3.07 0 1.445-.24 2.493-.723 3.143-.481.65-1.192.976-2.131.976zM207.742 24.442h-5.13c.096 1.132-.133 1.927-.687 2.384-.554.458-1.313.687-2.276.687-.626 0-1.15-.133-1.572-.398a3.117 3.117 0 01-1.03-1.065 4.956 4.956 0 01-.578-1.554 9.486 9.486 0 01-.18-1.897h11.489c.072-.409.12-.903.144-1.48.024-.579.036-1.037.036-1.374 0-1.084-.138-2.12-.415-3.107a6.673 6.673 0 00-1.41-2.62c-.661-.758-1.535-1.36-2.619-1.806-1.083-.445-2.42-.668-4.01-.668-1.662 0-3.083.265-4.263.795-1.18.53-2.15 1.258-2.908 2.186a8.89 8.89 0 00-1.662 3.215 14.007 14.007 0 00-.524 3.884c0 1.397.18 2.673.542 3.83.361 1.156.915 2.155 1.662 2.998.746.843 1.704 1.5 2.872 1.97 1.168.469 2.559.704 4.173.704 1.373 0 2.607-.15 3.703-.452 1.096-.3 2.005-.74 2.728-1.319a5.177 5.177 0 001.59-2.095c.336-.819.445-1.758.325-2.818zm-8.093-9.394c1.084 0 1.83.344 2.24 1.03.409.687.614 1.716.614 3.09v.18h-6.214c.024-1.325.313-2.373.867-3.143.554-.771 1.385-1.157 2.493-1.157zM227.72 23.322h0-4.985c.12.867.115 1.56-.018 2.077-.133.518-.343.916-.632 1.193a2.22 2.22 0 01-.994.56c-.373.096-.74.144-1.102.144-.578 0-1.084-.084-1.517-.253-.434-.168-.789-.476-1.066-.921-.277-.446-.488-1.054-.632-1.825-.145-.77-.217-1.758-.217-2.962 0-1.156.066-2.114.199-2.872.132-.76.331-1.367.596-1.825.265-.458.614-.777 1.048-.957.433-.181.939-.271 1.517-.271.434 0 .843.054 1.228.162.386.109.711.307.976.596.265.29.458.68.578 1.175.12.493.108 1.126-.036 1.896h4.986c.289-2.408-.235-4.293-1.572-5.654-1.337-1.36-3.39-2.041-6.16-2.041-1.47 0-2.8.199-3.992.596-1.192.397-2.204 1-3.035 1.806-.831.807-1.47 1.825-1.915 3.053-.445 1.229-.668 2.674-.668 4.336 0 1.686.223 3.143.668 4.371.446 1.229 1.084 2.247 1.915 3.053.83.807 1.843 1.403 3.035 1.789 1.192.385 2.523.578 3.992.578 1.493 0 2.764-.199 3.812-.596 1.047-.398 1.89-.946 2.529-1.644a5.514 5.514 0 001.3-2.475c.229-.951.283-1.981.163-3.09zM230.683 30.62h5.926V16.783h4.985V30.62h5.926V12.086h-16.837zM249.687 26.032h0v4.552c1.975.265 3.553.27 4.733.018 1.18-.253 2.084-.867 2.71-1.843.626-.975 1.036-2.366 1.228-4.173.193-1.806.29-4.142.29-7.009v-1.336h3.215V30.62h5.925V12.086h-14.813v4.552c0 2.24-.042 4.004-.126 5.293-.085 1.289-.241 2.258-.47 2.908-.229.65-.56 1.042-.994 1.175-.433.132-1 .138-1.698.018zM278.59 27.26c-.77 0-1.402-.229-1.896-.686-.494-.458-.741-1.048-.741-1.77 0-.434.09-.838.271-1.211.18-.373.482-.698.903-.976.422-.277.988-.5 1.698-.668.71-.169 1.608-.277 2.692-.325v1.337c0 .554-.048 1.09-.145 1.607a4.056 4.056 0 01-.505 1.373 2.926 2.926 0 01-.922.958c-.373.24-.825.361-1.355.361zm-2.6 3.866c.818 0 1.535-.097 2.149-.29a6.32 6.32 0 001.626-.758c.47-.313.867-.68 1.192-1.102.325-.421.608-.873.849-1.355l.47.253c-.145.458-.278.91-.398 1.355-.12.446-.18.837-.18 1.174v.217h5.744V18.047c0-.963-.114-1.842-.343-2.637a4.628 4.628 0 00-1.229-2.06c-.59-.578-1.409-1.023-2.456-1.336-1.048-.314-2.379-.47-3.993-.47-1.637 0-3.004.18-4.1.542-1.096.361-1.957.843-2.583 1.445-.627.602-1.048 1.295-1.265 2.077a5.913 5.913 0 00-.144 2.44h4.913a3.525 3.525 0 01-.036-1.12c.048-.362.174-.681.38-.958.204-.277.493-.5.866-.669.374-.168.837-.253 1.391-.253.916 0 1.59.223 2.024.669.433.445.65 1.078.65 1.897v1.3c-1.18.048-2.42.157-3.721.325-1.301.17-2.493.494-3.577.976a6.816 6.816 0 00-2.674 2.077c-.698.903-1.047 2.126-1.047 3.667 0 .626.12 1.253.36 1.88.242.625.597 1.18 1.067 1.661a5.49 5.49 0 001.716 1.174c.674.301 1.457.452 2.348.452zM293.91 30.62h5.924V16.783h4.48v-4.697H289.43v4.697h4.48zM306.663 30.62h5.925v-6.937h5.31v6.937h5.926V12.086h-5.925v6.9h-5.311v-6.9h-5.925zM335.421 26.429h0-.542c0-.313-.042-.819-.126-1.517a41.17 41.17 0 00-.397-2.511 94.4 94.4 0 00-.669-3.252 73.757 73.757 0 00-.94-3.74l-.939-3.323h-5.997l6.25 20.882-1.336 4.083h6.214l7.478-24.965h-5.852l-.94 3.432a71.74 71.74 0 00-.94 3.667 87.485 87.485 0 00-.668 3.198 53.63 53.63 0 00-.415 2.492 26.303 26.303 0 00-.18 1.554zM363.421 31.198c3.06 0 5.395-.849 7.01-2.547 1.613-1.698 2.42-4.137 2.42-7.316 0-3.18-.807-5.618-2.42-7.316-1.615-1.698-3.95-2.547-7.01-2.547-2.721 0-4.871.65-6.449 1.95-1.578 1.301-2.547 3.192-2.908 5.673h-1.734v-7.01h-5.925V30.62h5.925v-7.009h1.734c.385 2.457 1.367 4.335 2.944 5.636 1.578 1.3 3.716 1.951 6.413 1.951zm0-3.83c-.626 0-1.15-.096-1.571-.289-.422-.192-.76-.524-1.012-.993-.253-.47-.427-1.09-.524-1.86-.096-.771-.144-1.735-.144-2.891 0-1.132.048-2.084.144-2.854.097-.771.271-1.391.524-1.861s.59-.807 1.012-1.012c.421-.204.945-.307 1.571-.307.603 0 1.108.103 1.518.307.409.205.734.542.975 1.012s.416 1.09.524 1.86c.108.771.163 1.723.163 2.855 0 1.156-.055 2.12-.163 2.89-.108.77-.283 1.391-.524 1.86-.24.47-.566.802-.975.994-.41.193-.915.29-1.518.29z" stroke-width=".03613"/></g><g fill="#333" stroke="#000"><path d="M1.806 70.36h5.926v-6.937h1.59c.48 0 .836.12 1.065.362.229.24.391.566.488.975a36.836 36.836 0 00.885 2.854c.205.578.422 1.12.65 1.626.229.506.44.879.633 1.12h6.503c-.723-.915-1.343-1.981-1.86-3.197a90.456 90.456 0 01-1.392-3.45c-.313-.82-.704-1.422-1.174-1.807-.47-.386-1.162-.662-2.077-.831v-.325c.77-.169 1.39-.428 1.86-.777.47-.35.885-.885 1.247-1.608.264-.53.505-1.096.722-1.698.217-.602.434-1.192.65-1.77a13 13 0 01.76-1.662c.288-.53.638-1 1.047-1.41h-6.286c-.217.29-.446.7-.687 1.23-.24.53-.481 1.083-.722 1.661-.241.578-.452 1.12-.633 1.626-.18.506-.307.867-.38 1.084-.168.506-.354.849-.56 1.03-.204.18-.499.27-.884.27H7.732v-6.9H1.806zM28.867 70.902c3.06 0 5.395-.837 7.01-2.511 1.613-1.674 2.42-4.1 2.42-7.28 0-3.18-.807-5.612-2.42-7.298-1.615-1.686-3.95-2.53-7.01-2.53-3.107 0-5.467.844-7.081 2.53-1.614 1.686-2.42 4.119-2.42 7.298 0 3.18.806 5.606 2.42 7.28 1.614 1.674 3.974 2.51 7.081 2.51zm0-3.83c-.554 0-1.036-.096-1.445-.289-.41-.192-.747-.512-1.012-.957-.265-.446-.463-1.054-.596-1.825-.132-.77-.199-1.734-.199-2.89 0-1.132.067-2.077.2-2.836.132-.759.33-1.373.595-1.843.265-.47.603-.806 1.012-1.011.41-.205.891-.307 1.445-.307.53 0 .994.102 1.391.307.397.205.729.542.994 1.011.264.47.463 1.084.596 1.843.132.759.198 1.704.198 2.836 0 1.156-.066 2.12-.198 2.89-.133.77-.332 1.38-.596 1.825-.265.445-.597.765-.994.957-.397.193-.86.29-1.391.29zM41.187 70.36h5.925v-6.937h5.311v6.937h5.925V51.826h-5.925v6.9h-5.31v-6.9h-5.926zM78.653 63.062h0-4.986c.12.867.114 1.56-.018 2.077-.133.518-.343.916-.632 1.193a2.22 2.22 0 01-.994.56c-.373.096-.74.144-1.102.144-.578 0-1.084-.084-1.517-.253-.434-.168-.789-.476-1.066-.921-.277-.446-.488-1.054-.632-1.825-.145-.77-.217-1.758-.217-2.962 0-1.156.066-2.114.199-2.872.132-.76.33-1.367.596-1.825.265-.458.614-.777 1.047-.957.434-.181.94-.271 1.518-.271.433 0 .843.054 1.228.162.386.109.71.307.976.596.265.29.458.68.578 1.175.12.493.108 1.126-.036 1.896h4.985c.29-2.408-.234-4.293-1.571-5.654-1.337-1.36-3.39-2.041-6.16-2.041-1.47 0-2.8.199-3.992.596-1.193.397-2.204 1-3.035 1.806-.831.807-1.47 1.825-1.915 3.053-.445 1.229-.668 2.674-.668 4.336 0 1.686.223 3.143.668 4.371.445 1.229 1.084 2.247 1.915 3.053.83.807 1.842 1.403 3.035 1.789 1.192.385 2.523.578 3.992.578 1.493 0 2.764-.199 3.812-.596 1.047-.398 1.89-.946 2.529-1.644a5.514 5.514 0 001.3-2.475c.229-.951.283-1.981.163-3.09zM88.697 66.169h0-.542c0-.313-.043-.819-.127-1.517a41.17 41.17 0 00-.397-2.511 94.4 94.4 0 00-.669-3.252 73.757 73.757 0 00-.939-3.74l-.94-3.323h-5.997l6.25 20.882L84 76.791h6.214l7.479-24.965H91.84l-.94 3.432a71.74 71.74 0 00-.939 3.667 87.485 87.485 0 00-.668 3.198 53.63 53.63 0 00-.416 2.492 26.303 26.303 0 00-.18 1.554zM97.15 65.772h0v4.552c1.976.265 3.553.27 4.734.018 1.18-.253 2.083-.867 2.71-1.843.625-.975 1.035-2.366 1.228-4.173.192-1.806.289-4.142.289-7.009v-1.336h3.215V70.36h5.925V51.826H100.44v4.552c0 2.24-.043 4.004-.127 5.293-.084 1.289-.24 2.258-.47 2.908-.228.65-.56 1.042-.993 1.175-.434.132-1 .138-1.698.018zM124.79 56.667v-4.841h-5.926V70.36h7.985c1.59 0 2.908-.223 3.956-.668 1.048-.446 1.885-1.006 2.51-1.68.627-.675 1.073-1.416 1.338-2.222.264-.807.397-1.572.397-2.295 0-.939-.126-1.824-.38-2.655a4.975 4.975 0 00-1.336-2.168c-.638-.614-1.481-1.102-2.53-1.463-1.047-.361-2.366-.542-3.955-.542zm1.661 9.213h-1.662v-4.733h1.662c.771 0 1.385.187 1.843.56.458.373.686.982.686 1.825s-.228 1.445-.686 1.806c-.458.361-1.072.542-1.843.542zM138.446 70.36h5.925V56.523h4.48v-4.697h-14.885v4.697h4.48zM158.209 67c-.77 0-1.403-.229-1.897-.686-.494-.458-.74-1.048-.74-1.77 0-.434.09-.838.27-1.211.18-.373.482-.698.904-.976.421-.277.987-.5 1.698-.668.71-.169 1.607-.277 2.691-.325V62.7c0 .554-.048 1.09-.144 1.607a4.056 4.056 0 01-.506 1.373 2.926 2.926 0 01-.921.958c-.374.24-.825.361-1.355.361zm-2.602 3.866c.82 0 1.536-.097 2.15-.29a6.32 6.32 0 001.626-.758c.47-.313.867-.68 1.192-1.102.325-.421.608-.873.85-1.355l.469.253c-.145.458-.277.91-.398 1.355-.12.446-.18.837-.18 1.174v.217h5.744V57.787c0-.963-.114-1.842-.343-2.637a4.628 4.628 0 00-1.228-2.06c-.59-.578-1.41-1.023-2.457-1.336-1.048-.314-2.378-.47-3.992-.47-1.638 0-3.005.18-4.1.542-1.097.361-1.958.843-2.584 1.445-.626.602-1.048 1.295-1.265 2.077a5.913 5.913 0 00-.144 2.44h4.913a3.525 3.525 0 01-.036-1.12c.048-.362.175-.681.38-.958.204-.277.493-.5.867-.669.373-.168.837-.253 1.39-.253.916 0 1.59.223 2.024.669.433.445.65 1.078.65 1.897v1.3c-1.18.048-2.42.157-3.721.325-1.3.17-2.493.494-3.577.976a6.816 6.816 0 00-2.673 2.077c-.699.903-1.048 2.126-1.048 3.667 0 .626.12 1.253.361 1.88.241.625.596 1.18 1.066 1.661a5.49 5.49 0 001.716 1.174c.675.301 1.457.452 2.348.452zM170.312 70.36h13.223v4.48h5.456v-9.177h-1.951V51.826h-5.925v13.837h-4.878V51.826h-5.925zM191.339 70.36h7.551l2.565-5.672a70.628 70.628 0 001.86-4.823 60.505 60.505 0 001.174-3.812l.507.072c-.073.386-.157.928-.253 1.626a66.09 66.09 0 00-.271 2.276c-.084.82-.157 1.65-.217 2.493s-.09 1.59-.09 2.24v5.6h5.708V51.826h-7.515l-2.565 5.672a42.946 42.946 0 00-.993 2.403c-.326.855-.626 1.68-.904 2.474a57.401 57.401 0 00-1.174 3.758l-.47-.072c.073-.386.157-.928.253-1.626.097-.699.181-1.463.253-2.294.073-.831.139-1.668.2-2.511.06-.843.09-1.602.09-2.276v-5.528h-5.709zM230.503 70.938c3.059 0 5.395-.849 7.009-2.547 1.614-1.698 2.42-4.137 2.42-7.316 0-3.18-.806-5.618-2.42-7.316-1.614-1.698-3.95-2.547-7.01-2.547-2.72 0-4.87.65-6.448 1.95-1.578 1.301-2.547 3.192-2.909 5.673h-1.734v-7.01h-5.925V70.36h5.925v-7.009h1.734c.386 2.457 1.367 4.335 2.945 5.636 1.578 1.3 3.715 1.951 6.413 1.951zm0-3.83c-.626 0-1.15-.096-1.572-.289-.421-.192-.759-.524-1.011-.993-.253-.47-.428-1.09-.524-1.86-.097-.771-.145-1.735-.145-2.891 0-1.132.048-2.084.145-2.854.096-.771.27-1.391.524-1.861.252-.47.59-.807 1.011-1.012.422-.204.946-.307 1.572-.307.602 0 1.108.103 1.517.307.41.205.735.542.976 1.012.24.47.415 1.09.524 1.86.108.771.162 1.723.162 2.855 0 1.156-.054 2.12-.162 2.89-.109.77-.283 1.391-.524 1.86-.241.47-.566.802-.976.994-.41.193-.915.29-1.517.29zM249.326 70.36h7.55l2.566-5.672a70.628 70.628 0 001.86-4.823 60.505 60.505 0 001.174-3.812l.507.072c-.073.386-.157.928-.253 1.626a66.09 66.09 0 00-.271 2.276c-.084.82-.157 1.65-.217 2.493s-.09 1.59-.09 2.24v5.6h5.708V51.826h-7.515l-2.565 5.672a42.946 42.946 0 00-.993 2.403c-.326.855-.626 1.68-.904 2.474a57.401 57.401 0 00-1.174 3.758l-.47-.072c.073-.386.157-.928.253-1.626.097-.699.181-1.463.253-2.294.073-.831.139-1.668.199-2.511.06-.843.09-1.602.09-2.276v-5.528h-5.708zM286.756 70.902c3.059 0 5.395-.837 7.009-2.511 1.613-1.674 2.42-4.1 2.42-7.28 0-3.18-.807-5.612-2.42-7.298-1.614-1.686-3.95-2.53-7.01-2.53-3.106 0-5.467.844-7.08 2.53-1.615 1.686-2.421 4.119-2.421 7.298 0 3.18.806 5.606 2.42 7.28 1.614 1.674 3.975 2.51 7.082 2.51zm0-3.83c-.554 0-1.036-.096-1.446-.289-.409-.192-.746-.512-1.011-.957-.265-.446-.464-1.054-.596-1.825-.133-.77-.199-1.734-.199-2.89 0-1.132.066-2.077.199-2.836.132-.759.331-1.373.596-1.843.265-.47.602-.806 1.011-1.011.41-.205.892-.307 1.446-.307.53 0 .993.102 1.39.307.398.205.73.542.994 1.011.265.47.464 1.084.596 1.843.133.759.199 1.704.199 2.836 0 1.156-.066 2.12-.199 2.89-.132.77-.331 1.38-.596 1.825-.265.445-.596.765-.993.957-.398.193-.861.29-1.391.29zM301.93 70.36h5.925V56.523h4.48v-4.697H297.45v4.697h4.48zM314.683 70.36h5.925v-6.937h1.59c.482 0 .837.12 1.066.362.229.24.391.566.488.975a36.836 36.836 0 00.885 2.854c.205.578.421 1.12.65 1.626.229.506.44.879.632 1.12h6.504c-.723-.915-1.343-1.981-1.861-3.197a90.456 90.456 0 01-1.391-3.45c-.313-.82-.705-1.422-1.174-1.807-.47-.386-1.162-.662-2.078-.831v-.325c.771-.169 1.391-.428 1.861-.777.47-.35.885-.885 1.246-1.608.265-.53.506-1.096.723-1.698.217-.602.434-1.192.65-1.77a13 13 0 01.76-1.662c.288-.53.637-1 1.047-1.41h-6.287c-.216.29-.445.7-.686 1.23-.241.53-.482 1.083-.723 1.661-.24.578-.451 1.12-.632 1.626-.18.506-.307.867-.38 1.084-.168.506-.354.849-.56 1.03-.204.18-.499.27-.884.27h-1.446v-6.9h-5.925zM343.442 67.18c-.94 0-1.71-.469-2.312-1.408-.603-.94-.904-2.481-.904-4.625 0-2.168.301-3.721.904-4.66.602-.94 1.373-1.41 2.312-1.41.915 0 1.674.47 2.276 1.41.602.939.903 2.492.903 4.66 0 2.144-.3 3.685-.903 4.625-.602.939-1.36 1.409-2.276 1.409zm2.204-15.896c-.675 0-1.27.09-1.789.27-.517.182-.987.434-1.409.76a5.487 5.487 0 00-1.102 1.138 19.31 19.31 0 00-.903 1.373l-.542-.253c.145-.458.253-.91.325-1.355.073-.446.109-.837.109-1.174v-.217h-5.925V76.79h5.925v-5.42c0-.626-.066-1.246-.199-1.86a14.92 14.92 0 00-.488-1.752l.578-.217c.145.289.362.62.65.993.29.374.657.735 1.103 1.084.445.35.97.645 1.571.886.603.24 1.29.36 2.06.36a6.804 6.804 0 002.836-.595c.879-.398 1.644-1 2.294-1.807.65-.807 1.162-1.818 1.535-3.035.374-1.216.56-2.643.56-4.28 0-3.18-.638-5.619-1.914-7.317-1.277-1.698-3.035-2.547-5.275-2.547zM364.686 70.902c3.059 0 5.395-.837 7.009-2.511 1.614-1.674 2.42-4.1 2.42-7.28 0-3.18-.806-5.612-2.42-7.298-1.614-1.686-3.95-2.53-7.01-2.53-3.106 0-5.467.844-7.08 2.53-1.614 1.686-2.421 4.119-2.421 7.298 0 3.18.807 5.606 2.42 7.28 1.614 1.674 3.975 2.51 7.082 2.51zm0-3.83c-.554 0-1.036-.096-1.445-.289-.41-.192-.747-.512-1.012-.957-.265-.446-.464-1.054-.596-1.825-.133-.77-.199-1.734-.199-2.89 0-1.132.066-2.077.199-2.836.132-.759.331-1.373.596-1.843.265-.47.602-.806 1.012-1.011.409-.205.89-.307 1.445-.307.53 0 .993.102 1.39.307.398.205.73.542.994 1.011.265.47.464 1.084.596 1.843.133.759.2 1.704.2 2.836 0 1.156-.067 2.12-.2 2.89-.132.77-.33 1.38-.596 1.825-.265.445-.596.765-.993.957-.398.193-.861.29-1.391.29zM377.006 70.36h7.55l2.566-5.672a70.628 70.628 0 001.86-4.823 60.505 60.505 0 001.174-3.812l.507.072c-.073.386-.157.928-.253 1.626a66.09 66.09 0 00-.271 2.276c-.085.82-.157 1.65-.217 2.493s-.09 1.59-.09 2.24v5.6h5.708V51.826h-7.515l-2.565 5.672a42.946 42.946 0 00-.994 2.403c-.325.855-.626 1.68-.903 2.474a57.401 57.401 0 00-1.174 3.758l-.47-.072c.073-.386.157-.928.253-1.626.097-.699.18-1.463.253-2.294.072-.831.138-1.668.199-2.511.06-.843.09-1.602.09-2.276v-5.528h-5.708zm3.287-24.748v3.938c.964.192 1.921.337 2.873.433a28.452 28.452 0 005.744 0 32.134 32.134 0 002.909-.433v-3.938a31.695 31.695 0 01-5.781.542 30.73 30.73 0 01-5.745-.542zM402.368 70.36h5.925V56.523h4.48v-4.697h-14.885v4.697h4.48zM431.633 64.182h-5.13c.096 1.132-.133 1.927-.687 2.384-.554.458-1.313.687-2.276.687-.626 0-1.15-.133-1.572-.398a3.117 3.117 0 01-1.03-1.065 4.956 4.956 0 01-.577-1.554 9.486 9.486 0 01-.181-1.897h11.489c.072-.409.12-.903.144-1.48.025-.579.037-1.037.037-1.374 0-1.084-.139-2.12-.416-3.107a6.673 6.673 0 00-1.409-2.62c-.662-.758-1.535-1.36-2.62-1.806-1.083-.445-2.42-.668-4.01-.668-1.662 0-3.083.265-4.263.795-1.18.53-2.15 1.258-2.908 2.186a8.89 8.89 0 00-1.662 3.215 14.007 14.007 0 00-.524 3.884c0 1.397.18 2.673.542 3.83.361 1.156.915 2.155 1.662 2.998.747.843 1.704 1.5 2.872 1.97 1.168.469 2.56.704 4.173.704 1.373 0 2.607-.15 3.703-.452 1.096-.3 2.005-.74 2.728-1.319a5.177 5.177 0 001.59-2.095c.337-.819.445-1.758.325-2.818zm-8.093-9.394c1.084 0 1.83.344 2.24 1.03.41.687.614 1.716.614 3.09v.18h-6.214c.024-1.325.313-2.373.867-3.143.554-.771 1.385-1.157 2.493-1.157z" stroke-width=".03613"/></g><g fill="#333" stroke="#000"><path d="M17.414 100.526v9.574h6.178V86.688h-8.707l-4.046 9.936a35.724 35.724 0 00-.85 2.384c-.276.868-.53 1.705-.758 2.511-.229.807-.434 1.548-.614 2.222-.18.675-.307 1.18-.38 1.518l-.505-.073c.072-.36.144-.86.216-1.499.073-.638.139-1.36.2-2.168a74.298 74.298 0 00.198-5.256v-9.575H2.168V110.1h8.707l4.046-9.935c.29-.723.572-1.512.85-2.367.276-.855.53-1.692.758-2.51.229-.82.434-1.566.614-2.24.18-.675.307-1.181.38-1.518l.505.072c-.072.361-.144.86-.216 1.5a57.797 57.797 0 00-.2 2.167 74.298 74.298 0 00-.198 5.257zM47.69 110.1V86.688H27.928V110.1h6.178V91.927h7.406V110.1zM58.168 91.566V110.1h8.923a18.02 18.02 0 002.963-.235c.94-.156 1.758-.427 2.457-.813a4.583 4.583 0 001.68-1.571c.421-.663.632-1.512.632-2.547 0-.458-.078-.922-.235-1.391a3.518 3.518 0 00-.795-1.301c-.373-.397-.873-.735-1.499-1.012-.626-.277-1.397-.44-2.312-.487v-.434c.747-.144 1.385-.361 1.915-.65.53-.29.957-.626 1.282-1.012.325-.385.566-.795.723-1.228.156-.434.235-.855.235-1.265 0-1.686-.615-2.872-1.843-3.558-1.228-.687-2.89-1.03-4.986-1.03zm8.634 14.813h-2.89v-3.65h2.963c.554 0 1.066.133 1.535.398.47.265.705.735.705 1.41 0 .65-.21 1.12-.633 1.408-.421.29-.981.434-1.68.434zm-.686-7.37h-2.204V95.25h2.493c.554 0 1.03.133 1.427.397.398.265.596.723.596 1.373 0 .675-.228 1.175-.686 1.5-.458.325-1 .487-1.626.487zM89.166 110.1h6.178V91.927h6.395v-5.239H82.771v5.24h6.395zM104.088 110.1h7.55l2.566-5.672a70.628 70.628 0 001.86-4.823 60.505 60.505 0 001.174-3.812l.506.072c-.072.386-.156.928-.253 1.626a66.09 66.09 0 00-.27 2.276c-.085.82-.157 1.65-.217 2.493s-.09 1.59-.09 2.24v5.6h5.708V91.566h-7.515l-2.565 5.672a42.946 42.946 0 00-.994 2.403c-.325.855-.626 1.68-.903 2.474a57.401 57.401 0 00-1.174 3.758l-.47-.072c.072-.386.157-.928.253-1.626.096-.699.18-1.463.253-2.294.072-.831.138-1.668.199-2.511.06-.843.09-1.602.09-2.276v-5.528h-5.708zM126.235 110.1h5.925v-6.937h5.31v6.937h5.926V91.566h-5.925v6.9h-5.311v-6.9h-5.925zM152.934 96.407v-4.841h-5.925V110.1h7.984c1.59 0 2.909-.223 3.956-.668 1.048-.446 1.885-1.006 2.511-1.68.626-.675 1.072-1.416 1.337-2.222.265-.807.398-1.572.398-2.295 0-.939-.127-1.824-.38-2.655a4.975 4.975 0 00-1.337-2.168c-.638-.614-1.48-1.102-2.529-1.463-1.047-.361-2.366-.542-3.956-.542zm1.662 9.213h-1.662v-4.733h1.662c.77 0 1.385.187 1.842.56.458.373.687.982.687 1.825s-.229 1.445-.687 1.806c-.457.361-1.072.542-1.842.542zM165.543 110.1h5.925v-6.937h1.59c.481 0 .837.12 1.066.362.228.24.39.566.487.975a36.836 36.836 0 00.885 2.854c.205.578.422 1.12.65 1.626.23.506.44.879.633 1.12h6.503c-.722-.915-1.343-1.981-1.86-3.197a90.456 90.456 0 01-1.391-3.45c-.314-.82-.705-1.422-1.175-1.807-.47-.386-1.162-.662-2.077-.831v-.325c.77-.169 1.391-.428 1.86-.777.47-.35.886-.885 1.247-1.608.265-.53.506-1.096.723-1.698.216-.602.433-1.192.65-1.77a13 13 0 01.759-1.662c.289-.53.638-1 1.047-1.41h-6.286c-.217.29-.445.7-.686 1.23-.241.53-.482 1.083-.723 1.661-.241.578-.452 1.12-.632 1.626-.18.506-.307.867-.38 1.084-.168.506-.355.849-.56 1.03-.204.18-.5.27-.885.27h-1.445v-6.9h-5.925zM192.604 110.642c3.059 0 5.395-.837 7.009-2.511 1.613-1.674 2.42-4.1 2.42-7.28 0-3.18-.807-5.612-2.42-7.298-1.614-1.686-3.95-2.53-7.01-2.53-3.107 0-5.467.844-7.08 2.53-1.615 1.686-2.421 4.119-2.421 7.298 0 3.18.806 5.606 2.42 7.28 1.614 1.674 3.974 2.51 7.082 2.51zm0-3.83c-.554 0-1.036-.096-1.446-.289-.409-.192-.746-.512-1.011-.957-.265-.446-.464-1.054-.596-1.825-.133-.77-.2-1.734-.2-2.89 0-1.132.067-2.077.2-2.836.132-.759.33-1.373.596-1.843.265-.47.602-.806 1.011-1.011.41-.205.892-.307 1.446-.307.53 0 .993.102 1.39.307.398.205.73.542.994 1.011.265.47.464 1.084.596 1.843.133.759.199 1.704.199 2.836 0 1.156-.066 2.12-.199 2.89-.132.77-.331 1.38-.596 1.825-.265.445-.596.765-.994.957-.397.193-.86.29-1.39.29zM215.51 96.118v9.61c-.723.627-1.386 1.006-1.988 1.138-.602.133-1.126 0-1.571-.397-.446-.397-.795-1.054-1.048-1.969s-.38-2.107-.38-3.577c0-1.47.127-2.661.38-3.577.253-.915.602-1.571 1.048-1.969.445-.397.969-.53 1.571-.397s1.265.512 1.987 1.138zm5.924-8.815v-1.229h-5.925v1.229c0 .698.012 1.306.036 1.824.025.518.06.982.109 1.391.048.41.114.783.199 1.12.084.337.186.687.307 1.048l-.362.144a5.594 5.594 0 00-2.131-1.354 5.665 5.665 0 00-2.457-.29 6.732 6.732 0 00-2.493.777c-.819.434-1.547 1.054-2.186 1.86-.638.808-1.156 1.801-1.553 2.982-.398 1.18-.596 2.553-.596 4.118 0 1.566.198 2.939.596 4.119.397 1.18.915 2.174 1.553 2.98.639.807 1.367 1.428 2.186 1.861.82.434 1.65.693 2.493.777a5.768 5.768 0 002.475-.289 5.274 5.274 0 002.113-1.355l.362.18c-.12.362-.223.711-.307 1.049-.085.337-.151.71-.2 1.12-.047.409-.083.873-.108 1.39a39.748 39.748 0 00-.036 1.825v1.951h5.925v-1.951c0-.698-.011-1.313-.036-1.843-.024-.53-.066-1-.126-1.409-.06-.409-.133-.783-.217-1.12a30.813 30.813 0 00-.27-1.011l.36-.18a5.471 5.471 0 002.096 1.372 5.5 5.5 0 002.457.307c.843-.084 1.68-.343 2.51-.777.832-.433 1.566-1.06 2.204-1.878.639-.82 1.157-1.819 1.554-3 .397-1.18.596-2.552.596-4.118 0-2.336-.421-4.251-1.264-5.744-.843-1.493-1.867-2.565-3.071-3.216-1.205-.65-2.457-.903-3.758-.758a5.332 5.332 0 00-3.324 1.625l-.36-.144c.096-.313.186-.644.27-.994a12.904 12.904 0 00.343-2.547c.025-.53.036-1.144.036-1.842zm0 18.425v-9.61c.723-.626 1.385-1.005 1.988-1.138.602-.133 1.126 0 1.571.397.446.398.795 1.054 1.048 1.97.253.915.38 2.107.38 3.576 0 2.939-.464 4.787-1.392 5.546-.927.759-2.125.512-3.595-.74zM246.038 96.118v9.61c-.722.627-1.385 1.006-1.987 1.138-.602.133-1.126 0-1.571-.397-.446-.397-.795-1.054-1.048-1.969s-.38-2.107-.38-3.577c0-1.47.127-2.661.38-3.577.253-.915.602-1.571 1.048-1.969.445-.397.969-.53 1.571-.397s1.265.512 1.987 1.138zm5.925-8.815v-1.229h-5.925v1.229c0 .698.012 1.306.036 1.824.025.518.06.982.109 1.391.048.41.114.783.198 1.12.085.337.187.687.308 1.048l-.362.144a5.594 5.594 0 00-2.131-1.354 5.665 5.665 0 00-2.457-.29 6.732 6.732 0 00-2.493.777c-.819.434-1.547 1.054-2.186 1.86-.638.808-1.156 1.801-1.553 2.982-.398 1.18-.596 2.553-.596 4.118 0 1.566.198 2.939.596 4.119.397 1.18.915 2.174 1.553 2.98.639.807 1.367 1.428 2.186 1.861.82.434 1.65.693 2.493.777a5.768 5.768 0 002.475-.289 5.274 5.274 0 002.113-1.355l.362.18c-.12.362-.223.711-.308 1.049-.084.337-.15.71-.198 1.12-.048.409-.084.873-.109 1.39a39.748 39.748 0 00-.036 1.825v1.951h5.925v-1.951c0-.698-.012-1.313-.036-1.843-.024-.53-.066-1-.126-1.409-.06-.409-.133-.783-.217-1.12a30.813 30.813 0 00-.27-1.011l.36-.18a5.471 5.471 0 002.096 1.372 5.5 5.5 0 002.457.307c.843-.084 1.68-.343 2.51-.777.832-.433 1.566-1.06 2.204-1.878.639-.82 1.157-1.819 1.554-3 .397-1.18.596-2.552.596-4.118 0-2.336-.421-4.251-1.264-5.744-.843-1.493-1.867-2.565-3.071-3.216-1.205-.65-2.457-.903-3.758-.758a5.332 5.332 0 00-3.324 1.625l-.36-.144c.096-.313.186-.644.27-.994a12.904 12.904 0 00.343-2.547c.024-.53.036-1.144.036-1.842zm0 18.425v-9.61c.723-.626 1.385-1.005 1.987-1.138.603-.133 1.127 0 1.572.397.446.398.795 1.054 1.048 1.97.253.915.38 2.107.38 3.576 0 2.939-.464 4.787-1.392 5.546-.927.759-2.125.512-3.595-.74z" stroke-width=".03613"/></g></svg>