<svg width="491.549" height="113" viewBox="0 0 491.549 113" xmlns="http://www.w3.org/2000/svg"><g fill="#333" stroke="#000"><path d="M2.05 28.95H7.89v-8.472h1.674c.82 0 1.47.194 1.947.58.479.388.866 1.07 1.162 2.05.137.456.307.957.512 1.503.205.547.422 1.094.65 1.64.227.547.46 1.06.7 1.538.239.478.45.865.632 1.161h6.422a29.821 29.821 0 01-1.178-2.067 71.443 71.443 0 01-1.145-2.289 56.392 56.392 0 01-1.708-3.945c-.319-.843-.746-1.47-1.28-1.88-.536-.41-1.35-.705-2.444-.887v-.342c1.048-.16 1.822-.455 2.323-.888.502-.433.923-1.093 1.264-1.982.32-.797.803-1.896 1.452-3.296.65-1.4 1.407-2.921 2.272-4.56h-6.08c-.206.34-.428.785-.667 1.332-.239.546-.472 1.116-.7 1.708a31.905 31.905 0 00-.615 1.742c-.182.57-.342 1.059-.478 1.469-.274.797-.65 1.412-1.128 1.845-.478.432-1.116.649-1.913.649H7.891V6.813H2.05zM29.926 25.773c-.729 0-1.327-.216-1.794-.65-.467-.432-.7-.99-.7-1.673 0-.41.085-.792.256-1.144.17-.353.455-.66.854-.923.399-.262.934-.472 1.606-.632.672-.16 1.52-.262 2.545-.307v1.264c0 .523-.046 1.03-.137 1.52-.091.49-.25.922-.478 1.298a2.767 2.767 0 01-.871.905c-.353.228-.78.342-1.281.342zm-2.46 3.655c.774 0 1.452-.09 2.033-.273a5.975 5.975 0 001.537-.717c.444-.297.82-.644 1.127-1.042.308-.399.575-.826.803-1.281l.444.239c-.136.433-.262.86-.376 1.28-.113.422-.17.792-.17 1.111v.205h5.431V17.062c0-.911-.108-1.743-.324-2.494a4.376 4.376 0 00-1.162-1.947c-.558-.547-1.332-.968-2.323-1.264-.99-.296-2.249-.444-3.775-.444-1.548 0-2.84.17-3.877.512-1.036.342-1.85.797-2.443 1.367-.592.569-.99 1.224-1.195 1.964a5.591 5.591 0 00-.137 2.306h4.646a3.333 3.333 0 01-.034-1.06c.045-.34.165-.643.359-.905.193-.262.467-.472.82-.632.352-.16.791-.239 1.315-.239.865 0 1.503.211 1.913.632.41.422.615 1.02.615 1.794v1.23a40.068 40.068 0 00-3.519.307c-1.23.16-2.357.467-3.382.922a6.445 6.445 0 00-2.528 1.965c-.66.854-.99 2.01-.99 3.467 0 .592.113 1.185.341 1.777a4.59 4.59 0 001.008 1.571c.444.455.985.826 1.622 1.11.638.285 1.378.427 2.221.427zM41.37 28.95h5.602v-6.559h1.503c.456 0 .792.114 1.008.342.216.227.37.535.461.922a34.83 34.83 0 00.837 2.699c.194.546.399 1.059.615 1.537.217.478.416.831.598 1.059h6.15c-.684-.865-1.27-1.873-1.76-3.023a85.53 85.53 0 01-1.315-3.263c-.297-.774-.666-1.343-1.11-1.708-.445-.364-1.1-.626-1.965-.786v-.307c.729-.16 1.315-.404 1.76-.734.444-.33.836-.837 1.178-1.52.25-.502.478-1.037.683-1.606.205-.57.41-1.128.615-1.674.205-.547.444-1.07.718-1.572.273-.5.603-.945.99-1.332h-5.944c-.205.273-.421.66-.649 1.162a54.011 54.011 0 00-.683 1.571 31.882 31.882 0 00-.598 1.537c-.17.479-.29.82-.359 1.025-.16.478-.336.803-.53.974-.193.17-.472.256-.836.256h-1.367v-6.525H41.37zM66.171 28.95h5.603v-6.559h5.022v6.559h5.602V11.425h-5.602v6.525h-5.022v-6.525H66.17zM101.768 23.108h-4.851c.091 1.07-.126 1.822-.65 2.255-.523.433-1.24.65-2.152.65-.592 0-1.087-.126-1.486-.377a2.947 2.947 0 01-.973-1.007 4.686 4.686 0 01-.547-1.47 8.97 8.97 0 01-.17-1.793h10.863c.068-.387.114-.854.137-1.4.022-.547.034-.98.034-1.299 0-1.025-.131-2.004-.393-2.938a6.31 6.31 0 00-1.332-2.476c-.627-.718-1.452-1.287-2.477-1.708-1.025-.422-2.289-.632-3.792-.632-1.572 0-2.915.25-4.031.751-1.116.501-2.033 1.19-2.75 2.067a8.406 8.406 0 00-1.572 3.04 13.245 13.245 0 00-.495 3.673c0 1.32.17 2.528.512 3.62.342 1.094.866 2.04 1.572 2.836.706.797 1.611 1.418 2.716 1.862 1.104.444 2.42.666 3.945.666 1.299 0 2.466-.142 3.502-.427 1.036-.284 1.896-.7 2.58-1.247a4.896 4.896 0 001.502-1.981c.319-.774.421-1.663.308-2.665zm-7.653-8.882c1.025 0 1.731.325 2.119.974.387.649.58 1.623.58 2.92v.172h-5.876c.023-1.253.297-2.244.82-2.973.524-.728 1.31-1.093 2.357-1.093zM110.855 28.95h5.602V15.866h4.715V28.95h5.602V11.425h-15.92zM146.144 23.108h-4.851c.091 1.07-.126 1.822-.65 2.255-.523.433-1.24.65-2.151.65-.592 0-1.088-.126-1.486-.377a2.947 2.947 0 01-.974-1.007 4.686 4.686 0 01-.547-1.47 8.97 8.97 0 01-.17-1.793h10.863c.068-.387.114-.854.137-1.4.022-.547.034-.98.034-1.299 0-1.025-.131-2.004-.393-2.938a6.31 6.31 0 00-1.332-2.476c-.627-.718-1.452-1.287-2.477-1.708-1.025-.422-2.289-.632-3.792-.632-1.572 0-2.915.25-4.031.751-1.116.501-2.033 1.19-2.75 2.067a8.406 8.406 0 00-1.572 3.04 13.245 13.245 0 00-.495 3.673c0 1.32.17 2.528.512 3.62.342 1.094.866 2.04 1.572 2.836.706.797 1.611 1.418 2.716 1.862 1.104.444 2.42.666 3.945.666 1.299 0 2.466-.142 3.502-.427 1.036-.284 1.896-.7 2.58-1.247a4.896 4.896 0 001.502-1.981c.319-.774.422-1.663.308-2.665zm-7.652-8.882c1.024 0 1.73.325 2.118.974.387.649.58 1.623.58 2.92v.172h-5.875c.022-1.253.296-2.244.82-2.973.523-.728 1.309-1.093 2.357-1.093zM157.622 25.944c-.888 0-1.617-.444-2.186-1.333-.57-.888-.854-2.345-.854-4.372 0-2.05.284-3.519.854-4.407.57-.888 1.298-1.332 2.186-1.332.865 0 1.583.444 2.152 1.332.57.888.854 2.357.854 4.407 0 2.027-.284 3.484-.854 4.372-.57.889-1.287 1.333-2.152 1.333zm2.084-15.031c-.638 0-1.201.085-1.691.256-.49.17-.934.41-1.332.717a5.188 5.188 0 00-1.042 1.076c-.296.41-.581.843-.854 1.298l-.513-.239c.137-.432.24-.86.308-1.28.068-.422.102-.792.102-1.111v-.205h-5.602v23.606h5.602v-5.124c0-.592-.062-1.18-.188-1.76-.125-.58-.279-1.133-.46-1.657l.546-.205a5.9 5.9 0 00.615.94 6.006 6.006 0 002.528 1.862c.57.228 1.218.341 1.947.341.956 0 1.85-.188 2.682-.563.83-.376 1.554-.946 2.169-1.708.615-.763 1.099-1.72 1.452-2.87.353-1.15.53-2.5.53-4.048 0-3.006-.604-5.312-1.811-6.918-1.207-1.606-2.87-2.408-4.988-2.408zM185.361 23.108h-4.85c.09 1.07-.126 1.822-.65 2.255-.523.433-1.24.65-2.152.65-.592 0-1.087-.126-1.486-.377a2.947 2.947 0 01-.973-1.007 4.686 4.686 0 01-.547-1.47 8.97 8.97 0 01-.17-1.793h10.863c.068-.387.113-.854.136-1.4.023-.547.034-.98.034-1.299 0-1.025-.13-2.004-.392-2.938a6.31 6.31 0 00-1.333-2.476c-.626-.718-1.452-1.287-2.477-1.708-1.024-.422-2.288-.632-3.791-.632-1.572 0-2.915.25-4.032.751-1.116.501-2.032 1.19-2.75 2.067a8.406 8.406 0 00-1.571 3.04 13.245 13.245 0 00-.495 3.673c0 1.32.17 2.528.512 3.62.342 1.094.865 2.04 1.572 2.836.706.797 1.61 1.418 2.715 1.862 1.105.444 2.42.666 3.946.666 1.298 0 2.466-.142 3.502-.427 1.036-.284 1.896-.7 2.579-1.247a4.896 4.896 0 001.503-1.981c.319-.774.421-1.663.307-2.665zm-7.652-8.882c1.025 0 1.731.325 2.118.974.387.649.581 1.623.581 2.92v.172h-5.876c.023-1.253.296-2.244.82-2.973.524-.728 1.31-1.093 2.357-1.093zM188.3 28.95h5.602V15.866h4.714V28.95h5.603V11.425h-15.92zM206.268 24.611h0v4.305c1.868.25 3.36.256 4.476.017 1.116-.24 1.97-.82 2.562-1.742.592-.923.98-2.238 1.161-3.946.182-1.708.273-3.917.273-6.627v-1.264h3.04V28.95h5.603V11.425h-14.006v4.304c0 2.118-.04 3.787-.12 5.005-.08 1.219-.227 2.135-.444 2.75-.216.615-.53.985-.939 1.11-.41.126-.945.131-1.606.017zM233.598 25.773c-.729 0-1.327-.216-1.794-.65-.467-.432-.7-.99-.7-1.673 0-.41.085-.792.256-1.144.171-.353.456-.66.854-.923.399-.262.934-.472 1.606-.632.672-.16 1.52-.262 2.545-.307v1.264c0 .523-.046 1.03-.137 1.52-.091.49-.25.922-.478 1.298a2.767 2.767 0 01-.871.905c-.353.228-.78.342-1.281.342zm-2.46 3.655c.775 0 1.452-.09 2.033-.273a5.975 5.975 0 001.537-.717c.444-.297.82-.644 1.127-1.042.308-.399.575-.826.803-1.281l.444.239c-.136.433-.262.86-.376 1.28-.113.422-.17.792-.17 1.111v.205h5.431V17.062c0-.911-.108-1.743-.324-2.494a4.376 4.376 0 00-1.162-1.947c-.558-.547-1.332-.968-2.323-1.264-.99-.296-2.249-.444-3.775-.444-1.548 0-2.84.17-3.877.512-1.036.342-1.85.797-2.442 1.367-.592.569-.991 1.224-1.196 1.964a5.591 5.591 0 00-.137 2.306h4.646a3.333 3.333 0 01-.034-1.06c.046-.34.165-.643.359-.905.193-.262.467-.472.82-.632.353-.16.791-.239 1.315-.239.865 0 1.503.211 1.913.632.41.422.615 1.02.615 1.794v1.23a40.068 40.068 0 00-3.519.307c-1.23.16-2.357.467-3.382.922a6.445 6.445 0 00-2.528 1.965c-.66.854-.99 2.01-.99 3.467 0 .592.113 1.185.341 1.777a4.59 4.59 0 001.008 1.571c.444.455.985.826 1.623 1.11.637.285 1.377.427 2.22.427zM260.278 11.425h-5.602v7.55c-.342.136-.707.239-1.094.307a6.671 6.671 0 01-1.161.103c-.615 0-1.15-.12-1.606-.359-.455-.24-.683-.689-.683-1.35v-6.251h-5.603v6.969c0 1.07.171 1.953.513 2.648a4.451 4.451 0 001.383 1.673c.581.422 1.242.718 1.982.889.74.17 1.509.256 2.306.256.683 0 1.366-.046 2.05-.137a11.83 11.83 0 001.913-.41v5.637h5.602zM263.694 28.95h7.14l2.425-5.363a66.783 66.783 0 001.76-4.56 57.21 57.21 0 001.11-3.604l.478.067c-.068.365-.148.877-.239 1.538a62.49 62.49 0 00-.256 2.152c-.08.774-.148 1.56-.205 2.357a30.037 30.037 0 00-.085 2.118v5.295h5.397V11.425h-7.105l-2.426 5.363a40.607 40.607 0 00-.94 2.272 89.423 89.423 0 00-.853 2.34 54.276 54.276 0 00-1.11 3.553l-.445-.068c.069-.365.148-.877.24-1.538.09-.66.17-1.383.238-2.169.069-.786.131-1.577.188-2.374.057-.797.086-1.514.086-2.152v-5.227h-5.398zM284.635 11.425V28.95h8.438c.98 0 1.913-.074 2.802-.222.888-.148 1.662-.404 2.323-.769.66-.364 1.19-.86 1.588-1.486.399-.626.598-1.429.598-2.408 0-.433-.074-.871-.222-1.315a3.327 3.327 0 00-.752-1.23c-.353-.376-.825-.695-1.417-.957-.592-.262-1.321-.415-2.187-.46v-.41c.706-.137 1.31-.342 1.81-.616.502-.273.906-.592 1.214-.956.307-.365.535-.752.683-1.162.148-.41.222-.808.222-1.195 0-1.595-.581-2.716-1.742-3.365-1.162-.65-2.733-.974-4.715-.974zm8.165 14.006h-2.733v-3.45h2.801c.524 0 1.008.125 1.452.376.444.25.666.694.666 1.332 0 .615-.199 1.06-.598 1.332-.398.274-.928.41-1.588.41zm-.65-6.969h-2.083V14.91h2.357c.524 0 .974.125 1.35.375.375.25.563.684.563 1.298 0 .638-.216 1.11-.649 1.418-.433.308-.945.461-1.537.461zM309.744 25.773c-.728 0-1.326-.216-1.793-.65-.467-.432-.7-.99-.7-1.673 0-.41.085-.792.256-1.144.17-.353.455-.66.854-.923.398-.262.933-.472 1.605-.632.672-.16 1.52-.262 2.545-.307v1.264c0 .523-.045 1.03-.136 1.52-.092.49-.25.922-.479 1.298a2.767 2.767 0 01-.87.905c-.354.228-.78.342-1.282.342zm-2.46 3.655c.775 0 1.452-.09 2.033-.273a5.975 5.975 0 001.537-.717c.445-.297.82-.644 1.128-1.042.307-.399.575-.826.803-1.281l.444.239c-.137.433-.262.86-.376 1.28-.114.422-.17.792-.17 1.111v.205h5.43V17.062c0-.911-.107-1.743-.324-2.494a4.376 4.376 0 00-1.161-1.947c-.558-.547-1.333-.968-2.323-1.264-.99-.296-2.25-.444-3.775-.444-1.549 0-2.841.17-3.877.512-1.037.342-1.851.797-2.443 1.367-.592.569-.99 1.224-1.196 1.964a5.591 5.591 0 00-.136 2.306h4.646a3.333 3.333 0 01-.034-1.06c.045-.34.165-.643.358-.905.194-.262.467-.472.82-.632.353-.16.792-.239 1.315-.239.866 0 1.503.211 1.913.632.41.422.615 1.02.615 1.794v1.23a40.068 40.068 0 00-3.518.307c-1.23.16-2.358.467-3.382.922a6.445 6.445 0 00-2.528 1.965c-.66.854-.991 2.01-.991 3.467 0 .592.114 1.185.342 1.777a4.59 4.59 0 001.007 1.571c.444.455.985.826 1.623 1.11.638.285 1.378.427 2.22.427zM324.229 28.95h5.602V15.866h4.236v-4.441h-14.074v4.441h4.236zM341.89 16.003v-4.578h-5.602V28.95h7.55c1.503 0 2.75-.21 3.74-.632.991-.421 1.782-.95 2.375-1.589a5.675 5.675 0 001.263-2.1c.25-.763.376-1.486.376-2.17a8.58 8.58 0 00-.358-2.51 4.704 4.704 0 00-1.264-2.05c-.604-.581-1.401-1.042-2.392-1.384-.99-.341-2.237-.512-3.74-.512zm1.572 8.71h-1.572V20.24h1.572c.728 0 1.31.176 1.742.53.433.352.65.927.65 1.724 0 .797-.217 1.367-.65 1.709-.433.341-1.014.512-1.742.512z" stroke-width=".03416"/></g><g fill="#333" stroke="#000"><path d="M1.708 66.53h5.603v-6.559h5.021v6.559h5.603V49.005h-5.603v6.525H7.311v-6.525H1.708zM28.15 63.353c-.73 0-1.327-.216-1.794-.65-.467-.432-.7-.99-.7-1.673 0-.41.085-.792.256-1.144.17-.353.455-.66.854-.923.398-.262.933-.472 1.605-.632.672-.16 1.52-.262 2.545-.307v1.264c0 .523-.045 1.03-.136 1.52-.092.49-.25.922-.479 1.298a2.767 2.767 0 01-.87.905c-.354.228-.78.342-1.282.342zm-2.46 3.655c.774 0 1.451-.09 2.032-.273a5.975 5.975 0 001.538-.717c.444-.297.82-.644 1.127-1.042.307-.399.575-.826.803-1.281l.444.239c-.137.433-.262.86-.376 1.28-.114.422-.17.792-.17 1.111v.205h5.43V54.642c0-.911-.107-1.743-.324-2.494a4.376 4.376 0 00-1.161-1.947c-.558-.547-1.332-.968-2.323-1.264-.99-.296-2.249-.444-3.775-.444-1.549 0-2.841.17-3.877.512-1.037.342-1.85.797-2.443 1.367-.592.569-.99 1.224-1.196 1.964a5.591 5.591 0 00-.136 2.306h4.646a3.333 3.333 0 01-.034-1.06c.045-.34.165-.643.358-.905.194-.262.467-.472.82-.632.353-.16.792-.239 1.315-.239.866 0 1.503.211 1.913.632.41.422.615 1.02.615 1.794v1.23a40.068 40.068 0 00-3.518.307c-1.23.16-2.357.467-3.382.922a6.445 6.445 0 00-2.528 1.965c-.66.854-.991 2.01-.991 3.467 0 .592.114 1.185.342 1.777a4.59 4.59 0 001.007 1.571c.445.455.985.826 1.623 1.11.638.285 1.378.427 2.22.427zM38.227 62.191h0v4.305c1.868.25 3.36.256 4.475.017 1.116-.24 1.97-.82 2.562-1.742.592-.923.98-2.238 1.162-3.946.182-1.708.273-3.917.273-6.627v-1.264h3.04V66.53h5.603V49.005H41.336v4.304c0 2.118-.04 3.787-.12 5.005-.08 1.219-.228 2.135-.444 2.75-.216.615-.53.985-.94 1.11-.41.126-.945.131-1.605.017zM67.06 67.042c2.892 0 5.1-.791 6.627-2.374 1.526-1.583 2.289-3.877 2.289-6.883 0-3.007-.763-5.307-2.29-6.901-1.525-1.594-3.734-2.391-6.627-2.391-2.937 0-5.17.797-6.695 2.39-1.526 1.595-2.29 3.895-2.29 6.902 0 3.006.764 5.3 2.29 6.883 1.526 1.583 3.758 2.374 6.695 2.374zm0-3.62c-.524 0-.98-.092-1.367-.274-.387-.182-.706-.484-.957-.905-.25-.422-.438-.997-.563-1.725-.126-.73-.188-1.64-.188-2.733 0-1.07.062-1.965.188-2.682.125-.717.313-1.298.563-1.742.25-.444.57-.763.957-.957.387-.194.843-.29 1.366-.29.502 0 .94.096 1.316.29.375.194.689.513.94.957.25.444.437 1.025.563 1.742.125.717.188 1.611.188 2.682 0 1.093-.063 2.004-.188 2.733-.126.728-.313 1.303-.564 1.725-.25.42-.564.723-.94.905-.375.182-.813.273-1.315.273zM78.709 66.53h5.602V53.446h6.013v-4.441H78.709zM92.544 66.53h7.14l2.425-5.363a66.783 66.783 0 001.76-4.56 57.21 57.21 0 001.11-3.604l.478.067c-.068.365-.148.877-.239 1.538a62.49 62.49 0 00-.256 2.152c-.08.774-.148 1.56-.205 2.357a30.037 30.037 0 00-.086 2.118v5.295h5.398V49.005h-7.106l-2.425 5.363a40.607 40.607 0 00-.94 2.272 89.423 89.423 0 00-.854 2.34 54.276 54.276 0 00-1.11 3.553l-.444-.068c.068-.365.148-.877.24-1.538.09-.66.17-1.383.238-2.169.069-.786.131-1.577.188-2.374.057-.797.086-1.514.086-2.152v-5.227h-5.398zM119.634 66.53h7.14l2.426-5.363a66.783 66.783 0 001.76-4.56c.26-.764.488-1.47.682-2.119.194-.65.336-1.144.427-1.486l.478.068c-.068.365-.148.877-.239 1.538a62.49 62.49 0 00-.256 2.152c-.08.774-.148 1.56-.205 2.357a30.037 30.037 0 00-.085 2.118v5.295h5.397V49.005h-7.105l-2.426 5.363a40.607 40.607 0 00-.94 2.272 89.423 89.423 0 00-.853 2.34 54.276 54.276 0 00-1.11 3.553l-.445-.068c.069-.365.148-.877.24-1.538.09-.66.17-1.383.239-2.169.068-.786.13-1.577.187-2.374.057-.797.086-1.514.086-2.152v-5.227h-5.398zM146.725 49.005V66.53h8.437c.98 0 1.914-.074 2.802-.222.888-.148 1.662-.404 2.323-.769.66-.364 1.19-.86 1.588-1.486.399-.626.598-1.429.598-2.408 0-.433-.074-.871-.222-1.315a3.327 3.327 0 00-.752-1.23c-.352-.376-.825-.695-1.417-.957-.592-.262-1.321-.415-2.187-.46v-.41c.707-.137 1.31-.342 1.811-.616.501-.273.905-.592 1.213-.956.307-.365.535-.752.683-1.162.148-.41.222-.808.222-1.195 0-1.595-.58-2.716-1.742-3.365-1.162-.65-2.733-.974-4.715-.974zm8.164 14.006h-2.733v-3.45h2.801c.524 0 1.008.125 1.452.376.444.25.667.694.667 1.332 0 .615-.2 1.06-.598 1.332-.399.274-.928.41-1.589.41zm-.649-6.969h-2.084V52.49h2.357c.524 0 .974.125 1.35.375.376.25.563.684.563 1.298 0 .638-.216 1.11-.649 1.418-.432.308-.945.461-1.537.461zM179.178 61.816c0-1.07-.341-1.959-1.025-2.665-.683-.706-1.605-1.161-2.767-1.366v-.444a4.982 4.982 0 001.35-.462 4.273 4.273 0 001.127-.837c.33-.341.592-.74.786-1.195.193-.456.29-.98.29-1.572 0-.82-.205-1.531-.615-2.135a4.973 4.973 0 00-1.64-1.503c-.683-.399-1.474-.689-2.374-.871-.9-.182-1.85-.273-2.852-.273-1.207 0-2.3.125-3.28.375s-1.793.627-2.442 1.128a4.097 4.097 0 00-1.384 1.896c-.273.763-.307 1.657-.103 2.681h4.237c-.069-.432-.035-.791.102-1.076.137-.284.33-.518.58-.7a2.43 2.43 0 01.906-.393c.353-.08.712-.12 1.076-.12.66 0 1.224.154 1.691.462.467.307.7.791.7 1.452 0 .66-.227 1.133-.683 1.417-.455.285-1.013.427-1.674.427h-2.015v3.587h2.05c.683 0 1.275.103 1.776.308.501.205.751.66.751 1.366 0 .683-.256 1.19-.768 1.52-.513.33-1.133.496-1.862.496-.865 0-1.577-.211-2.135-.632-.558-.421-.769-1.053-.632-1.896h-4.373c-.205 1.048-.16 1.958.137 2.733a4.382 4.382 0 001.435 1.93c.66.512 1.463.9 2.408 1.161.945.262 1.987.393 3.126.393 1.23 0 2.34-.108 3.33-.324.991-.217 1.84-.541 2.546-.974.706-.433 1.252-.973 1.64-1.623.386-.649.58-1.406.58-2.271zM181.57 66.53h5.602v-6.559h5.022v6.559h5.602V49.005h-5.602v6.525h-5.022v-6.525h-5.603zM209.514 67.042c2.892 0 5.101-.791 6.627-2.374 1.526-1.583 2.289-3.877 2.289-6.883 0-3.007-.763-5.307-2.289-6.901-1.526-1.594-3.735-2.391-6.627-2.391-2.938 0-5.17.797-6.696 2.39-1.526 1.595-2.289 3.895-2.289 6.902 0 3.006.763 5.3 2.289 6.883 1.526 1.583 3.758 2.374 6.696 2.374zm0-3.62c-.524 0-.98-.092-1.367-.274-.387-.182-.706-.484-.956-.905-.25-.422-.439-.997-.564-1.725-.125-.73-.188-1.64-.188-2.733 0-1.07.063-1.965.188-2.682.125-.717.313-1.298.564-1.742.25-.444.57-.763.956-.957.387-.194.843-.29 1.367-.29.5 0 .94.096 1.315.29.376.194.689.513.94.957.25.444.438 1.025.563 1.742.125.717.188 1.611.188 2.682 0 1.093-.063 2.004-.188 2.733-.125.728-.313 1.303-.564 1.725-.25.42-.563.723-.939.905-.376.182-.814.273-1.315.273zM237.116 59.63h0-4.714c.114.82.108 1.474-.017 1.964s-.325.865-.598 1.127a2.098 2.098 0 01-.94.53c-.352.09-.7.136-1.041.136-.547 0-1.025-.08-1.435-.239-.41-.16-.746-.45-1.008-.871s-.461-.997-.598-1.725c-.136-.729-.205-1.663-.205-2.802 0-1.093.063-1.998.188-2.715.126-.718.314-1.293.564-1.726.25-.432.58-.734.99-.905.41-.17.889-.256 1.435-.256.41 0 .797.051 1.162.154.364.102.672.29.922.563.25.274.433.644.547 1.11.114.468.102 1.065-.034 1.794h4.714c.273-2.277-.222-4.06-1.486-5.346-1.264-1.287-3.205-1.93-5.825-1.93-1.389 0-2.647.188-3.774.563-1.128.376-2.084.946-2.87 1.708-.786.763-1.39 1.726-1.81 2.887-.422 1.162-.633 2.528-.633 4.1 0 1.594.211 2.972.632 4.133.422 1.162 1.025 2.124 1.811 2.887.786.763 1.742 1.326 2.87 1.69 1.127.365 2.385.547 3.774.547 1.412 0 2.614-.188 3.605-.563.99-.376 1.787-.894 2.39-1.555a5.214 5.214 0 001.23-2.34c.217-.9.268-1.873.154-2.92zM256.828 66.53h5.602V49.005h-5.602zM245.52 53.583v-4.578h-5.602V66.53h7.55c1.503 0 2.75-.21 3.74-.632.99-.421 1.782-.95 2.374-1.589a5.675 5.675 0 001.264-2.1c.25-.763.376-1.486.376-2.17a8.58 8.58 0 00-.359-2.51 4.704 4.704 0 00-1.264-2.05c-.603-.581-1.4-1.042-2.39-1.384-.992-.341-2.238-.512-3.742-.512zm1.572 8.71h-1.572V57.82h1.572c.728 0 1.309.176 1.742.53.433.352.649.927.649 1.724 0 .797-.216 1.367-.65 1.709-.432.341-1.013.512-1.741.512z" stroke-width=".03416"/></g><g fill="#333" stroke="#000"><path d="M1.708 104.11h5.603v-6.559h5.021v6.559h5.603V86.585h-5.603v6.525H7.311v-6.525H1.708zM28.15 100.933c-.73 0-1.327-.216-1.794-.65-.467-.432-.7-.99-.7-1.673 0-.41.085-.792.256-1.144.17-.353.455-.66.854-.923.398-.262.933-.472 1.605-.632.672-.16 1.52-.262 2.545-.307v1.264c0 .523-.045 1.03-.136 1.52-.092.49-.25.922-.479 1.298a2.767 2.767 0 01-.87.905c-.354.228-.78.342-1.282.342zm-2.46 3.655c.774 0 1.451-.09 2.032-.273a5.975 5.975 0 001.538-.717c.444-.297.82-.644 1.127-1.042.307-.399.575-.826.803-1.281l.444.239c-.137.433-.262.86-.376 1.28-.114.422-.17.792-.17 1.111v.205h5.43V92.222c0-.911-.107-1.743-.324-2.494a4.376 4.376 0 00-1.161-1.947c-.558-.547-1.332-.968-2.323-1.264-.99-.296-2.249-.444-3.775-.444-1.549 0-2.841.17-3.877.512-1.037.342-1.85.797-2.443 1.367-.592.569-.99 1.224-1.196 1.964a5.591 5.591 0 00-.136 2.306h4.646a3.333 3.333 0 01-.034-1.06c.045-.34.165-.643.358-.905.194-.262.467-.472.82-.632.353-.16.792-.239 1.315-.239.866 0 1.503.211 1.913.632.41.422.615 1.02.615 1.794v1.23a40.068 40.068 0 00-3.518.307c-1.23.16-2.357.467-3.382.922a6.445 6.445 0 00-2.528 1.965c-.66.854-.991 2.01-.991 3.467 0 .592.114 1.185.342 1.777a4.59 4.59 0 001.007 1.571c.445.455.985.826 1.623 1.11.638.285 1.378.427 2.22.427zM61.525 97.21h0-4.714c.114.82.108 1.474-.017 1.964-.126.49-.325.865-.598 1.127a2.098 2.098 0 01-.94.53c-.352.09-.7.136-1.041.136-.547 0-1.025-.08-1.435-.239-.41-.16-.746-.45-1.008-.871s-.461-.997-.598-1.725c-.136-.729-.205-1.663-.205-2.802 0-1.093.063-1.998.188-2.715.126-.718.313-1.293.564-1.726.25-.432.58-.734.99-.905.41-.17.889-.256 1.435-.256.41 0 .797.051 1.162.154.364.102.672.29.922.563.25.274.433.644.547 1.11.114.468.102 1.065-.034 1.794h4.714c.273-2.277-.222-4.06-1.486-5.346-1.264-1.287-3.206-1.93-5.825-1.93-1.39 0-2.647.188-3.775.563-1.127.376-2.083.946-2.87 1.708-.785.763-1.389 1.726-1.81 2.887-.42 1.162-.632 2.528-.632 4.1 0 1.594.211 2.972.632 4.133.421 1.162 1.025 2.124 1.81 2.887.787.763 1.743 1.326 2.87 1.69 1.128.365 2.386.547 3.775.547 1.412 0 2.614-.188 3.604-.563.991-.376 1.788-.894 2.392-1.555a5.214 5.214 0 001.23-2.34c.216-.9.267-1.873.153-2.92zM67.025 104.11h5.603V91.026h4.236v-4.441H62.789v4.441h4.236zM85.712 100.933c-.729 0-1.327-.216-1.794-.65-.467-.432-.7-.99-.7-1.673 0-.41.085-.792.256-1.144.17-.353.456-.66.854-.923.399-.262.934-.472 1.606-.632.672-.16 1.52-.262 2.545-.307v1.264c0 .523-.046 1.03-.137 1.52-.091.49-.25.922-.478 1.298a2.767 2.767 0 01-.871.905c-.353.228-.78.342-1.281.342zm-2.46 3.655c.775 0 1.452-.09 2.033-.273a5.975 5.975 0 001.537-.717c.444-.297.82-.644 1.127-1.042.308-.399.575-.826.803-1.281l.444.239c-.136.433-.262.86-.376 1.28-.113.422-.17.792-.17 1.111v.205h5.431V92.222c0-.911-.108-1.743-.324-2.494a4.376 4.376 0 00-1.162-1.947c-.558-.547-1.332-.968-2.323-1.264-.99-.296-2.249-.444-3.775-.444-1.548 0-2.84.17-3.877.512-1.036.342-1.85.797-2.442 1.367-.593.569-.991 1.224-1.196 1.964a5.591 5.591 0 00-.137 2.306h4.646a3.333 3.333 0 01-.034-1.06c.045-.34.165-.643.359-.905.193-.262.467-.472.82-.632.353-.16.791-.239 1.315-.239.865 0 1.503.211 1.913.632.41.422.615 1.02.615 1.794v1.23a40.068 40.068 0 00-3.519.307c-1.23.16-2.357.467-3.382.922a6.445 6.445 0 00-2.528 1.965c-.66.854-.99 2.01-.99 3.467 0 .592.113 1.185.341 1.777a4.59 4.59 0 001.008 1.571c.444.455.985.826 1.623 1.11.637.285 1.377.427 2.22.427zM105.696 101.104c-.888 0-1.617-.444-2.186-1.333-.57-.888-.854-2.345-.854-4.372 0-2.05.284-3.519.854-4.407.57-.888 1.298-1.332 2.186-1.332.866 0 1.583.444 2.153 1.332.569.888.854 2.357.854 4.407 0 2.027-.285 3.484-.854 4.372-.57.889-1.287 1.333-2.153 1.333zm2.084-15.031c-.638 0-1.201.085-1.69.256-.49.17-.934.41-1.333.717a5.188 5.188 0 00-1.042 1.076c-.296.41-.58.843-.854 1.298l-.513-.239c.137-.432.24-.86.308-1.28.068-.422.102-.792.102-1.111v-.205h-5.602v23.606h5.602v-5.124c0-.592-.062-1.18-.187-1.76-.126-.58-.28-1.133-.462-1.657l.547-.205a5.9 5.9 0 00.615.94 6.006 6.006 0 002.528 1.862c.57.228 1.218.341 1.947.341.957 0 1.85-.188 2.682-.563.83-.376 1.554-.946 2.169-1.708.615-.763 1.099-1.72 1.452-2.87.353-1.15.53-2.5.53-4.048 0-3.006-.604-5.312-1.811-6.918-1.207-1.606-2.87-2.408-4.988-2.408zM120.01 104.11h5.603V91.026h4.236v-4.441h-14.075v4.441h4.236zM147.681 98.268h-4.85c.09 1.07-.126 1.822-.65 2.255-.524.433-1.241.65-2.152.65-.592 0-1.088-.126-1.486-.377a2.947 2.947 0 01-.974-1.007 4.686 4.686 0 01-.546-1.47 8.97 8.97 0 01-.171-1.793h10.863c.069-.387.114-.854.137-1.4.023-.547.034-.98.034-1.299 0-1.025-.13-2.004-.393-2.938a6.31 6.31 0 00-1.332-2.476c-.626-.718-1.452-1.287-2.477-1.708-1.025-.422-2.289-.632-3.792-.632-1.571 0-2.915.25-4.03.751-1.117.501-2.034 1.19-2.75 2.067a8.406 8.406 0 00-1.572 3.04 13.245 13.245 0 00-.496 3.673c0 1.32.171 2.528.513 3.62.341 1.094.865 2.04 1.571 2.836.706.797 1.612 1.418 2.716 1.862 1.104.444 2.42.666 3.946.666 1.298 0 2.465-.142 3.501-.427 1.036-.284 1.896-.7 2.58-1.247a4.896 4.896 0 001.503-1.981c.318-.774.42-1.663.307-2.665zm-7.652-8.882c1.025 0 1.73.325 2.118.974.387.649.58 1.623.58 2.92v.172h-5.875c.023-1.253.296-2.244.82-2.973.523-.728 1.31-1.093 2.357-1.093zM160.8 92.905h-.48v-.444c0-.911.07-1.725.206-2.443.136-.717.376-1.35.717-1.896a4.397 4.397 0 011.4-1.383c.593-.376 1.344-.678 2.256-.906.614-.159 1.195-.29 1.742-.392a433.22 433.22 0 001.622-.308c.536-.102 1.07-.222 1.606-.359a15.638 15.638 0 001.623-.512l-.308-5.193c-.478.205-.928.388-1.35.547-.42.16-.881.308-1.383.444a34.17 34.17 0 01-1.69.41c-.627.137-1.395.308-2.307.513-1.662.364-3.023.922-4.082 1.673-1.059.752-1.896 1.657-2.51 2.716-.616 1.06-1.037 2.26-1.265 3.604a25.75 25.75 0 00-.341 4.305c0 1.753.16 3.33.478 4.731.319 1.4.826 2.585 1.52 3.553a6.871 6.871 0 002.716 2.238c1.116.523 2.46.785 4.031.785 1.367 0 2.573-.233 3.621-.7 1.048-.467 1.925-1.099 2.63-1.896a8.118 8.118 0 001.606-2.801c.365-1.07.547-2.21.547-3.416 0-1.14-.148-2.193-.444-3.16-.296-.968-.718-1.8-1.264-2.494a5.833 5.833 0 00-2.033-1.64c-.809-.399-1.725-.598-2.75-.598-.956 0-1.782.12-2.477.359-.694.239-1.287.575-1.776 1.008a5.14 5.14 0 00-1.196 1.571 7.582 7.582 0 00-.666 2.084zm3.996 7.208c-.911 0-1.583-.284-2.015-.854-.433-.57-.65-1.526-.65-2.87 0-1.366.228-2.368.684-3.006.455-.638 1.116-.956 1.981-.956.911 0 1.589.296 2.033.888.444.592.666 1.56.666 2.904 0 1.366-.228 2.357-.683 2.972-.456.615-1.128.922-2.016.922zM176.138 104.11h7.14l2.425-5.363a66.783 66.783 0 001.76-4.56 57.21 57.21 0 001.11-3.604l.478.067c-.068.365-.148.877-.24 1.538a62.49 62.49 0 00-.255 2.152c-.08.774-.148 1.56-.205 2.357a30.037 30.037 0 00-.086 2.118v5.295h5.398V86.585h-7.106l-2.425 5.363a40.607 40.607 0 00-.94 2.272 89.423 89.423 0 00-.854 2.34 54.276 54.276 0 00-1.11 3.553l-.444-.068a43.441 43.441 0 00.478-3.707c.068-.786.13-1.577.188-2.374.057-.797.085-1.514.085-2.152v-5.227h-5.397zM211.222 99.396c0-1.07-.342-1.959-1.025-2.665-.683-.706-1.606-1.161-2.767-1.366v-.444a4.982 4.982 0 001.35-.462 4.273 4.273 0 001.127-.837c.33-.341.592-.74.785-1.195.194-.456.29-.98.29-1.572 0-.82-.204-1.531-.614-2.135a4.973 4.973 0 00-1.64-1.503c-.683-.399-1.475-.689-2.374-.871-.9-.182-1.85-.273-2.853-.273-1.207 0-2.3.125-3.28.375-.979.25-1.793.627-2.442 1.128a4.097 4.097 0 00-1.383 1.896c-.274.763-.308 1.657-.103 2.681h4.236c-.068-.432-.034-.791.103-1.076.136-.284.33-.518.58-.7a2.43 2.43 0 01.906-.393c.353-.08.711-.12 1.076-.12.66 0 1.224.154 1.69.462.468.307.701.791.701 1.452 0 .66-.228 1.133-.683 1.417-.455.285-1.014.427-1.674.427h-2.016v3.587h2.05c.683 0 1.275.103 1.777.308.5.205.751.66.751 1.366 0 .683-.256 1.19-.769 1.52-.512.33-1.133.496-1.861.496-.866 0-1.578-.211-2.135-.632-.558-.421-.77-1.053-.632-1.896h-4.373c-.205 1.048-.16 1.958.137 2.733a4.382 4.382 0 001.434 1.93c.66.512 1.463.9 2.409 1.161.945.262 1.987.393 3.125.393 1.23 0 2.34-.108 3.331-.324.991-.217 1.84-.541 2.545-.974.706-.433 1.253-.973 1.64-1.623.387-.649.58-1.406.58-2.271zM213.613 104.11h5.603v-6.559h5.021v6.559h5.603V86.585h-5.603v6.525h-5.021v-6.525h-5.603zM249.21 98.268h-4.851c.09 1.07-.126 1.822-.65 2.255-.523.433-1.24.65-2.152.65-.592 0-1.087-.126-1.486-.377a2.947 2.947 0 01-.973-1.007 4.686 4.686 0 01-.547-1.47 8.97 8.97 0 01-.17-1.793h10.863c.068-.387.114-.854.136-1.4.023-.547.035-.98.035-1.299 0-1.025-.131-2.004-.393-2.938a6.31 6.31 0 00-1.333-2.476c-.626-.718-1.451-1.287-2.476-1.708-1.025-.422-2.29-.632-3.792-.632-1.572 0-2.915.25-4.031.751-1.116.501-2.033 1.19-2.75 2.067a8.406 8.406 0 00-1.572 3.04 13.245 13.245 0 00-.495 3.673c0 1.32.17 2.528.512 3.62.342 1.094.866 2.04 1.572 2.836.706.797 1.611 1.418 2.716 1.862 1.104.444 2.42.666 3.945.666 1.298 0 2.466-.142 3.502-.427 1.036-.284 1.896-.7 2.58-1.247a4.896 4.896 0 001.502-1.981c.319-.774.421-1.663.308-2.665zm-7.653-8.882c1.025 0 1.731.325 2.118.974.387.649.581 1.623.581 2.92v.172h-5.876c.023-1.253.297-2.244.82-2.973.524-.728 1.31-1.093 2.357-1.093zM268.101 97.21h0-4.714c.114.82.108 1.474-.017 1.964-.126.49-.325.865-.598 1.127a2.098 2.098 0 01-.94.53c-.353.09-.7.136-1.042.136-.546 0-1.024-.08-1.434-.239-.41-.16-.746-.45-1.008-.871s-.461-.997-.598-1.725c-.137-.729-.205-1.663-.205-2.802 0-1.093.063-1.998.188-2.715.125-.718.313-1.293.564-1.726.25-.432.58-.734.99-.905.41-.17.889-.256 1.435-.256.41 0 .797.051 1.162.154.364.102.672.29.922.563.25.274.433.644.547 1.11.113.468.102 1.065-.035 1.794h4.715c.273-2.277-.222-4.06-1.486-5.346-1.264-1.287-3.206-1.93-5.825-1.93-1.39 0-2.647.188-3.775.563-1.127.376-2.084.946-2.87 1.708-.785.763-1.389 1.726-1.81 2.887-.421 1.162-.632 2.528-.632 4.1 0 1.594.21 2.972.632 4.133.421 1.162 1.025 2.124 1.81 2.887.786.763 1.743 1.326 2.87 1.69 1.128.365 2.386.547 3.775.547 1.412 0 2.614-.188 3.604-.563.99-.376 1.788-.894 2.392-1.555a5.214 5.214 0 001.23-2.34c.216-.9.267-1.873.153-2.92zM277.7 100.933c-.728 0-1.326-.216-1.793-.65-.467-.432-.7-.99-.7-1.673 0-.41.085-.792.256-1.144.17-.353.455-.66.854-.923.399-.262.934-.472 1.606-.632.672-.16 1.52-.262 2.545-.307v1.264c0 .523-.046 1.03-.137 1.52-.091.49-.25.922-.478 1.298a2.767 2.767 0 01-.871.905c-.353.228-.78.342-1.282.342zm-2.46 3.655c.775 0 1.453-.09 2.033-.273a5.975 5.975 0 001.538-.717c.444-.297.82-.644 1.127-1.042.308-.399.575-.826.803-1.281l.444.239c-.137.433-.262.86-.376 1.28-.114.422-.17.792-.17 1.111v.205h5.431V92.222c0-.911-.108-1.743-.324-2.494a4.376 4.376 0 00-1.162-1.947c-.558-.547-1.332-.968-2.323-1.264-.99-.296-2.249-.444-3.775-.444-1.548 0-2.841.17-3.877.512-1.036.342-1.85.797-2.443 1.367-.592.569-.99 1.224-1.195 1.964a5.591 5.591 0 00-.137 2.306h4.646a3.333 3.333 0 01-.034-1.06c.045-.34.165-.643.359-.905.193-.262.467-.472.82-.632.352-.16.79-.239 1.315-.239.865 0 1.503.211 1.913.632.41.422.615 1.02.615 1.794v1.23a40.068 40.068 0 00-3.52.307c-1.229.16-2.356.467-3.381.922a6.445 6.445 0 00-2.528 1.965c-.66.854-.99 2.01-.99 3.467 0 .592.113 1.185.34 1.777a4.59 4.59 0 001.009 1.571c.444.455.985.826 1.622 1.11.638.285 1.378.427 2.22.427z" stroke-width=".03416"/></g></svg>