<svg width="100%" height="100%" viewBox="0 0 18 15" fill="none" xmlns="http://www.w3.org/2000/svg" preserveAspectRatio="none"><g clip-path="url(#clip0_8614_612)"><path d="M-0.00012207 3.792C-0.00012207 1.69774 1.70461 0 3.8075 0H14.1919C16.2948 0 17.9996 1.69774 17.9996 3.792V11.0313C17.9996 13.1255 16.2948 14.8233 14.1919 14.8233H3.8075C1.70461 14.8233 -0.00012207 13.1255 -0.00012207 11.0313V3.792Z" fill="white" data-color-group="0"/><path d="M6.37267 10.2619C6.09911 10.2619 5.83694 10.2049 5.58617 10.0909C5.3411 9.97693 5.12168 9.8031 4.9279 9.56943C4.73982 9.33006 4.58879 9.03085 4.47481 8.67179C4.36652 8.30704 4.31238 7.87959 4.31238 7.38945C4.31238 6.88791 4.36652 6.45477 4.47481 6.09001C4.58309 5.71956 4.73127 5.41464 4.91935 5.17527C5.10743 4.9359 5.32685 4.75923 5.57762 4.64524C5.82839 4.53125 6.09626 4.47426 6.38122 4.47426C6.64909 4.47426 6.90556 4.53125 7.15063 4.64524C7.3957 4.75923 7.61227 4.93305 7.80035 5.16673C7.98842 5.4004 8.1366 5.69676 8.24489 6.05582C8.35888 6.41487 8.41587 6.83662 8.41587 7.32106C8.41587 7.8283 8.36173 8.26714 8.25344 8.6376C8.14515 9.00235 7.99982 9.30726 7.81744 9.55233C7.63507 9.79171 7.41849 9.97123 7.16772 10.0909C6.91695 10.2049 6.65194 10.2619 6.37267 10.2619ZM6.35557 9.32151C6.62344 9.32151 6.83431 9.15338 6.9882 8.81713C7.14778 8.47517 7.22757 8.00213 7.22757 7.398C7.22757 6.77678 7.15063 6.29234 6.99674 5.94468C6.84286 5.59132 6.62914 5.41464 6.35557 5.41464C6.08771 5.41464 5.87683 5.58847 5.72295 5.93613C5.56907 6.27809 5.49213 6.75113 5.49213 7.35526C5.49213 7.97648 5.56907 8.46092 5.72295 8.80858C5.87683 9.15053 6.08771 9.32151 6.35557 9.32151ZM11.7099 7.50914H13.2743V8.36403H11.7099V10.0225H10.7866V8.36403H9.23069V7.50914H10.7866V5.85064H11.7099V7.50914Z" fill="#333333" data-color-group="1"/></g><defs><clipPath id="clip0_8614_612"><rect width="17.9997" height="14.8233" fill="white" data-color-group="0"/></clipPath></defs></svg>