<svg width="343.542" height="21" viewBox="0 0 343.542 21" xmlns="http://www.w3.org/2000/svg"><g fill="#333" stroke="#000"><path d="M11.555 11.373h0-3.048c.013.978-.151 1.646-.492 2.006-.34.36-.845.54-1.514.54-.888 0-1.53-.327-1.93-.983-.398-.656-.597-1.601-.597-2.836 0-1.222.186-2.167.56-2.836.372-.668.996-1.003 1.87-1.003.862 0 1.437.228 1.727.685.29.457.382 1.11.28 1.958h3.105c.116-.939.045-1.746-.212-2.42-.257-.676-.63-1.232-1.119-1.67A4.599 4.599 0 008.46 3.85a6.693 6.693 0 00-1.997-.309c-.797 0-1.55.139-2.257.415a5.335 5.335 0 00-1.87 1.235c-.541.546-.969 1.228-1.284 2.044C.736 8.052.58 9.007.58 10.1c0 1.067.154 2.006.463 2.816.308.81.726 1.492 1.254 2.045.527.553 1.138.971 1.832 1.254a5.771 5.771 0 002.2.424c.655 0 1.31-.086 1.967-.26a4.69 4.69 0 001.745-.868c.508-.405.907-.945 1.196-1.62.29-.676.396-1.515.319-2.518zM16.975 14.556c-.411 0-.749-.122-1.012-.366-.264-.245-.396-.56-.396-.946 0-.231.048-.447.145-.646.096-.2.257-.373.482-.52.225-.149.527-.268.907-.358.38-.09.858-.148 1.437-.173v.714c0 .295-.026.581-.077.858-.052.276-.142.52-.27.733a1.562 1.562 0 01-.492.511c-.2.129-.44.193-.724.193zm-1.389 2.064c.438 0 .82-.051 1.148-.154.328-.103.617-.238.868-.405.251-.168.463-.364.637-.589a4.42 4.42 0 00.453-.723l.25.135c-.076.244-.147.485-.211.723a2.447 2.447 0 00-.097.627v.116h3.067V9.637c0-.514-.06-.984-.183-1.408a2.471 2.471 0 00-.656-1.1c-.315-.308-.752-.546-1.312-.713-.559-.168-1.27-.251-2.131-.251-.874 0-1.604.096-2.19.29-.585.192-1.044.45-1.379.77-.334.322-.56.692-.675 1.11a3.157 3.157 0 00-.077 1.302h2.623a1.882 1.882 0 01-.019-.598c.026-.193.093-.363.203-.511.109-.148.263-.267.463-.357.199-.09.447-.135.742-.135.489 0 .849.119 1.08.357.232.238.348.575.348 1.013v.694c-.63.026-1.293.084-1.987.174a6.848 6.848 0 00-1.91.52 3.64 3.64 0 00-1.427 1.11c-.373.482-.56 1.134-.56 1.958 0 .334.065.668.193 1.003.129.334.318.63.57.887.25.257.555.466.916.627.36.16.777.241 1.253.241zM27.218 12.048l.791 3.202h3.222l.79-3.202c.155-.617.28-1.221.377-1.813.096-.592.164-1.112.202-1.562h.251c-.026.218-.045.504-.058.858-.013.354-.02.756-.02 1.206 0 .45.01.938.03 1.466.019.527.054 1.074.106 1.64l.212 2.507h2.97l-.713-9.896h-4.34l-.85 3.858c-.063.27-.118.55-.163.84-.045.289-.087.562-.125.82-.039.256-.071.497-.097.723a4.979 4.979 0 00-.038.53h-.29c0-.129-.013-.305-.038-.53a20.67 20.67 0 00-.097-.724c-.038-.257-.083-.53-.135-.82-.051-.289-.103-.569-.154-.839l-.849-3.858h-4.34l-.714 9.896h2.97l.213-2.508a30.34 30.34 0 00.106-1.64c.02-.527.029-1.015.029-1.465 0-.45-.006-.852-.02-1.206-.012-.354-.032-.64-.057-.858h.25c.04.45.107.97.203 1.562.097.592.222 1.196.376 1.813zM42.226 16.64c1.633 0 2.88-.448 3.742-1.341.862-.894 1.293-2.19 1.293-3.887 0-1.698-.431-2.997-1.293-3.897-.861-.9-2.109-1.35-3.742-1.35-1.659 0-2.92.45-3.78 1.35-.863.9-1.293 2.2-1.293 3.897 0 1.697.43 2.993 1.292 3.887.862.893 2.122 1.34 3.78 1.34zm0-2.045c-.296 0-.553-.052-.772-.155a1.247 1.247 0 01-.54-.51c-.141-.239-.247-.564-.318-.975a9.339 9.339 0 01-.106-1.543c0-.605.035-1.11.106-1.515.07-.405.177-.733.318-.983.142-.251.322-.431.54-.54.219-.11.476-.164.772-.164.283 0 .53.054.743.164.212.109.389.289.53.54.141.25.248.578.318.983.071.406.106.91.106 1.515 0 .617-.035 1.131-.106 1.543-.07.411-.177.736-.318.974a1.261 1.261 0 01-.53.511c-.213.103-.46.155-.743.155zM56.79 13.688c0-.604-.193-1.106-.579-1.505-.386-.398-.906-.656-1.562-.771v-.251c.27-.052.524-.138.762-.26.238-.123.45-.28.636-.473a2.2 2.2 0 00.444-.675 2.25 2.25 0 00.164-.888c0-.463-.116-.864-.347-1.205a2.808 2.808 0 00-.926-.849 4.356 4.356 0 00-1.34-.492 8.107 8.107 0 00-1.612-.154c-.681 0-1.298.07-1.851.212-.554.141-1.013.354-1.38.637-.366.283-.627.64-.78 1.07-.155.431-.175.936-.059 1.514h2.392c-.038-.244-.02-.446.058-.607.077-.16.187-.293.328-.396.141-.102.312-.176.511-.221.2-.045.402-.068.608-.068.373 0 .69.087.955.26.263.174.395.447.395.82 0 .373-.129.64-.386.8-.257.162-.572.242-.945.242h-1.138v2.025h1.157c.386 0 .72.058 1.003.174.283.116.425.373.425.772 0 .385-.145.671-.434.858-.29.187-.64.28-1.052.28-.488 0-.89-.12-1.205-.357-.315-.238-.434-.595-.357-1.07h-2.47c-.115.59-.09 1.105.078 1.542.167.438.437.801.81 1.09.373.29.826.508 1.36.656a6.597 6.597 0 001.765.222c.695 0 1.322-.061 1.881-.183.56-.122 1.038-.306 1.437-.55.399-.244.707-.55.926-.916.219-.367.328-.794.328-1.283zM61.979 14.556c-.411 0-.75-.122-1.013-.366-.263-.245-.395-.56-.395-.946 0-.231.048-.447.144-.646.097-.2.258-.373.483-.52.225-.149.527-.268.906-.358.38-.09.859-.148 1.437-.173v.714c0 .295-.025.581-.077.858-.051.276-.141.52-.27.733a1.562 1.562 0 01-.492.511c-.199.129-.44.193-.723.193zM60.59 16.62c.437 0 .82-.051 1.148-.154.328-.103.617-.238.868-.405.25-.168.463-.364.636-.589a4.42 4.42 0 00.454-.723l.25.135c-.077.244-.147.485-.212.723a2.447 2.447 0 00-.096.627v.116h3.067V9.637c0-.514-.061-.984-.183-1.408a2.471 2.471 0 00-.656-1.1c-.315-.308-.752-.546-1.312-.713-.56-.168-1.27-.251-2.131-.251-.875 0-1.605.096-2.19.29-.585.192-1.045.45-1.379.77-.334.322-.56.692-.675 1.11a3.157 3.157 0 00-.077 1.302h2.623a1.882 1.882 0 01-.02-.598c.026-.193.094-.363.203-.511.11-.148.264-.267.463-.357.2-.09.447-.135.743-.135.489 0 .849.119 1.08.357.232.238.347.575.347 1.013v.694c-.63.026-1.292.084-1.986.174a6.848 6.848 0 00-1.91.52 3.64 3.64 0 00-1.428 1.11c-.372.482-.559 1.134-.559 1.958 0 .334.064.668.193 1.003.129.334.318.63.569.887.25.257.556.466.916.627.36.16.778.241 1.254.241zM68.441 16.35h3.164v-3.704h2.835v3.704h3.164V6.454H74.44v3.685h-2.835V6.454H68.44zM82.561 9.656c0-.424.116-.733.348-.926.231-.192.501-.289.81-.289h1.35v2.334h-1.254c-.321 0-.61-.103-.868-.308a.988.988 0 01-.386-.81zm-3.703 6.694h3.376c.18-.411.343-.804.491-1.177.148-.373.254-.746.319-1.119.09-.462.222-.78.395-.954.174-.174.434-.26.781-.26h.85v3.51h3.163V6.454h-5.266c-.463 0-.91.058-1.341.174a3.67 3.67 0 00-1.148.52 2.618 2.618 0 00-.8.878c-.2.354-.3.769-.3 1.245 0 .295.055.585.165.868.109.283.283.54.52.771.238.232.55.425.936.579.386.154.849.244 1.389.27v.25c-.656.052-1.174.242-1.553.57-.38.328-.66.762-.84 1.302-.076.218-.16.453-.25.704-.09.25-.186.492-.29.723-.102.232-.205.44-.308.627-.103.187-.2.325-.29.415zM91.879 16.35h3.163V8.962h2.392V6.454h-7.947v2.508h2.392zM103.183 16.64c1.633 0 2.88-.448 3.742-1.341.861-.894 1.292-2.19 1.292-3.887 0-1.698-.43-2.997-1.292-3.897-.862-.9-2.11-1.35-3.742-1.35-1.66 0-2.92.45-3.781 1.35-.862.9-1.293 2.2-1.293 3.897 0 1.697.431 2.993 1.293 3.887.861.893 2.122 1.34 3.78 1.34zm0-2.045c-.296 0-.554-.052-.772-.155a1.247 1.247 0 01-.54-.51c-.142-.239-.248-.564-.318-.975a9.339 9.339 0 01-.107-1.543c0-.605.036-1.11.107-1.515.07-.405.176-.733.318-.983.141-.251.321-.431.54-.54.218-.11.476-.164.772-.164.283 0 .53.054.742.164.212.109.39.289.53.54.142.25.248.578.319.983.07.406.106.91.106 1.515 0 .617-.035 1.131-.106 1.543-.07.411-.177.736-.318.974a1.261 1.261 0 01-.53.511c-.213.103-.46.155-.743.155zM118.769 12.453h0-2.662c.064.463.061.833-.01 1.11-.07.276-.183.488-.337.636a1.185 1.185 0 01-.53.3c-.2.05-.396.076-.59.076-.308 0-.578-.045-.81-.135a1.163 1.163 0 01-.568-.492c-.148-.237-.26-.562-.338-.974-.077-.411-.116-.939-.116-1.582 0-.617.036-1.128.106-1.533.071-.405.177-.73.319-.974.141-.245.328-.415.56-.511.23-.097.5-.145.81-.145.23 0 .45.029.655.087.206.058.38.164.52.318a1.4 1.4 0 01.31.627c.064.264.057.601-.02 1.013h2.662c.155-1.286-.125-2.293-.839-3.02-.714-.726-1.81-1.09-3.289-1.09-.784 0-1.495.107-2.131.32a4.19 4.19 0 00-1.62.964c-.444.43-.785.974-1.023 1.63-.238.656-.357 1.427-.357 2.314 0 .9.12 1.679.357 2.335.238.655.579 1.199 1.022 1.63.444.43.984.749 1.62.954.637.206 1.348.31 2.132.31.798 0 1.476-.107 2.035-.32.56-.211 1.01-.504 1.35-.877.342-.373.573-.813.695-1.321a4.804 4.804 0 00.087-1.65zM121.875 16.35h3.163V8.962h2.392V6.454h-7.947v2.508h2.392zM131.848 9.04V6.453h-3.164v9.896h4.263c.849 0 1.553-.119 2.112-.357.56-.238 1.007-.537 1.341-.897.334-.36.572-.755.714-1.186.141-.43.212-.84.212-1.225 0-.502-.068-.974-.203-1.418a2.656 2.656 0 00-.713-1.157c-.341-.328-.791-.589-1.35-.782-.56-.192-1.264-.289-2.113-.289zm.887 4.918h-.887v-2.527h.887c.411 0 .74.1.984.299.244.2.366.524.366.974 0 .45-.122.772-.366.965-.245.193-.573.289-.984.289zM142.052 16.35h4.032l1.37-3.029a37.71 37.71 0 00.993-2.575 30.916 30.916 0 00.627-2.035l.27.039a19.53 19.53 0 00-.135.868c-.052.373-.1.778-.145 1.215-.045.437-.084.881-.116 1.331-.032.45-.048.849-.048 1.196v2.99h3.048V6.454h-4.013l-1.37 3.029c-.18.398-.356.826-.53 1.283-.173.456-.334.897-.482 1.32a30.648 30.648 0 00-.627 2.007l-.25-.039a24.53 24.53 0 00.27-2.093c.038-.443.073-.89.106-1.34.032-.45.048-.855.048-1.215V6.454h-3.048zM153.105 13.9h0v2.43c1.055.142 1.897.145 2.527.01.63-.135 1.113-.463 1.447-.983.334-.521.553-1.264.656-2.228.103-.965.154-2.212.154-3.743v-.713h1.717v7.677h3.164V6.454h-7.91v2.43c0 1.197-.022 2.139-.067 2.827-.045.688-.129 1.205-.25 1.553-.123.347-.3.556-.531.627-.232.07-.534.073-.907.01zM164.699 16.35h4.031l1.37-3.029a37.71 37.71 0 00.993-2.575 30.916 30.916 0 00.627-2.035l.27.039a19.53 19.53 0 00-.135.868c-.051.373-.1.778-.145 1.215-.044.437-.083.881-.115 1.331-.032.45-.048.849-.048 1.196v2.99h3.047V6.454h-4.012l-1.37 3.029c-.18.398-.356.826-.53 1.283-.174.456-.334.897-.482 1.32a30.648 30.648 0 00-.627 2.007l-.251-.039a24.53 24.53 0 00.27-2.093c.039-.443.074-.89.106-1.34.032-.45.048-.855.048-1.215V6.454H164.7zM188.329 11.238v5.112h3.298V3.85h-4.648l-2.16 5.305c-.155.386-.306.81-.454 1.273-.148.463-.283.91-.405 1.34-.122.431-.232.827-.328 1.187-.097.36-.164.63-.203.81l-.27-.038c.039-.193.077-.46.116-.801.038-.34.074-.727.106-1.157a39.67 39.67 0 00.106-2.807V3.85h-3.299v12.5h4.65l2.16-5.305c.154-.386.305-.807.453-1.263.148-.457.283-.904.405-1.34.122-.438.232-.837.328-1.197.097-.36.164-.63.203-.81l.27.038c-.039.193-.077.46-.116.801-.039.34-.074.727-.106 1.157a39.67 39.67 0 00-.106 2.807zM204.494 16.35V3.85h-10.552v12.5h3.299V6.647h3.954v9.703zM211.072 7.149c0 .308-.08.575-.241.8-.161.225-.357.444-.589.656-.231.212-.482.421-.752.627-.27.206-.511.44-.723.704a2.965 2.965 0 00-.492.897c-.116.334-.142.733-.077 1.196h2.488c0-.27.084-.511.25-.723.168-.213.374-.418.618-.618.245-.199.511-.411.8-.636.29-.225.557-.482.801-.772.245-.29.45-.63.617-1.022.168-.392.251-.852.251-1.38 0-.578-.116-1.076-.347-1.494a3.079 3.079 0 00-.916-1.032c-.38-.27-.81-.47-1.293-.598a5.7 5.7 0 00-1.475-.193c-.54 0-1.087.09-1.64.27-.553.18-1.032.45-1.437.81-.405.36-.695.816-.868 1.37-.174.553-.151 1.202.067 1.948h2.875c-.206-.643-.197-1.11.028-1.399.226-.29.55-.434.975-.434.347 0 .614.09.8.27.187.18.28.431.28.753zm-1.563 9.452c.27 0 .524-.045.762-.135.238-.09.447-.219.627-.386s.322-.376.425-.627c.102-.25.154-.537.154-.858 0-.643-.193-1.145-.579-1.505a1.964 1.964 0 00-1.389-.54c-.527 0-.983.18-1.37.54-.385.36-.578.862-.578 1.505 0 .321.052.607.154.858.103.25.245.46.425.627.18.167.389.296.627.386.238.09.485.135.742.135z" stroke-width=".01929"/></g></svg>