<svg width="69.439" height="16" viewBox="0 0 69.439 16" xmlns="http://www.w3.org/2000/svg"><g fill="#333" stroke="#000"><path d="M1.832 3.613l.07.343q-.182.096-.52.096-.552 0-.881-.45-.33-.45-.33-1.34 0-.508.118-.891T.6.779Q.793.57 1.007.474q.214-.097.445-.097.31 0 .444.091l-.09.349q-.172-.075-.36-.075-.337 0-.589.359-.252.358-.252 1.12 0 .77.239 1.119.238.348.613.348.204 0 .375-.075zM2.282 5.049V2.236q0-.08-.021-.809h.37l.02.327h.011q.188-.37.547-.37.348 0 .549.351.2.351.2.983 0 .675-.232 1.01-.233.335-.565.335-.316 0-.456-.295h-.01v1.28zm.413-2.641v.664q0 .128.02.214.097.434.376.434.241 0 .348-.279.107-.278.107-.712 0-.44-.112-.715-.113-.276-.343-.276-.14 0-.252.145-.112.144-.128.326-.016.065-.016.199zM5.159 4.063h-.006q-.37 0-.605-.34-.236-.34-.236-.994 0-.67.252-1.007.252-.338.616-.338.37 0 .603.34.233.34.233.994 0 .691-.255 1.018-.254.327-.602.327zm.01-.327h.006q.166 0 .268-.177.101-.176.13-.385.03-.21.03-.45 0-.241-.03-.448-.029-.206-.133-.385-.105-.18-.276-.18-.129 0-.222.1-.094.098-.137.262-.043.163-.061.321-.02.158-.02.33 0 .182.02.342.018.161.064.322.045.16.136.254.091.094.225.094zM6.476 1.427h.402v1.125h.06l.68-1.125h.455l-.81 1.168q.456.075.633.734.15.536.214.691h-.423q-.053-.129-.187-.605-.075-.284-.207-.424-.13-.139-.372-.139h-.043V4.02h-.402zM8.442 1.427h.375v.89q0 .766-.037 1.242h.01q.086-.246.386-1.012l.434-1.12h.434V4.02h-.38v-.857q0-.621.043-1.264H9.69q-.108.39-.311.9-.322.803-.514 1.221h-.424zM12.824 2.306V3.43q0 .423.027.589h-.37l-.026-.273h-.016q-.177.316-.515.316-.267 0-.442-.204-.174-.203-.174-.535 0-.461.314-.7.313-.238.79-.243V2.3q0-.284-.091-.437-.091-.153-.322-.153-.235 0-.428.134l-.091-.29q.24-.17.605-.17.74 0 .74.92zm-.401.894v-.525q-.713 0-.713.606 0 .235.094.348.094.112.222.112.14 0 .241-.101.102-.102.14-.29.016-.07.016-.15zM13.408 1.427h.402v1.125h.059l.68-1.125h.456l-.81 1.168q.456.075.633.734.15.536.214.691h-.423q-.054-.129-.188-.605-.075-.284-.206-.424-.131-.139-.372-.139h-.043V4.02h-.402zM15.374 1.427h.413v2.25h.739v-2.25h.412V3.7l.22.005-.021 1.007h-.316l-.027-.691h-1.42zM17.576 1.427h.375v.89q0 .766-.038 1.242h.011q.086-.246.386-1.012l.434-1.12h.434V4.02h-.38v-.857q0-.621.042-1.264h-.016q-.107.39-.31.9-.322.803-.515 1.221h-.423zM19.75 1.427h.376v.89q0 .766-.038 1.242h.011q.086-.246.386-1.012l.434-1.12h.434V4.02h-.38v-.857q0-.621.042-1.264h-.016q-.107.39-.31.9-.322.803-.515 1.221h-.423zM23.972 3.64l.059.316q-.166.096-.429.096-.434 0-.69-.34-.258-.34-.258-.972 0-.579.276-.965.276-.385.747-.385.23 0 .365.085l-.08.333q-.14-.07-.295-.07-.295 0-.448.292-.152.292-.152.71 0 .455.163.712.163.257.447.257.161 0 .295-.07zM25.943 4.02V.956h-.01l-.579.332-.08-.321.734-.429h.337V4.02zM27.197.538h1.677v.246L27.749 4.02h-.402L28.45.913v-.01h-1.253zM29.597 4.063h-.006q-.112 0-.19-.086-.077-.086-.077-.225 0-.134.08-.222.08-.089.193-.089.123 0 .198.086.075.086.075.225 0 .145-.072.228-.073.083-.201.083zM31.118 4.063h-.005q-.407 0-.638-.466-.23-.466-.23-1.313 0-.867.241-1.328.241-.46.675-.46.418 0 .637.468.22.469.22 1.31 0 .905-.25 1.347-.248.442-.65.442zm.016-.354h.006q.466 0 .466-1.43 0-.648-.116-1.04-.115-.39-.35-.39-.242 0-.362.383t-.12 1.047q-.006.659.112 1.045.118.385.364.385zM33.17 4.02V.956h-.01l-.58.332-.08-.321.734-.429h.338V4.02zM34.76 4.063h-.005q-.112 0-.19-.086-.077-.086-.077-.225 0-.134.08-.222.08-.089.193-.089.123 0 .198.086.075.086.075.225 0 .145-.072.228-.073.083-.201.083zM37.107 4.02h-1.671v-.268l.289-.396q.23-.322.33-.466.099-.145.267-.429.169-.284.239-.522.07-.239.07-.469 0-.295-.127-.458Q36.38.85 36.137.85q-.225 0-.503.193L35.532.73q.284-.236.68-.236.413 0 .622.268.209.268.209.686 0 .439-.228.884-.228.444-.635.99l-.23.322v.01h1.157zM38.345 4.063h-.006q-.407 0-.637-.466-.23-.466-.23-1.313 0-.867.24-1.328.241-.46.675-.46.418 0 .638.468.22.469.22 1.31 0 .905-.25 1.347-.249.442-.65.442zm.016-.354h.005q.466 0 .466-1.43 0-.648-.115-1.04-.115-.39-.351-.39-.241 0-.362.383-.12.383-.12 1.047-.006.659.112 1.045.118.385.365.385zM41.232 4.02H39.56v-.268l.289-.396q.23-.322.33-.466.098-.145.267-.429.169-.284.238-.522.07-.239.07-.469 0-.295-.126-.458-.126-.163-.367-.163-.225 0-.503.193L39.657.73q.284-.236.68-.236.413 0 .622.268.209.268.209.686 0 .439-.228.884-.228.444-.635.99l-.23.322v.01h1.157zM43.294 4.02h-1.671v-.268l.29-.396q.23-.322.329-.466.099-.145.267-.429.17-.284.239-.522.07-.239.07-.469 0-.295-.126-.458-.126-.163-.367-.163-.225 0-.504.193L41.72.73q.284-.236.68-.236.413 0 .622.268.209.268.209.686 0 .439-.228.884-.227.444-.634.99l-.23.322v.01h1.156zM44.516 2.477h2.357v.295h-2.357zM49.61.27l-.021.36q-.06.026-.23.066-.172.04-.242.062-.375.075-.54.423-.124.284-.162.675h.017q.064-.182.224-.306.161-.123.365-.123.343 0 .549.311.206.31.206.964 0 .67-.222 1.018-.223.348-.619.348-.252 0-.431-.147-.18-.147-.268-.397-.088-.249-.126-.5-.037-.252-.037-.541 0-1.002.246-1.479.225-.466.723-.595.054-.016.273-.061.22-.046.295-.078zm-.246 2.47v-.006q0-.16-.02-.31-.018-.15-.06-.311-.044-.16-.137-.257-.094-.097-.223-.097-.251 0-.37.29-.085.225-.085.551 0 .15.016.311.016.16.059.362.043.2.142.33.1.128.244.128.134 0 .225-.102.09-.102.134-.268.042-.166.059-.313.016-.148.016-.308zM51.731 2.761h-1.2q.006.964.611.964.247 0 .429-.096l.07.3q-.22.123-.574.123-.455 0-.696-.345-.241-.346-.241-.957 0-.626.24-.996.242-.37.633-.37.37 0 .554.33.185.33.185.811 0 .108-.01.236zm-1.194-.305h.809q.005-.364-.11-.557-.115-.193-.276-.193-.188 0-.297.227-.11.228-.126.523zM53.392 3.64l.059.316q-.166.096-.429.096-.434 0-.69-.34-.258-.34-.258-.972 0-.579.276-.965.276-.385.747-.385.23 0 .365.085l-.08.333q-.14-.07-.295-.07-.295 0-.448.292-.152.292-.152.71 0 .455.163.712.163.257.447.257.161 0 .295-.07zM54.972 3.64l.06.316q-.167.096-.43.096-.433 0-.69-.34-.258-.34-.258-.972 0-.579.276-.965.276-.385.748-.385.23 0 .364.085l-.08.333q-.14-.07-.295-.07-.295 0-.447.292-.153.292-.153.71 0 .455.163.712.164.257.448.257.16 0 .294-.07zM55.38 5.049V2.236q0-.08-.022-.809h.37l.021.327h.01q.188-.37.547-.37.348 0 .55.351.2.351.2.983 0 .675-.233 1.01-.233.335-.565.335-.316 0-.455-.295h-.011v1.28zm.412-2.641v.664q0 .128.021.214.097.434.375.434.241 0 .348-.279.108-.278.108-.712 0-.44-.113-.715-.112-.276-.343-.276-.139 0-.252.145-.112.144-.128.326-.016.065-.016.199zM58.256 4.063h-.005q-.37 0-.606-.34-.235-.34-.235-.994 0-.67.251-1.007.252-.338.616-.338.37 0 .603.34.233.34.233.994 0 .691-.254 1.018-.255.327-.603.327zm.01-.327h.006q.166 0 .268-.177.102-.176.131-.385.03-.21.03-.45 0-.241-.03-.448-.03-.206-.134-.385-.104-.18-.276-.18-.128 0-.222.1-.094.098-.137.262-.042.163-.061.321-.019.158-.019.33 0 .182.019.342.019.161.064.322.046.16.137.254.09.094.225.094zM59.515 1.427h.412v.991q0 .461.36.461.181 0 .38-.118V1.427h.412v2.604h-.412v-.97h-.011q-.204.134-.493.134-.305 0-.477-.182-.171-.182-.171-.53zM61.658 1.427h.412v1.098h.766V1.427h.413V4.02h-.413V2.879h-.766V4.02h-.412zM64.561 4.063h-.005q-.37 0-.606-.34-.235-.34-.235-.994 0-.67.251-1.007.252-.338.616-.338.37 0 .603.34.233.34.233.994 0 .691-.254 1.018-.255.327-.603.327zm.01-.327h.006q.166 0 .268-.177.102-.176.131-.385.03-.21.03-.45 0-.241-.03-.448-.03-.206-.134-.385-.104-.18-.276-.18-.128 0-.222.1-.094.098-.136.262-.043.163-.062.321-.019.158-.019.33 0 .182.019.342.019.161.064.322.046.16.137.254.09.094.225.094zM66.125 4.063h-.005q-.113 0-.19-.086-.078-.086-.078-.225 0-.134.08-.222.08-.089.193-.089.123 0 .198.086.075.086.075.225 0 .145-.072.228-.072.083-.2.083z" stroke-width=".00536"/></g><g fill="#333" stroke="#000"><path d="M.321 5.77h1.811v3.61H1.72V6.128H.734V9.38H.32zM3.477 9.423H3.47q-.37 0-.605-.34-.236-.34-.236-.994 0-.67.252-1.007.252-.338.616-.338.37 0 .603.34.233.34.233.994 0 .691-.255 1.018-.254.327-.602.327zm.01-.327h.006q.166 0 .268-.177.101-.176.13-.385.03-.21.03-.45 0-.241-.03-.448-.029-.206-.133-.385-.105-.18-.276-.18-.129 0-.222.1-.094.098-.137.262-.043.163-.062.321-.018.158-.018.33 0 .182.018.342.02.161.065.322.045.16.136.254.091.094.225.094zM5.02 6.787h1.317V9.06l.22.005-.022 1.007H6.22l-.026-.691H4.848l-.027.691h-.316l-.021-1.007.171-.005q.166-.252.247-.552.117-.434.117-.964zm.364.332v.38q0 .638-.113 1.03-.08.305-.203.524h.862V7.12zM6.97 10.409V7.596q0-.08-.022-.809h.37l.02.327h.012q.187-.37.546-.37.348 0 .55.351.2.351.2.983 0 .675-.233 1.01-.233.335-.565.335-.316 0-.456-.295h-.01v1.28zm.412-2.641v.664q0 .128.021.214.097.434.375.434.241 0 .348-.279.108-.278.108-.712 0-.44-.113-.715-.112-.276-.343-.276-.14 0-.252.145-.112.144-.128.326-.016.065-.016.199zM9.846 9.423H9.84q-.37 0-.606-.34Q9 8.743 9 8.089q0-.67.251-1.007.252-.338.616-.338.37 0 .603.34.233.34.233.994 0 .691-.254 1.018-.255.327-.603.327zm.01-.327h.006q.166 0 .268-.177.102-.176.131-.385.03-.21.03-.45 0-.241-.03-.448-.03-.206-.134-.385-.104-.18-.276-.18-.128 0-.222.1-.094.098-.137.262-.042.163-.061.321-.019.158-.019.33 0 .182.019.342.019.161.064.322.046.16.137.254.09.094.225.094zM12.61 5.63l-.021.36q-.06.026-.23.066-.172.04-.242.062-.375.075-.54.423-.124.284-.161.675h.016q.064-.182.225-.306.16-.123.364-.123.343 0 .549.311.206.31.206.964 0 .67-.222 1.018t-.619.348q-.252 0-.431-.147-.18-.147-.268-.397-.088-.249-.126-.5-.037-.252-.037-.541 0-1.002.246-1.479.225-.466.723-.595.054-.016.273-.061.22-.046.295-.078zm-.246 2.47v-.006q0-.16-.02-.31-.018-.15-.06-.311-.044-.16-.137-.257-.094-.097-.223-.097-.251 0-.37.29-.085.225-.085.551 0 .15.016.311.016.16.06.362.042.2.141.33.1.128.244.128.134 0 .225-.102.09-.102.134-.268.043-.166.059-.313.016-.148.016-.308zM13.242 6.787h.413v1.098h.766V6.787h.412V9.38h-.412V8.239h-.766V9.38h-.413zM16.9 8.121h-1.199q.005.964.61.964.247 0 .43-.096l.069.3q-.22.123-.573.123-.456 0-.697-.345-.24-.346-.24-.957 0-.626.24-.996.241-.37.632-.37.37 0 .555.33.185.33.185.811 0 .108-.011.236zm-1.194-.305h.81q.005-.364-.11-.557-.116-.193-.276-.193-.188 0-.298.227-.11.228-.126.523zM18.845 8.121h-1.2q.006.964.611.964.247 0 .429-.096l.07.3q-.22.123-.574.123-.455 0-.696-.345-.241-.346-.241-.957 0-.626.24-.996.242-.37.633-.37.37 0 .554.33.185.33.185.811 0 .108-.01.236zm-1.194-.305h.809q.005-.364-.11-.557-.115-.193-.276-.193-.187 0-.297.227-.11.228-.126.523z" stroke-width=".00536"/></g><g fill="#333" stroke="#000"><path d="M20.142 6.787h.412v1.098h.766V6.787h.413V9.38h-.413V8.239h-.766V9.38h-.412zM23.677 7.666V8.79q0 .423.027.589h-.37l-.026-.273h-.016q-.177.316-.515.316-.267 0-.442-.204-.174-.203-.174-.535 0-.461.314-.7.313-.238.79-.243v-.08q0-.284-.091-.437-.091-.153-.322-.153-.235 0-.428.134l-.091-.29q.24-.17.605-.17.74 0 .74.92zm-.401.894v-.525q-.713 0-.713.606 0 .235.094.348.094.112.222.112.14 0 .241-.101.102-.102.14-.29.016-.07.016-.15zM25.193 6.348l.413-.166v.605h.498v.311h-.498v1.543q0 .428.268.428.101 0 .166-.016l.021.316q-.118.043-.305.043-.273 0-.407-.155-.156-.172-.156-.654V7.098h-.316v-.31h.316zM26.88 9.38h-.412V6.787h.413zm-.213-2.994h-.006q-.102 0-.169-.075-.067-.075-.067-.193 0-.118.07-.193.07-.075.172-.075.112 0 .179.072.067.072.067.196 0 .123-.067.195-.067.073-.18.073zM27.454 9.38V7.457q0-.177-.01-.402-.011-.225-.011-.268h.358l.022.311h.01q.193-.354.595-.354.284 0 .456.22.171.22.171.675V9.38h-.413V7.709q0-.616-.358-.616-.134 0-.244.11-.11.11-.142.313-.022.08-.022.23V9.38zM30.03 5.673v2.32h.011q.124-.263.14-.29l.514-.916h.445l-.686 1.093.75 1.5h-.46l-.563-1.221-.15.24v.981h-.413V5.673zM32.173 9.423h-.005q-.37 0-.605-.34-.236-.34-.236-.994 0-.67.252-1.007.252-.338.616-.338.37 0 .602.34.233.34.233.994 0 .691-.254 1.018-.254.327-.603.327zm.011-.327h.005q.167 0 .268-.177.102-.176.132-.385.029-.21.029-.45 0-.241-.03-.448-.029-.206-.133-.385-.105-.18-.276-.18-.129 0-.223.1-.093.098-.136.262-.043.163-.062.321-.019.158-.019.33 0 .182.02.342.018.161.064.322.045.16.136.254.091.094.225.094zM35.184 9.38h-.413V7.098h-.782V9.38h-.412V7.098h-.327v-.31h.327v-.13q0-.508.236-.76.192-.204.535-.204.15 0 .268.049l-.075.326q-.086-.037-.198-.037-.193 0-.273.155-.08.156-.08.466v.134h.781v-.16q0-.52.23-.777.199-.22.52-.22.193 0 .322.064l-.064.322q-.108-.043-.23-.043-.365 0-.365.648v.166h.471v.311h-.471zM35.966 9.423h-.005q-.113 0-.19-.086-.078-.086-.078-.225 0-.134.08-.222.08-.089.193-.089.123 0 .198.086.075.086.075.225 0 .145-.072.228-.072.083-.2.083zM36.754 9.38V7.457q0-.129-.011-.383-.01-.255-.01-.287h.369l.021.407h.01q.065-.192.218-.321.152-.129.33-.129.058 0 .085.006v.423q-.027-.005-.086-.005-.193 0-.33.155-.136.155-.168.386-.016.107-.016.235V9.38zM39.64 6.787v1.886q0 .171.012.436l.01.271h-.359l-.032-.273h-.01q-.07.118-.217.217-.148.099-.335.099-.632 0-.632-.997V6.787h.412v1.58q0 .338.075.523t.273.185q.161 0 .255-.113.094-.112.115-.236.021-.09.021-.23V6.787zM40.428 9.423h-.005q-.113 0-.19-.086-.078-.086-.078-.225 0-.134.08-.222.08-.089.193-.089.124 0 .199.086.075.086.075.225 0 .145-.073.228-.072.083-.2.083zM43.332 8.298h-.804l-.235 1.082h-.402l.825-3.61h.455l.804 3.61h-.408zm-.745-.332h.686l-.188-.916q-.053-.263-.144-.825h-.016q-.08.503-.15.83zM45.175 9.423h-.006q-.46 0-.731-.48-.27-.479-.27-1.374 0-.878.289-1.36.289-.482.771-.482.46 0 .723.48.263.478.263 1.34 0 .96-.287 1.418-.286.458-.752.458zm.021-.364h.005q.166 0 .284-.132.118-.13.182-.356.065-.225.091-.471.027-.247.027-.536 0-.273-.027-.517-.026-.244-.09-.469-.065-.225-.185-.356-.121-.131-.287-.131-.22 0-.362.236-.142.235-.19.549-.048.313-.048.693 0 .284.03.533.029.25.093.472.064.222.188.353.123.132.289.132zM48.244 7.093l-.552.937.552.932h-.337l-.547-.932.552-.937zm.766 0l-.557.937.557.932h-.337l-.547-.932.552-.937zM49.867 9.38V6.14h-.659v-.37h1.73v.37h-.658v3.24zM50.858 6.787h.375v.89q0 .766-.037 1.242h.01q.086-.246.386-1.012l.434-1.12h.434V9.38h-.38v-.857q0-.621.042-1.264h-.016q-.107.39-.31.9-.322.803-.515 1.221h-.423zM53.033 6.787h.413v1.098h.766V6.787h.412V9.38h-.412V8.239h-.766V9.38h-.413zM55.203 6.787h.407v.916q.037 0 .123-.008t.123-.008q.429 0 .71.212.281.211.281.624 0 .402-.29.632-.304.252-.824.252-.263 0-.53-.043zm.407 1.232v1.056q.128.01.182.01.273 0 .453-.139.179-.14.179-.407 0-.268-.182-.4-.182-.13-.46-.13-.065 0-.172.01zM57.281 6.787h.402v1.125h.059l.68-1.125h.455l-.808 1.168q.455.075.632.734.15.536.214.691h-.423q-.054-.129-.188-.605-.075-.284-.206-.424-.131-.139-.372-.139h-.043V9.38h-.402zM59.98 9.423h-.004q-.37 0-.606-.34-.235-.34-.235-.994 0-.67.251-1.007.252-.338.616-.338.37 0 .603.34.233.34.233.994 0 .691-.254 1.018-.255.327-.603.327zm.012-.327h.005q.166 0 .268-.177.102-.176.131-.385.03-.21.03-.45 0-.241-.03-.448-.03-.206-.134-.385-.104-.18-.276-.18-.128 0-.222.1-.094.098-.137.262-.042.163-.061.321-.019.158-.019.33 0 .182.019.342.019.161.064.322.046.16.137.254.09.094.225.094zM62.097 5.716h.375v1.028q.428.054.675.391.246.338.246.949 0 .616-.24.953-.242.338-.681.386v.986h-.375v-.986q-.429-.048-.67-.383-.24-.335-.24-.951 0-.605.24-.943.241-.337.67-.396zm.005 3.423v-2.11q-.284.069-.407.369t-.123.686q0 .385.123.688.123.303.407.367zm.37-2.11v2.11q.536-.129.536-1.055 0-.241-.04-.442t-.167-.38q-.126-.18-.33-.234zM64.652 5.716h.375v1.028q.429.054.675.391.246.338.246.949 0 .616-.24.953-.242.338-.68.386v.986h-.376v-.986q-.428-.048-.67-.383-.24-.335-.24-.951 0-.605.24-.943.242-.337.67-.396zm.005 3.423v-2.11q-.283.069-.407.369-.123.3-.123.686 0 .385.123.688.124.303.407.367zm.37-2.11v2.11q.536-.129.536-1.055 0-.241-.04-.442t-.166-.38q-.126-.18-.33-.234z" stroke-width=".00536"/></g><g fill="#333" stroke="#000"><path d="M.327 11.13h1.521v.358H.734v1.082q.128-.021.273-.021.477 0 .771.284.306.29.306.787 0 .488-.263.783-.31.358-.959.358-.337 0-.535-.037zm.407 1.778v1.505q.102.016.209.016.348 0 .552-.246.16-.22.16-.536 0-.321-.187-.535-.204-.22-.53-.22-.092 0-.204.016zM3.894 13.026v1.125q0 .423.027.589h-.37l-.026-.273h-.016q-.177.316-.515.316-.267 0-.441-.204-.175-.203-.175-.535 0-.461.314-.7.313-.238.79-.243v-.08q0-.284-.091-.437-.091-.153-.322-.153-.235 0-.428.134l-.091-.29q.24-.17.605-.17.74 0 .74.92zm-.401.894v-.525q-.713 0-.713.606 0 .235.094.348.094.112.222.112.14 0 .241-.101.102-.102.14-.29.016-.07.016-.15zM4.478 12.147h.413v1.098h.766v-1.098h.412v2.593h-.412v-1.141H4.89v1.141h-.413zM6.648 12.147h.402v1.125h.059l.68-1.125h.455l-.809 1.168q.456.075.632.734.15.536.215.691h-.423q-.054-.129-.188-.605-.075-.284-.206-.424-.131-.139-.372-.139H7.05v1.168h-.402zM8.994 13.39l-.557-.937h.332l.552.937-.541.932h-.343zm.76 0l-.55-.937h.331l.552.937-.546.932h-.338zM10.596 15.377l-.284.038q.214-.6.31-1.248l.467-.054q-.097.338-.241.715-.145.378-.252.55zM12.498 12.147h1.371v2.593h-.413v-2.255h-.567v.825q0 .621-.086.948-.086.327-.348.455-.129.064-.279.064l-.07-.326q.13-.022.215-.118.177-.177.177-.997zM14.442 12.147h.375v.89q0 .766-.037 1.242h.01q.086-.246.386-1.012l.434-1.12h.434v2.593h-.38v-.857q0-.621.042-1.264h-.016q-.107.39-.31.9-.322.803-.515 1.221h-.423zM16.617 12.147h.413v2.25h.739v-2.25h.412v2.272l.22.005-.022 1.007h-.316l-.026-.691h-1.42zM20.281 13.481h-1.2q.006.964.61.964.247 0 .43-.096l.07.3q-.22.123-.574.123-.455 0-.697-.345-.24-.346-.24-.957 0-.626.24-.996.242-.37.633-.37.37 0 .554.33.185.33.185.811 0 .108-.01.236zm-1.194-.305h.808q.006-.364-.11-.557-.115-.193-.275-.193-.188 0-.298.227-.11.228-.125.523zM20.736 12.147h.413v1.098h.766v-1.098h.412v2.593h-.412v-1.141h-.766v1.141h-.413zM23.093 13.545l.006-.3h.14q.208 0 .369-.123.16-.123.16-.327 0-.187-.115-.286-.115-.1-.297-.1-.22 0-.46.135l-.081-.263q.268-.177.643-.177.321 0 .522.172.2.171.2.471 0 .23-.146.391-.148.161-.383.225v.006q.278.042.452.214.174.171.174.44 0 .363-.28.562-.282.198-.673.198-.348 0-.61-.145l.09-.294q.247.128.488.128.251 0 .41-.131.158-.131.158-.319 0-.246-.183-.361-.182-.116-.434-.116zM24.738 12.147h.375v.89q0 .766-.037 1.242h.01q.086-.246.386-1.012l.434-1.12h.434v2.593h-.38v-.857q0-.621.042-1.264h-.016q-.107.39-.31.9-.322.803-.515 1.221h-.423zM28.37 12.163v2.577h-.402v-1.109h-.123q-.246 0-.38.123-.06.054-.107.15-.049.097-.07.177-.022.08-.056.236-.035.155-.057.23-.037.123-.07.193h-.433q.08-.134.118-.268.016-.053.05-.198.035-.145.06-.23.024-.086.072-.196.048-.11.112-.18.124-.133.322-.17v-.012q-.247-.048-.41-.211-.163-.163-.163-.426 0-.337.262-.541.241-.193.718-.193.343 0 .557.048zm-.402 1.19v-.933q-.07-.021-.177-.021-.235 0-.39.115-.156.115-.156.346 0 .23.169.361.169.132.394.132zM32.484 11.237h.005q.3 0 .461.222.16.222.16.656 0 .455-.184.672-.185.217-.453.217-.289 0-.466-.227-.176-.228-.176-.657 0-.428.184-.656.185-.227.47-.227zm-.016.24h-.005q-.156 0-.23.202-.076.2-.076.441 0 .252.078.448.078.195.233.195.316 0 .316-.643 0-.642-.316-.642zm.557 2.004h-1.109v-.252h1.11zm-2.844 1.259h-.365v-3.573h.38l.627 1.682q.29.766.44 1.248h.005q-.043-.91-.043-1.639v-1.291h.36v3.573h-.387l-.642-1.72q-.193-.498-.408-1.216h-.005q.038.675.038 1.693zM35.955 14.74h-1.671v-.268l.29-.396q.23-.322.329-.466.099-.145.268-.429.168-.284.238-.522.07-.239.07-.469 0-.295-.126-.458-.126-.163-.367-.163-.225 0-.504.193l-.102-.311q.284-.236.68-.236.413 0 .622.268.21.268.21.686 0 .439-.229.884-.227.444-.634.99l-.23.322v.01h1.156zM37.884 11.215v.348q-.102 0-.247.033-.723.182-.894 1.258h.016q.225-.332.59-.332.331 0 .54.29.21.289.21.782 0 .514-.229.851-.227.338-.629.338-.445 0-.68-.397-.236-.396-.236-1.023 0-.953.45-1.57.15-.214.378-.356.227-.141.468-.19.086-.016.263-.032zm-.643 3.246h.005q.188 0 .314-.206t.126-.63q0-.385-.126-.586-.126-.2-.34-.2-.311 0-.456.374-.027.08-.027.21.006.513.142.776.137.262.362.262zM38.436 11.258h1.676v.246l-1.125 3.236h-.401l1.103-3.107v-.01h-1.253zM40.45 14.622l.09-.327q.242.145.504.145.274 0 .437-.187.163-.188.163-.504 0-.338-.192-.53-.193-.193-.51-.193h-.096v-.31h.08q.22 0 .424-.164.203-.164.203-.458 0-.257-.126-.397-.125-.139-.334-.139-.204 0-.434.166l-.086-.31q.241-.199.621-.199.36 0 .566.225.206.225.206.573 0 .268-.134.488-.134.22-.386.332v.01q.263.07.437.3.174.231.174.617 0 .439-.268.73-.268.293-.729.293-.38 0-.61-.16zM42.898 14.783h-.005q-.113 0-.19-.086-.078-.086-.078-.225 0-.134.08-.222.08-.089.193-.089.123 0 .198.086.075.086.075.225 0 .145-.072.228-.073.083-.201.083z" stroke-width=".00536"/></g></svg>