<svg width="100%" height="100%" viewBox="0 0 122 31" fill="none" xmlns="http://www.w3.org/2000/svg" preserveAspectRatio="none"><path d="M8.81372 11.9067V3.74296H13.6245V0.772203H0.5V3.74296H5.31075V11.9067H8.81372Z" fill="#333333" data-color-group="0"/><path d="M18.4126 7.25173V0.772203H15.0264V11.9067H18.0156L23.8539 5.42717V11.9067H27.2401V0.772203H24.2509L18.4126 7.25173Z" fill="#333333" data-color-group="0"/><path d="M38.6321 7.76635V11.9067H42.0183V0.772203H38.6321V4.84237H33.1908V0.772203H29.8046V11.9067H33.1908V7.76635H38.6321Z" fill="#333333" data-color-group="0"/><path d="M51.4486 11.9067C52.2192 11.9067 52.9198 11.8365 53.5737 11.6494C55.3252 11.1582 56.4695 9.73125 56.4695 7.78974C56.4695 5.94179 55.4887 4.65524 53.924 4.07044C53.1767 3.78974 52.2893 3.76635 51.4486 3.76635H47.9689V0.772203H44.5827V11.9067H51.4486ZM50.8647 6.38623C51.3318 6.38623 51.7755 6.38623 52.1725 6.52658C52.733 6.71371 53.0599 7.18155 53.0599 7.74295C53.0599 8.32775 52.733 8.81897 52.1959 9.05289C51.8222 9.21663 51.4486 9.21664 50.8647 9.21664H47.9689V6.38623H50.8647Z" fill="#333333" data-color-group="0"/><path d="M62.5409 7.69617L66.581 11.9067H71.0882L65.4601 6.10553L70.878 0.772203H66.6277L62.5409 4.95933H61.6068V0.772203H58.2206V11.9067H61.6068V7.69617H62.5409Z" fill="#333333" data-color-group="0"/><path d="M78.0558 0.46811C73.502 0.46811 70.7697 3.04121 70.7697 6.36284C70.7697 9.68447 73.502 12.2576 78.0558 12.2576C82.5863 12.2576 85.3187 9.68447 85.3187 6.36284C85.3187 3.04121 82.5863 0.46811 78.0558 0.46811ZM78.0558 9.54412C75.7906 9.54412 74.3427 8.1874 74.3427 6.36284C74.3427 4.53828 75.7906 3.20495 78.0558 3.20495C80.2977 3.20495 81.769 4.53828 81.769 6.36284C81.769 8.1874 80.2977 9.54412 78.0558 9.54412Z" fill="#333333" data-color-group="0"/><path d="M96.5959 0.140625H93.2097V1.26343C88.9594 1.357 86.4139 3.15816 86.4139 6.33945C86.4139 9.52073 88.9594 11.1815 93.2097 11.2751V12.3979H96.5959V11.2751C100.869 11.1815 103.415 9.52073 103.415 6.33945C103.415 3.15816 100.869 1.357 96.5959 1.26343V0.140625ZM93.2097 8.88915C90.8743 8.79558 89.8468 7.83652 89.8468 6.33945C89.8468 4.84237 90.8743 3.76635 93.2097 3.67278V8.88915ZM96.5959 3.67278C98.9545 3.76635 99.9587 4.84237 99.9587 6.33945C99.9587 7.83652 98.9545 8.79558 96.5959 8.88915V3.67278Z" fill="#333333" data-color-group="0"/><path d="M114.681 0.140625H111.295V1.26343C107.044 1.357 104.499 3.15816 104.499 6.33945C104.499 9.52073 107.044 11.1815 111.295 11.2751V12.3979H114.681V11.2751C118.955 11.1815 121.5 9.52073 121.5 6.33945C121.5 3.15816 118.955 1.357 114.681 1.26343V0.140625ZM111.295 8.88915C108.959 8.79558 107.932 7.83652 107.932 6.33945C107.932 4.84237 108.959 3.76635 111.295 3.67278V8.88915ZM114.681 3.67278C117.04 3.76635 118.044 4.84237 118.044 6.33945C118.044 7.83652 117.04 8.79558 114.681 8.88915V3.67278Z" fill="#333333" data-color-group="0"/><path d="M6.32682 23.3687H2.90709V22.3063H8.78371V20.4802H0.5V28.3821H6.11101C6.89124 28.3821 7.47226 28.3157 7.90388 28.1497C8.81691 27.8011 9.43113 26.9544 9.43113 25.8422C9.43113 24.7134 8.85011 23.9331 7.93708 23.5845C7.50546 23.4185 6.94104 23.3687 6.32682 23.3687ZM6.19401 26.39H2.90709V25.1284H6.19401C6.45962 25.1284 6.67543 25.145 6.84144 25.228C7.04064 25.3276 7.14025 25.5102 7.14025 25.7426C7.14025 25.975 7.02404 26.224 6.74183 26.3236C6.60903 26.3734 6.42642 26.39 6.19401 26.39Z" fill="#333333" data-color-group="0"/><path d="M17.3678 20.4802L13.2176 25.0786V20.4802H10.8105V28.3821H12.9354L17.0856 23.7837V28.3821H19.4927V20.4802H17.3678Z" fill="#333333" data-color-group="0"/><path d="M25.2666 20.198C24.3203 20.198 23.4571 20.281 22.6271 20.5632C21.5812 20.9118 20.9006 21.6755 20.7678 22.7047H23.3575C23.5235 22.3395 23.7393 22.1569 24.0547 22.0407C24.3369 21.9245 24.6689 21.8747 25.1172 21.8747C25.6152 21.8747 26.0136 21.9245 26.329 22.0573C26.7606 22.2233 26.91 22.5221 26.91 22.7877C26.91 23.1031 26.7606 23.3355 26.412 23.4517C26.1132 23.5347 25.831 23.5347 25.3496 23.5347H23.3907V25.3276H25.499C26.1962 25.3276 26.4286 25.3442 26.6444 25.4272C26.91 25.5102 27.1092 25.726 27.1092 26.058C27.1092 26.3734 26.9598 26.6556 26.5946 26.7884C26.3622 26.8714 26.1132 26.9876 25.2168 26.9876C24.6025 26.9876 24.1875 26.888 23.9385 26.7718C23.6895 26.6556 23.4405 26.4232 23.3575 26.0912H20.7014C20.8342 27.2366 21.5148 27.9339 22.4777 28.2825C23.1251 28.5149 24.0879 28.6145 25.2002 28.6145C26.578 28.6145 27.2752 28.4817 27.8397 28.3157C28.9685 27.9837 29.6325 27.1702 29.6325 26.141C29.6325 25.2446 29.0515 24.5308 28.0389 24.2817C28.8689 23.9331 29.4167 23.3355 29.4167 22.4225C29.4167 21.5426 28.7859 20.8122 27.6073 20.4802C27.0926 20.3308 26.329 20.198 25.2666 20.198Z" fill="#333333" data-color-group="0"/><path d="M33.4983 25.4438H37.3662V28.3821H39.7733V20.4802H37.3662V23.3687H33.4983V20.4802H31.0912V28.3821H33.4983V25.4438Z" fill="#333333" data-color-group="0"/><path d="M49.631 22.2897V20.4802H41.5963V28.3821H49.631V26.5726H44.0033V25.1782H49.2989V23.6011H44.0033V22.2897H49.631Z" fill="#333333" data-color-group="0"/><path d="M57.9036 23.6177H60.4767C60.1281 21.6588 58.3851 20.2644 55.6294 20.2644C52.4752 20.2312 50.533 22.0573 50.533 24.4477C50.533 26.805 52.4752 28.6311 55.6294 28.6311C58.4183 28.6145 60.0949 27.2366 60.4601 25.2612H57.9202C57.6712 26.1576 56.7914 26.7718 55.563 26.7718C54.0191 26.7718 53.0729 25.7426 53.0729 24.4477C53.0729 23.1529 54.0191 22.1403 55.563 22.1403C56.7914 22.1403 57.6546 22.7379 57.9036 23.6177Z" fill="#333333" data-color-group="0"/></svg>