<svg width="154.827" height="19" viewBox="0 0 154.827 19" xmlns="http://www.w3.org/2000/svg"><g fill="#333" stroke="#000"><path d="M2.703 6.12l.102.505q-.268.142-.766.142-.814 0-1.3-.663Q.253 5.44.253 4.128q0-.75.174-1.316.174-.565.458-.873.285-.308.6-.45.317-.143.657-.143.458 0 .655.135l-.134.513q-.253-.11-.53-.11-.497 0-.869.53-.371.529-.371 1.65 0 1.139.352 1.652.351.514.904.514.3 0 .554-.11zM3.366 8.237V4.088q0-.118-.031-1.193h.545l.032.482h.016q.276-.545.806-.545.513 0 .81.518.296.517.296 1.45 0 .995-.344 1.49-.344.493-.834.493-.466 0-.671-.434h-.016v1.888zm.609-3.896v.98q0 .19.032.316.142.64.553.64.355 0 .513-.41.158-.411.158-1.051 0-.648-.166-1.055-.165-.407-.505-.407-.206 0-.372.213t-.19.482q-.023.095-.023.292zM7.61 6.783h-.008q-.545 0-.893-.502-.348-.501-.348-1.465 0-.988.372-1.486.371-.498.909-.498.545 0 .889.502.343.502.343 1.466 0 1.02-.375 1.501-.375.482-.889.482zm.016-.482h.008q.245 0 .395-.26.15-.261.193-.57.044-.308.044-.663 0-.356-.044-.66-.043-.304-.197-.57-.154-.264-.407-.264-.19 0-.328.146t-.202.387q-.063.241-.09.475-.028.233-.028.486 0 .268.028.505.027.237.094.475.068.237.202.375t.332.138zM9.554 2.895h.593v1.66h.087l1.003-1.66h.672l-1.193 1.723q.671.11.932 1.083.221.79.316 1.019h-.624q-.079-.19-.277-.893-.11-.419-.304-.624-.193-.206-.549-.206h-.063V6.72h-.593zM12.454 2.895h.553v1.312q0 1.13-.055 1.833h.016q.126-.363.569-1.493l.64-1.652h.64V6.72h-.561V5.456q0-.917.063-1.865h-.023q-.159.577-.459 1.327-.474 1.186-.758 1.802h-.625zM18.918 4.191v1.66q0 .624.04.869h-.545l-.04-.403h-.024q-.26.466-.758.466-.395 0-.652-.3t-.257-.79q0-.68.462-1.032.463-.351 1.166-.36v-.118q0-.419-.134-.644-.135-.225-.475-.225-.347 0-.632.198l-.134-.427q.356-.253.893-.253 1.09 0 1.09 1.36zm-.592 1.32v-.775q-1.051 0-1.051.893 0 .348.138.514.138.166.328.166.205 0 .356-.15.15-.15.205-.427.024-.103.024-.221zM19.78 2.895h.592v1.66h.087l1.004-1.66h.672L20.94 4.618q.672.11.933 1.083.221.79.316 1.019h-.624q-.08-.19-.277-.893-.11-.419-.304-.624-.194-.206-.55-.206h-.063V6.72h-.592zM22.68 2.895h.608v3.32h1.091v-3.32h.609v3.35l.324.009-.032 1.485h-.466l-.04-1.019H22.68zM25.928 2.895h.553v1.312q0 1.13-.055 1.833h.016q.126-.363.569-1.493l.64-1.652h.64V6.72h-.561V5.456q0-.917.063-1.865h-.024q-.158.577-.458 1.327-.474 1.186-.759 1.802h-.624zM29.136 2.895h.553v1.312q0 1.13-.055 1.833h.016q.126-.363.569-1.493l.64-1.652h.64V6.72h-.561V5.456q0-.917.063-1.865h-.023q-.158.577-.459 1.327-.474 1.186-.758 1.802h-.625zM35.363 6.159l.087.466q-.245.142-.632.142-.64 0-1.02-.501-.379-.502-.379-1.435 0-.853.407-1.422.407-.57 1.103-.57.34 0 .537.127l-.118.49q-.206-.102-.435-.102-.435 0-.66.43-.225.43-.225 1.047 0 .672.24 1.051.242.38.66.38.238 0 .435-.103zM38.272 6.72V2.2h-.016l-.854.49-.118-.474 1.082-.633h.498V6.72zM40.12 1.583h2.474v.364l-1.66 4.773h-.592l1.628-4.583V2.12h-1.85zM43.661 6.783h-.008q-.166 0-.28-.126-.115-.127-.115-.332 0-.198.118-.328.119-.13.285-.13.182 0 .292.126.111.126.111.332 0 .213-.107.336-.106.122-.296.122zM45.905 6.783h-.008q-.6 0-.94-.687-.34-.688-.34-1.936 0-1.28.356-1.96.355-.68.995-.68.617 0 .94.692.325.691.325 1.932 0 1.335-.368 1.987-.367.652-.96.652zm.024-.521h.008q.687 0 .687-2.11 0-.956-.17-1.533t-.517-.577q-.356 0-.534.565-.177.565-.177 1.545-.008.972.166 1.54.173.57.537.57zM48.932 6.72V2.2h-.016l-.853.49-.119-.474 1.083-.633h.498V6.72zM51.279 6.783h-.008q-.166 0-.28-.126-.115-.127-.115-.332 0-.198.118-.328.119-.13.285-.13.182 0 .292.126.111.126.111.332 0 .213-.107.336-.106.122-.296.122zM54.74 6.72h-2.465v-.395l.426-.585q.34-.474.486-.687.147-.214.395-.633.25-.418.352-.77.103-.352.103-.692 0-.434-.186-.675-.186-.241-.541-.241-.332 0-.743.284l-.15-.458q.419-.348 1.003-.348.609 0 .917.395.308.395.308 1.012 0 .648-.335 1.304-.336.656-.937 1.462l-.34.474v.016h1.707zM56.566 6.783h-.008q-.6 0-.94-.687-.34-.688-.34-1.936 0-1.28.355-1.96.356-.68.996-.68.616 0 .94.692.324.691.324 1.932 0 1.335-.367 1.987-.368.652-.96.652zm.023-.521h.008q.688 0 .688-2.11 0-.956-.17-1.533t-.518-.577q-.355 0-.533.565-.178.565-.178 1.545-.008.972.166 1.54.174.57.537.57zM60.825 6.72H58.36v-.395l.426-.585q.34-.474.486-.687.146-.214.395-.633.25-.418.352-.77.103-.352.103-.692 0-.434-.186-.675-.186-.241-.541-.241-.332 0-.743.284l-.15-.458q.419-.348 1.003-.348.609 0 .917.395.308.395.308 1.012 0 .648-.336 1.304-.335.656-.936 1.462l-.34.474v.016h1.707zM63.868 6.72h-2.466v-.395l.427-.585q.34-.474.486-.687.146-.214.395-.633.249-.418.351-.77.103-.352.103-.692 0-.434-.186-.675-.185-.241-.54-.241-.333 0-.744.284l-.15-.458q.419-.348 1.004-.348.608 0 .916.395.309.395.309 1.012 0 .648-.336 1.304T62.5 5.693l-.34.474v.016h1.708zM65.67 4.444h3.476v.435H65.67zM73.184 1.188l-.031.53q-.087.04-.34.099-.253.059-.356.09-.553.111-.798.625-.181.419-.237.995h.024q.095-.268.332-.45.237-.182.537-.182.506 0 .81.459.304.458.304 1.422 0 .988-.327 1.501-.328.514-.913.514-.372 0-.636-.217-.265-.218-.395-.585t-.186-.739q-.056-.371-.056-.798 0-1.478.364-2.181.332-.688 1.067-.877.079-.024.403-.091t.434-.115zm-.363 3.643v-.008q0-.237-.028-.458-.027-.221-.09-.458-.064-.237-.202-.38-.138-.142-.328-.142-.371 0-.545.427-.127.332-.127.814 0 .221.024.458.024.237.087.534.063.296.21.486.146.19.359.19.197 0 .332-.15.134-.151.197-.396.064-.245.087-.462.024-.218.024-.455zM76.314 4.863h-1.77q.008 1.422.9 1.422.364 0 .633-.142l.103.443q-.324.181-.846.181-.672 0-1.027-.51-.356-.509-.356-1.41 0-.924.356-1.47.355-.545.932-.545.545 0 .818.486.273.486.273 1.197 0 .158-.016.348zm-1.762-.45h1.193q.008-.538-.162-.822-.17-.285-.407-.285-.277 0-.439.336-.162.336-.185.77zM78.764 6.159l.087.466q-.245.142-.633.142-.64 0-1.02-.501-.378-.502-.378-1.435 0-.853.407-1.422.407-.57 1.102-.57.34 0 .537.127l-.118.49q-.206-.102-.435-.102-.434 0-.66.43-.225.43-.225 1.047 0 .672.241 1.051.241.38.66.38.237 0 .435-.103zM81.095 6.159l.087.466q-.245.142-.632.142-.64 0-1.02-.501-.38-.502-.38-1.435 0-.853.408-1.422.407-.57 1.102-.57.34 0 .538.127l-.119.49q-.205-.102-.435-.102-.434 0-.66.43-.225.43-.225 1.047 0 .672.241 1.051.241.38.66.38.237 0 .435-.103zM81.695 8.237V4.088q0-.118-.031-1.193h.545l.032.482h.015q.277-.545.807-.545.513 0 .81.518.296.517.296 1.45 0 .995-.344 1.49-.344.493-.834.493-.466 0-.671-.434h-.016v1.888zm.609-3.896v.98q0 .19.032.316.142.64.553.64.355 0 .513-.41.158-.411.158-1.051 0-.648-.166-1.055-.166-.407-.505-.407-.206 0-.372.213t-.19.482q-.023.095-.023.292zM85.939 6.783h-.008q-.545 0-.893-.502-.348-.501-.348-1.465 0-.988.372-1.486.371-.498.909-.498.545 0 .889.502.343.502.343 1.466 0 1.02-.375 1.501-.375.482-.889.482zm.016-.482h.008q.245 0 .395-.26.15-.261.193-.57.044-.308.044-.663 0-.356-.044-.66-.043-.304-.197-.57-.154-.264-.407-.264-.19 0-.328.146t-.202.387q-.063.241-.09.475-.028.233-.028.486 0 .268.028.505.027.237.094.475.068.237.202.375t.332.138zM87.796 2.895h.609v1.462q0 .68.529.68.269 0 .561-.174V2.895h.609v3.84h-.609v-1.43h-.016q-.3.198-.727.198-.45 0-.703-.269-.253-.268-.253-.782zM90.957 2.895h.609v1.62h1.13v-1.62h.608V6.72h-.608V5.037h-1.13V6.72h-.609zM95.24 6.783h-.008q-.545 0-.893-.502-.347-.501-.347-1.465 0-.988.371-1.486t.909-.498q.545 0 .889.502t.344 1.466q0 1.02-.376 1.501-.375.482-.889.482zm.016-.482h.008q.245 0 .395-.26.15-.261.194-.57.043-.308.043-.663 0-.356-.043-.66-.044-.304-.198-.57-.154-.264-.407-.264-.19 0-.328.146t-.201.387q-.064.241-.091.475-.028.233-.028.486 0 .268.028.505.027.237.095.475.067.237.201.375t.332.138zM97.548 6.783h-.008q-.166 0-.28-.126-.115-.127-.115-.332 0-.198.118-.328.119-.13.285-.13.181 0 .292.126.11.126.11.332 0 .213-.106.336-.107.122-.296.122zM100.005 1.394h2.671V6.72h-.608V1.923h-1.454V6.72h-.609zM104.66 6.783h-.008q-.545 0-.893-.502-.348-.501-.348-1.465 0-.988.372-1.486.371-.498.909-.498.545 0 .889.502.343.502.343 1.466 0 1.02-.375 1.501-.375.482-.89.482zm.016-.482h.008q.245 0 .395-.26.15-.261.193-.57.044-.308.044-.663 0-.356-.044-.66-.043-.304-.197-.57-.154-.264-.407-.264-.19 0-.328.146t-.202.387q-.063.241-.09.475-.028.233-.028.486 0 .268.027.505.028.237.095.475.067.237.202.375.134.138.332.138zM106.936 2.895h1.944v3.35l.324.009-.032 1.485h-.466l-.04-1.019h-1.983l-.04 1.02h-.466l-.031-1.486.252-.008q.245-.372.364-.814.174-.64.174-1.423zm.537.49v.561q0 .94-.166 1.518-.118.45-.3.774h1.272V3.385zM109.812 8.237V4.088q0-.118-.031-1.193h.545l.032.482h.015q.277-.545.806-.545.514 0 .81.518.297.517.297 1.45 0 .995-.344 1.49-.344.493-.834.493-.466 0-.671-.434h-.016v1.888zm.609-3.896v.98q0 .19.031.316.143.64.554.64.355 0 .513-.41.158-.411.158-1.051 0-.648-.166-1.055-.166-.407-.505-.407-.206 0-.372.213t-.19.482q-.023.095-.023.292zM114.056 6.783h-.008q-.545 0-.893-.502-.348-.501-.348-1.465 0-.988.372-1.486.371-.498.909-.498.545 0 .889.502.343.502.343 1.466 0 1.02-.375 1.501-.375.482-.89.482zm.016-.482h.008q.245 0 .395-.26.15-.261.193-.57.044-.308.044-.663 0-.356-.044-.66-.043-.304-.197-.57-.154-.264-.407-.264-.19 0-.328.146t-.202.387q-.063.241-.09.475-.028.233-.028.486 0 .268.027.505.028.237.095.475.067.237.202.375.134.138.332.138zM118.134 1.188l-.032.53q-.087.04-.34.099-.253.059-.355.09-.554.111-.799.625-.181.419-.237.995h.024q.095-.268.332-.45.237-.182.537-.182.506 0 .81.459.305.458.305 1.422 0 .988-.328 1.501-.328.514-.913.514-.372 0-.636-.217-.265-.218-.395-.585t-.186-.739q-.055-.371-.055-.798 0-1.478.363-2.181.332-.688 1.067-.877.079-.024.403-.091t.435-.115zm-.364 3.643v-.008q0-.237-.028-.458-.027-.221-.09-.458-.064-.237-.202-.38-.138-.142-.328-.142-.371 0-.545.427-.127.332-.127.814 0 .221.024.458.024.237.087.534.063.296.21.486.146.19.359.19.198 0 .332-.15.134-.151.197-.396.064-.245.087-.462.024-.218.024-.455zM119.066 2.895h.609v1.62h1.13v-1.62h.608V6.72h-.608V5.037h-1.13V6.72h-.609zM124.463 4.863h-1.77q.008 1.422.901 1.422.364 0 .632-.142l.103.443q-.324.181-.845.181-.672 0-1.028-.51-.355-.509-.355-1.41 0-.924.355-1.47.356-.545.933-.545.545 0 .818.486.272.486.272 1.197 0 .158-.016.348zm-1.762-.45h1.193q.008-.538-.162-.822-.17-.285-.407-.285-.276 0-.438.336-.162.336-.186.77zM127.332 4.863h-1.77q.008 1.422.9 1.422.364 0 .633-.142l.103.443q-.324.181-.846.181-.672 0-1.027-.51-.356-.509-.356-1.41 0-.924.356-1.47.355-.545.932-.545.546 0 .818.486.273.486.273 1.197 0 .158-.016.348zm-1.762-.45h1.193q.008-.538-.162-.822-.17-.285-.407-.285-.277 0-.439.336-.162.336-.185.77z" stroke-width=".0079"/></g><g fill="#333" stroke="#000"><path d="M.427 12.385h.608v1.62h1.13v-1.62h.609v3.825h-.609v-1.683h-1.13v1.683H.427zM5.642 13.681v1.66q0 .624.04.869h-.545l-.04-.403h-.024q-.26.466-.758.466-.395 0-.652-.3t-.257-.79q0-.68.462-1.032.463-.351 1.166-.36v-.118q0-.419-.134-.644-.135-.225-.475-.225-.347 0-.632.198l-.134-.427q.355-.253.893-.253 1.09 0 1.09 1.36zm-.592 1.32v-.775q-1.051 0-1.051.893 0 .348.138.514.138.166.328.166.205 0 .355-.15t.206-.427q.024-.103.024-.221zM7.879 11.737l.608-.245v.893h.735v.459h-.735v2.275q0 .633.395.633.15 0 .245-.024l.032.466q-.174.063-.45.063-.404 0-.601-.229-.23-.253-.23-.964v-2.22h-.466v-.459h.467zM10.368 16.21H9.76v-3.825h.608zm-.316-4.417h-.008q-.15 0-.249-.111-.099-.11-.099-.285 0-.173.103-.284.103-.11.253-.11.166 0 .265.106.098.107.098.288 0 .182-.098.289-.1.107-.265.107zM11.214 16.21v-2.837q0-.26-.016-.593-.016-.332-.016-.395h.53l.031.459h.016q.284-.522.877-.522.419 0 .672.324.253.324.253.996v2.568h-.609v-2.466q0-.908-.53-.908-.197 0-.359.162-.162.162-.21.462-.031.118-.031.34v2.41zM15.015 10.742v3.421h.015q.182-.387.206-.426l.759-1.352h.655l-1.011 1.612 1.106 2.213h-.68l-.83-1.802-.22.356v1.446h-.609v-5.468zM18.176 16.273h-.008q-.546 0-.893-.502-.348-.501-.348-1.465 0-.988.371-1.486.372-.498.91-.498.544 0 .888.502t.344 1.466q0 1.02-.375 1.501-.376.482-.89.482zm.015-.482h.008q.245 0 .395-.26.15-.261.194-.57.044-.308.044-.663 0-.356-.044-.66-.043-.304-.198-.57-.154-.264-.406-.264-.19 0-.328.146-.139.146-.202.387-.063.241-.09.475-.028.233-.028.486 0 .268.027.505.028.237.095.475.067.237.202.375.134.138.331.138zM22.617 16.21h-.609v-3.366h-1.153v3.366h-.609v-3.366h-.482v-.459h.482v-.19q0-.75.348-1.122.284-.3.79-.3.221 0 .395.071l-.11.482q-.127-.055-.293-.055-.284 0-.403.23-.118.228-.118.687v.197h1.153v-.237q0-.766.34-1.146.292-.324.767-.324.284 0 .474.095l-.095.474q-.158-.063-.34-.063-.537 0-.537.956v.245h.695v.459h-.695zM23.77 16.273h-.007q-.166 0-.28-.126-.115-.127-.115-.332 0-.198.118-.328.119-.13.285-.13.181 0 .292.126.11.126.11.332 0 .213-.106.336-.107.122-.296.122zM24.932 16.21v-2.837q0-.19-.016-.565-.015-.375-.015-.423h.545l.031.6h.016q.095-.284.32-.473.226-.19.486-.19.087 0 .127.008v.624q-.04-.008-.127-.008-.284 0-.486.23-.201.229-.249.568-.023.158-.023.348v2.118zM29.192 12.385v2.782q0 .253.015.644l.016.399h-.53l-.047-.403h-.015q-.103.174-.32.32-.218.146-.494.146-.933 0-.933-1.47v-2.418h.609v2.331q0 .498.11.77.11.274.403.274.237 0 .376-.166.138-.166.17-.348.031-.134.031-.34v-2.52zM30.353 16.273h-.008q-.166 0-.28-.126-.115-.127-.115-.332 0-.198.119-.328.118-.13.284-.13.182 0 .293.126.11.126.11.332 0 .213-.106.336-.107.122-.297.122zM34.636 14.614h-1.185l-.348 1.596h-.592l1.217-5.326h.671l1.186 5.326h-.6zm-1.098-.49h1.011l-.276-1.352q-.08-.387-.213-1.217h-.024q-.119.743-.221 1.225zM37.355 16.273h-.008q-.68 0-1.079-.707-.399-.707-.399-2.027 0-1.296.427-2.007.427-.711 1.138-.711.68 0 1.067.707.387.707.387 1.98 0 1.414-.423 2.09-.423.675-1.11.675zm.031-.537h.008q.245 0 .42-.194.173-.193.268-.525.095-.332.134-.696.04-.363.04-.79 0-.403-.04-.763t-.134-.691q-.095-.332-.273-.525-.178-.194-.423-.194-.324 0-.533.348-.21.347-.28.81-.072.462-.072 1.023 0 .419.044.786.043.368.138.696.095.328.277.521.181.194.426.194zM41.883 12.836l-.814 1.383.814 1.375h-.498l-.806-1.375.814-1.383zm1.13 0l-.822 1.383.822 1.375h-.498l-.806-1.375.814-1.383zM44.277 16.21v-4.781h-.972v-.545h2.553v.545h-.972v4.781zM45.74 12.385h.552v1.312q0 1.13-.055 1.833h.016q.126-.363.569-1.493l.64-1.652h.64v3.825h-.56v-1.264q0-.917.062-1.865h-.023q-.158.577-.459 1.327-.474 1.186-.758 1.802h-.625zM48.948 12.385h.608v1.62h1.13v-1.62h.609v3.825h-.609v-1.683h-1.13v1.683h-.608zM52.148 12.385h.6v1.352q.056 0 .183-.012.126-.012.181-.012.632 0 1.047.312.415.312.415.92 0 .593-.426.933-.45.372-1.217.372-.388 0-.783-.064zm.6 1.818v1.557q.19.015.27.015.402 0 .667-.205.265-.206.265-.6 0-.396-.269-.59-.268-.193-.68-.193-.094 0-.252.016zM55.214 12.385h.593v1.66h.087l1.004-1.66h.671l-1.193 1.723q.672.11.932 1.083.222.79.317 1.019H57q-.079-.19-.276-.893-.11-.419-.305-.624-.193-.206-.549-.206h-.063v1.723h-.593zM59.197 16.273h-.008q-.545 0-.893-.502-.347-.501-.347-1.465 0-.988.371-1.486t.909-.498q.545 0 .889.502t.344 1.466q0 1.02-.376 1.501-.375.482-.889.482zm.016-.482h.008q.245 0 .395-.26.15-.261.194-.57.043-.308.043-.663 0-.356-.043-.66-.044-.304-.198-.57-.154-.264-.407-.264-.19 0-.328.146t-.201.387q-.064.241-.091.475-.028.233-.028.486 0 .268.028.505.027.237.095.475.067.237.201.375t.332.138zM62.319 10.805h.553v1.517q.632.079.996.577.363.498.363 1.399 0 .908-.356 1.406-.355.498-1.003.57v1.453h-.553v-1.454q-.633-.07-.988-.565-.356-.494-.356-1.402 0-.893.356-1.391.355-.498.988-.585zm.008 5.05V12.74q-.42.103-.601.545-.182.443-.182 1.012t.182 1.015q.182.447.6.541zm.545-3.114v3.113q.79-.19.79-1.556 0-.356-.06-.652-.058-.297-.244-.561-.186-.265-.486-.344zM66.088 10.805h.553v1.517q.632.079.996.577.363.498.363 1.399 0 .908-.355 1.406-.356.498-1.004.57v1.453h-.553v-1.454q-.632-.07-.988-.565-.355-.494-.355-1.402 0-.893.355-1.391.356-.498.988-.585zm.008 5.05V12.74q-.419.103-.6.545-.182.443-.182 1.012t.181 1.015q.182.447.601.541zm.545-3.114v3.113q.79-.19.79-1.556 0-.356-.059-.652-.059-.297-.245-.561-.185-.265-.486-.344zM69.976 10.884h2.244v.53h-1.643v1.596q.19-.032.403-.032.703 0 1.138.419.45.426.45 1.161 0 .72-.387 1.154-.458.53-1.415.53-.498 0-.79-.056zm.6 2.623v2.221q.15.024.309.024.514 0 .814-.364.237-.324.237-.79 0-.474-.277-.79-.3-.324-.782-.324-.134 0-.3.023zM75.24 13.681v1.66q0 .624.039.869h-.546l-.04-.403h-.023q-.26.466-.758.466-.396 0-.652-.3-.257-.3-.257-.79 0-.68.462-1.032.462-.351 1.166-.36v-.118q0-.419-.135-.644-.134-.225-.474-.225-.348 0-.632.198l-.134-.427q.355-.253.893-.253 1.09 0 1.09 1.36zm-.594 1.32v-.775q-1.05 0-1.05.893 0 .348.138.514.138.166.328.166.205 0 .355-.15t.206-.427q.023-.103.023-.221zM76.1 12.385h.609v1.62h1.13v-1.62h.609v3.825h-.609v-1.683h-1.13v1.683H76.1zM79.301 12.385h.593v1.66h.087l1.003-1.66h.672l-1.193 1.723q.671.11.932 1.083.221.79.316 1.019h-.624q-.08-.19-.277-.893-.11-.419-.304-.624-.194-.206-.55-.206h-.062v1.723H79.3zM82.762 14.219l-.822-1.383h.49l.814 1.383-.798 1.375h-.506zm1.122 0l-.814-1.383h.49l.814 1.383-.806 1.375h-.498zM85.125 17.15l-.419.056q.316-.885.459-1.842l.687-.079q-.142.498-.356 1.055-.213.558-.37.81zM87.93 12.385h2.023v3.825h-.608v-3.327h-.838V14.1q0 .917-.126 1.399-.127.482-.514.671-.19.095-.41.095l-.103-.482q.19-.031.316-.174.26-.26.26-1.47zM90.799 12.385h.553v1.312q0 1.13-.055 1.833h.016q.126-.363.569-1.493l.64-1.652h.64v3.825H92.6v-1.264q0-.917.063-1.865h-.024q-.158.577-.458 1.327-.474 1.186-.759 1.802H90.8zM94.007 12.385h.609v3.32h1.09v-3.32h.609v3.35l.324.009-.032 1.485h-.466l-.04-1.019h-2.094zM99.413 14.353h-1.77q.007 1.422.9 1.422.364 0 .633-.142l.102.443q-.324.181-.845.181-.672 0-1.028-.51-.355-.509-.355-1.41 0-.924.355-1.47.356-.545.933-.545.545 0 .818.486.272.486.272 1.197 0 .158-.015.348zm-1.763-.45h1.194q.008-.538-.162-.822-.17-.285-.407-.285-.277 0-.439.336-.162.336-.186.77zM100.084 12.385h.609v1.62h1.13v-1.62h.608v3.825h-.608v-1.683h-1.13v1.683h-.609zM103.561 14.448l.008-.443h.206q.308 0 .545-.182.237-.181.237-.482 0-.276-.17-.422-.17-.147-.438-.147-.324 0-.68.198l-.118-.387q.395-.261.948-.261.474 0 .77.253.297.253.297.695 0 .34-.218.577-.217.237-.565.332v.008q.411.063.668.316.257.253.257.648 0 .537-.415.83-.415.292-.992.292-.513 0-.9-.213l.134-.435q.363.19.719.19.371 0 .604-.194.234-.193.234-.47 0-.363-.27-.533-.268-.17-.64-.17zM105.988 12.385h.553v1.312q0 1.13-.056 1.833h.016q.127-.363.57-1.493l.64-1.652h.64v3.825h-.562v-1.264q0-.917.063-1.865h-.023q-.158.577-.459 1.327-.474 1.186-.758 1.802h-.624zM111.345 12.409v3.801h-.592v-1.636h-.182q-.364 0-.561.182-.087.079-.158.221-.071.142-.103.261-.032.119-.083.348-.051.229-.083.34-.055.181-.103.284h-.64q.119-.198.174-.395.024-.08.075-.293.052-.213.087-.34.036-.126.107-.288.071-.162.166-.264.182-.198.474-.253v-.016q-.364-.071-.605-.312-.24-.241-.24-.629 0-.497.387-.798.355-.284 1.059-.284.505 0 .821.07zm-.592 1.754v-1.375q-.103-.031-.261-.031-.348 0-.577.17-.23.17-.23.51 0 .339.25.533.249.193.58.193zM117.414 11.042h.008q.443 0 .68.328.237.328.237.968 0 .672-.273.992-.272.32-.667.32-.427 0-.688-.336-.26-.336-.26-.968 0-.632.272-.968.273-.336.691-.336zm-.023.355h-.008q-.23 0-.34.297-.11.296-.11.652 0 .371.114.66.115.288.344.288.466 0 .466-.948 0-.949-.466-.949zm.822 2.956h-1.636v-.371h1.636zm-4.197 1.857h-.537v-5.27h.561l.925 2.48q.426 1.13.648 1.842h.008q-.064-1.344-.064-2.418v-1.905h.53v5.271h-.57l-.947-2.537q-.285-.735-.601-1.794h-.008q.055.996.055 2.498zM122.535 16.21h-2.465v-.395l.426-.585q.34-.474.486-.687.147-.214.396-.633.248-.418.351-.77.103-.352.103-.692 0-.434-.186-.675-.186-.241-.541-.241-.332 0-.743.284l-.15-.458q.419-.348 1.004-.348.608 0 .916.395.308.395.308 1.012 0 .648-.335 1.304-.336.656-.937 1.462l-.34.474v.016h1.707zM125.38 11.01v.514q-.15 0-.363.047-1.067.269-1.32 1.857h.024q.331-.49.869-.49.49 0 .798.427.308.427.308 1.154 0 .759-.336 1.256-.336.498-.928.498-.656 0-1.004-.585-.348-.584-.348-1.509 0-1.407.664-2.315.222-.316.557-.526.336-.21.692-.28.126-.024.387-.048zm-.948 4.79h.008q.276 0 .462-.305.186-.304.186-.929 0-.569-.186-.865-.186-.296-.502-.296-.458 0-.672.553-.039.118-.039.308.008.759.21 1.146.2.387.533.387zM126.194 11.073h2.474v.364l-1.66 4.773h-.593l1.628-4.583v-.016h-1.849zM129.165 16.036l.135-.482q.355.213.743.213.403 0 .644-.276.24-.277.24-.743 0-.498-.284-.782-.284-.285-.75-.285h-.143v-.458h.119q.324 0 .624-.241t.3-.676q0-.38-.185-.585-.186-.205-.494-.205-.3 0-.64.245l-.127-.458q.356-.293.917-.293.53 0 .834.332.304.332.304.846 0 .395-.198.719-.197.324-.569.49v.016q.387.102.644.442t.257.909q0 .648-.395 1.079-.395.43-1.075.43-.56 0-.9-.237zM132.777 16.273h-.008q-.166 0-.28-.126-.115-.127-.115-.332 0-.198.118-.328.119-.13.285-.13.182 0 .292.126.11.126.11.332 0 .213-.106.336-.107.122-.296.122z" stroke-width=".0079"/></g></svg>