<svg width="343.542" height="42" viewBox="0 0 343.542 42" xmlns="http://www.w3.org/2000/svg"><g fill="#333" stroke="#000"><path d="M11.71 16.35V3.85H1.156v12.5h3.299V6.647H8.41v9.703zM18.518 16.64c1.634 0 2.881-.448 3.743-1.341.861-.894 1.292-2.19 1.292-3.887 0-1.698-.43-2.997-1.292-3.897-.862-.9-2.11-1.35-3.743-1.35-1.658 0-2.919.45-3.78 1.35-.862.9-1.293 2.2-1.293 3.897 0 1.697.43 2.993 1.293 3.887.861.893 2.122 1.34 3.78 1.34zm0-2.045c-.295 0-.553-.052-.771-.155a1.247 1.247 0 01-.54-.51c-.142-.239-.248-.564-.319-.975a9.339 9.339 0 01-.106-1.543c0-.605.036-1.11.106-1.515.071-.405.177-.733.319-.983.141-.251.321-.431.54-.54.218-.11.476-.164.771-.164.283 0 .53.054.743.164.212.109.39.289.53.54.142.25.248.578.319.983.07.406.106.91.106 1.515 0 .617-.035 1.131-.106 1.543-.07.411-.177.736-.318.974a1.261 1.261 0 01-.53.511c-.213.103-.46.155-.744.155zM24.325 13.9h0v2.43c1.054.142 1.897.145 2.527.01.63-.135 1.112-.463 1.447-.983.334-.521.553-1.264.655-2.228.103-.965.155-2.212.155-3.743v-.713h1.717v7.677h3.163V6.454H26.08v2.43c0 1.197-.022 2.139-.067 2.827-.045.688-.129 1.205-.251 1.553-.122.347-.3.556-.53.627-.232.07-.534.073-.907.01zM40.181 14.112h0-.29a7.66 7.66 0 00-.067-.81c-.045-.373-.115-.82-.212-1.34-.096-.521-.215-1.1-.357-1.737a39.38 39.38 0 00-.501-1.996l-.502-1.775H35.05l3.337 11.15-.714 2.18h3.318l3.993-13.33H41.86l-.501 1.833c-.193.681-.36 1.334-.502 1.958a46.71 46.71 0 00-.357 1.707c-.096.514-.17.958-.221 1.33-.052.374-.084.65-.097.83zM54.649 6.454h-3.164v4.263a3.116 3.116 0 01-.617.174 3.767 3.767 0 01-.656.058c-.347 0-.65-.068-.907-.203s-.385-.389-.385-.762v-3.53h-3.164v3.935c0 .605.096 1.103.29 1.495.192.393.453.708.78.946.329.237.701.405 1.12.501.417.097.851.145 1.302.145.385 0 .771-.026 1.157-.077a6.68 6.68 0 001.08-.232v3.183h3.164zM56.578 16.35h4.031l1.37-3.029a37.71 37.71 0 00.993-2.575 30.916 30.916 0 00.627-2.035l.27.039a19.53 19.53 0 00-.135.868 43.159 43.159 0 00-.26 2.546c-.032.45-.048.849-.048 1.196v2.99h3.048V6.454H62.46l-1.37 3.029c-.18.398-.356.826-.53 1.283-.173.456-.334.897-.482 1.32a30.648 30.648 0 00-.627 2.007l-.25-.039a24.53 24.53 0 00.27-2.093c.038-.443.073-.89.105-1.34.033-.45.049-.855.049-1.215V6.454h-3.048zM70.12 16.35h3.163V8.962h2.392V6.454h-7.948v2.508h2.392zM85.744 13.051h-2.739c.052.605-.07 1.03-.366 1.274s-.701.366-1.216.366c-.334 0-.614-.07-.839-.212a1.664 1.664 0 01-.55-.57 2.646 2.646 0 01-.308-.829 5.065 5.065 0 01-.097-1.012h6.135c.038-.219.064-.483.077-.791.013-.309.02-.553.02-.733 0-.579-.075-1.132-.223-1.66a3.563 3.563 0 00-.752-1.398c-.354-.405-.82-.726-1.399-.964-.578-.238-1.292-.357-2.14-.357-.888 0-1.647.141-2.277.424a4.181 4.181 0 00-1.553 1.167 4.746 4.746 0 00-.887 1.717c-.187.65-.28 1.34-.28 2.074 0 .746.097 1.427.29 2.045.192.617.488 1.15.887 1.6.398.45.91.801 1.533 1.052.624.25 1.367.376 2.228.376a7.47 7.47 0 001.978-.241c.585-.16 1.07-.396 1.456-.704.386-.309.669-.682.849-1.119.18-.437.238-.939.173-1.505zm-4.32-5.015c.578 0 .977.183 1.195.55.219.366.328.916.328 1.65v.096H79.63c.013-.708.168-1.267.463-1.679.296-.411.74-.617 1.331-.617zM93.152 10.023h-.27v-.25c0-.515.038-.975.115-1.38.078-.405.213-.762.405-1.07.193-.31.457-.57.791-.782.335-.212.759-.383 1.274-.511.347-.09.675-.164.983-.222l.917-.174c.302-.057.604-.125.906-.202a8.83 8.83 0 00.916-.29l-.173-2.932c-.27.116-.524.219-.762.309s-.498.174-.781.25c-.283.078-.602.155-.955.232-.354.077-.788.174-1.302.29-.94.205-1.707.52-2.305.945a4.87 4.87 0 00-1.418 1.533 6.02 6.02 0 00-.714 2.036 14.54 14.54 0 00-.193 2.43c0 .99.09 1.88.27 2.672.18.79.466 1.46.859 2.006a3.88 3.88 0 001.533 1.263c.63.296 1.389.444 2.276.444.772 0 1.454-.132 2.045-.395a4.281 4.281 0 001.485-1.071c.4-.45.701-.977.907-1.582a5.944 5.944 0 00.309-1.929c0-.643-.084-1.238-.251-1.784a4.273 4.273 0 00-.714-1.408 3.294 3.294 0 00-1.148-.926c-.456-.225-.974-.338-1.552-.338-.54 0-1.007.068-1.399.203a2.938 2.938 0 00-1.003.569c-.276.244-.502.54-.675.887-.174.347-.3.74-.376 1.177zm2.257 4.07c-.515 0-.894-.16-1.138-.482-.245-.322-.367-.862-.367-1.62 0-.772.129-1.338.386-1.698.257-.36.63-.54 1.119-.54.514 0 .897.167 1.147.501.251.335.377.881.377 1.64 0 .772-.13 1.331-.386 1.678-.257.347-.637.521-1.138.521zM110.918 13.051h-2.74c.052.605-.07 1.03-.366 1.274s-.7.366-1.215.366c-.334 0-.614-.07-.84-.212a1.664 1.664 0 01-.549-.57 2.646 2.646 0 01-.309-.829 5.065 5.065 0 01-.096-1.012h6.134c.039-.219.064-.483.077-.791.013-.309.02-.553.02-.733 0-.579-.074-1.132-.222-1.66a3.563 3.563 0 00-.753-1.398c-.353-.405-.82-.726-1.398-.964-.579-.238-1.293-.357-2.141-.357-.888 0-1.646.141-2.277.424a4.181 4.181 0 00-1.552 1.167 4.746 4.746 0 00-.888 1.717c-.186.65-.28 1.34-.28 2.074 0 .746.097 1.427.29 2.045.193.617.489 1.15.887 1.6.399.45.91.801 1.534 1.052.623.25 1.366.376 2.228.376a7.47 7.47 0 001.977-.241c.585-.16 1.07-.396 1.456-.704.386-.309.67-.682.85-1.119.18-.437.237-.939.173-1.505zm-4.321-5.015c.579 0 .977.183 1.196.55.218.366.328.916.328 1.65v.096h-3.318c.013-.708.167-1.267.463-1.679.296-.411.74-.617 1.33-.617zM121.585 12.453h0-2.662c.064.463.061.833-.01 1.11-.07.276-.183.488-.337.636a1.185 1.185 0 01-.53.3c-.2.05-.396.076-.589.076-.308 0-.579-.045-.81-.135a1.163 1.163 0 01-.57-.492c-.147-.237-.26-.562-.337-.974-.077-.411-.115-.939-.115-1.582 0-.617.035-1.128.106-1.533.07-.405.177-.73.318-.974.141-.245.328-.415.56-.511.23-.097.501-.145.81-.145.231 0 .45.029.655.087.206.058.38.164.521.318a1.4 1.4 0 01.309.627c.064.264.058.601-.02 1.013h2.663c.154-1.286-.126-2.293-.84-3.02-.713-.726-1.81-1.09-3.288-1.09-.785 0-1.495.107-2.132.32a4.19 4.19 0 00-1.62.964c-.444.43-.785.974-1.023 1.63-.238.656-.357 1.427-.357 2.314 0 .9.12 1.679.357 2.335.238.655.579 1.199 1.023 1.63.443.43.983.749 1.62.954.637.206 1.347.31 2.132.31.797 0 1.475-.107 2.035-.32.56-.211 1.01-.504 1.35-.877.34-.373.572-.813.694-1.321a4.804 4.804 0 00.087-1.65zM123.167 16.35h3.164V8.962h2.662v7.388h3.163V6.454h-8.989zM133.314 13.9h0v2.43c1.054.142 1.896.145 2.527.01.63-.135 1.112-.463 1.446-.983.335-.521.553-1.264.656-2.228.103-.965.155-2.212.155-3.743v-.713h1.716v7.677h3.164V6.454h-7.909v2.43c0 1.197-.023 2.139-.068 2.827-.044.688-.128 1.205-.25 1.553-.122.347-.3.556-.53.627-.232.07-.535.073-.907.01zM148.746 14.556c-.412 0-.75-.122-1.013-.366-.264-.245-.396-.56-.396-.946 0-.231.049-.447.145-.646.097-.2.257-.373.482-.52.226-.149.528-.268.907-.358.38-.09.858-.148 1.437-.173v.714c0 .295-.025.581-.077.858-.052.276-.141.52-.27.733a1.562 1.562 0 01-.492.511c-.2.129-.44.193-.723.193zm-1.39 2.064c.438 0 .82-.051 1.149-.154.327-.103.617-.238.868-.405.25-.168.463-.364.636-.589a4.42 4.42 0 00.453-.723l.251.135c-.077.244-.148.485-.212.723a2.447 2.447 0 00-.096.627v.116h3.067V9.637c0-.514-.061-.984-.184-1.408a2.471 2.471 0 00-.655-1.1c-.315-.308-.753-.546-1.312-.713-.56-.168-1.27-.251-2.132-.251-.874 0-1.604.096-2.19.29-.584.192-1.044.45-1.378.77-.335.322-.56.692-.675 1.11a3.157 3.157 0 00-.078 1.302h2.624a1.882 1.882 0 01-.02-.598c.026-.193.094-.363.203-.511.11-.148.264-.267.463-.357.2-.09.447-.135.743-.135.488 0 .848.119 1.08.357.231.238.347.575.347 1.013v.694c-.63.026-1.292.084-1.987.174a6.848 6.848 0 00-1.91.52 3.64 3.64 0 00-1.427 1.11c-.373.482-.56 1.134-.56 1.958 0 .334.065.668.194 1.003.128.334.318.63.569.887.25.257.556.466.916.627.36.16.778.241 1.254.241zM156.925 16.35h3.163V8.962h2.392V6.454h-7.947v2.508h2.392zM163.734 16.35h3.164v-3.704h2.835v3.704h3.164V6.454h-3.164v3.685h-2.835V6.454h-3.164zM179.089 14.112h0-.29a7.66 7.66 0 00-.067-.81c-.045-.373-.116-.82-.212-1.34-.097-.521-.216-1.1-.357-1.737a39.38 39.38 0 00-.502-1.996l-.501-1.775h-3.202l3.337 11.15-.714 2.18h3.318l3.993-13.33h-3.125l-.501 1.833c-.193.681-.36 1.334-.502 1.958a46.71 46.71 0 00-.357 1.707c-.096.514-.17.958-.222 1.33-.051.374-.083.65-.096.83zM194.039 16.659c1.633 0 2.88-.454 3.742-1.36.862-.907 1.292-2.209 1.292-3.907 0-1.697-.43-3-1.292-3.906-.862-.906-2.109-1.36-3.742-1.36-1.453 0-2.601.347-3.444 1.042-.842.694-1.36 1.704-1.552 3.028h-.926V6.454h-3.164v9.896h3.164v-3.742h.926c.205 1.311.73 2.315 1.572 3.009.842.694 1.983 1.042 3.424 1.042zm0-2.045c-.335 0-.614-.052-.84-.154a1.163 1.163 0 01-.54-.53c-.135-.252-.228-.583-.28-.994a12.78 12.78 0 01-.076-1.544c0-.604.025-1.112.077-1.523.051-.412.144-.743.28-.994.135-.25.314-.43.54-.54.225-.11.504-.164.839-.164.321 0 .591.055.81.164.218.11.392.29.52.54.13.25.223.582.28.994.058.411.087.92.087 1.523 0 .618-.029 1.132-.087 1.544-.057.411-.15.742-.28.993-.128.25-.302.428-.52.53-.219.103-.489.155-.81.155zM204.089 16.35h3.163v-3.704h.85c.256 0 .446.065.568.193.122.129.21.302.26.521a19.668 19.668 0 00.473 1.524c.11.309.225.598.347.868.123.27.235.47.338.598h3.472a7.438 7.438 0 01-.993-1.707 48.297 48.297 0 01-.743-1.842c-.167-.438-.376-.759-.627-.965-.25-.206-.62-.353-1.109-.444v-.173c.412-.09.743-.228.993-.415.251-.186.473-.472.666-.858.141-.283.27-.585.386-.907.116-.321.231-.637.347-.945a6.94 6.94 0 01.405-.887c.154-.283.341-.534.56-.753h-3.357a3.614 3.614 0 00-.366.656c-.13.283-.258.579-.386.887-.129.309-.241.598-.338.868-.096.27-.164.463-.202.58-.09.27-.19.452-.3.549-.109.096-.266.145-.472.145h-.772V6.454h-3.163zM218.537 16.64c1.633 0 2.88-.448 3.742-1.341.862-.894 1.293-2.19 1.293-3.887 0-1.698-.43-2.997-1.293-3.897-.861-.9-2.109-1.35-3.742-1.35-1.659 0-2.92.45-3.78 1.35-.862.9-1.293 2.2-1.293 3.897 0 1.697.43 2.993 1.292 3.887.862.893 2.122 1.34 3.781 1.34zm0-2.045c-.296 0-.553-.052-.771-.155a1.247 1.247 0 01-.54-.51c-.142-.239-.248-.564-.319-.975a9.339 9.339 0 01-.106-1.543c0-.605.035-1.11.106-1.515.07-.405.177-.733.318-.983.142-.251.322-.431.54-.54.22-.11.476-.164.772-.164.283 0 .53.054.743.164.212.109.389.289.53.54.142.25.248.578.319.983.07.406.106.91.106 1.515 0 .617-.036 1.131-.106 1.543-.071.411-.177.736-.319.974a1.261 1.261 0 01-.53.511c-.212.103-.46.155-.743.155zM225.115 16.35h3.164v-3.704h2.835v3.704h3.164V6.454h-3.164v3.685h-2.835V6.454h-3.164zM245.119 12.453h0-2.662c.064.463.06.833-.01 1.11-.07.276-.183.488-.337.636a1.185 1.185 0 01-.53.3c-.2.05-.396.076-.59.076-.308 0-.578-.045-.81-.135a1.163 1.163 0 01-.569-.492c-.147-.237-.26-.562-.337-.974-.077-.411-.116-.939-.116-1.582 0-.617.035-1.128.106-1.533s.177-.73.319-.974c.141-.245.327-.415.559-.511.231-.097.502-.145.81-.145.232 0 .45.029.656.087.206.058.38.164.52.318a1.4 1.4 0 01.31.627c.064.264.057.601-.02 1.013h2.662c.155-1.286-.125-2.293-.839-3.02-.714-.726-1.81-1.09-3.289-1.09-.784 0-1.495.107-2.131.32a4.19 4.19 0 00-1.62.964c-.444.43-.785.974-1.023 1.63-.238.656-.357 1.427-.357 2.314 0 .9.119 1.679.357 2.335.238.655.579 1.199 1.022 1.63.444.43.984.749 1.62.954.637.206 1.348.31 2.132.31.797 0 1.476-.107 2.035-.32.56-.211 1.01-.504 1.35-.877.341-.373.573-.813.695-1.321a4.804 4.804 0 00.087-1.65zM250.481 14.112h0-.289a7.66 7.66 0 00-.067-.81c-.045-.373-.116-.82-.213-1.34-.096-.521-.215-1.1-.356-1.737a39.38 39.38 0 00-.502-1.996l-.502-1.775h-3.202l3.337 11.15-.713 2.18h3.318l3.993-13.33h-3.125l-.502 1.833c-.193.681-.36 1.334-.501 1.958a46.71 46.71 0 00-.357 1.707c-.097.514-.17.958-.222 1.33-.052.374-.084.65-.097.83zM254.995 13.9h0v2.43c1.055.142 1.897.145 2.527.01.63-.135 1.113-.463 1.447-.983.334-.521.553-1.264.656-2.228.103-.965.154-2.212.154-3.743v-.713h1.717v7.677h3.164V6.454h-7.91v2.43c0 1.197-.022 2.139-.067 2.827-.045.688-.128 1.205-.25 1.553-.123.347-.3.556-.531.627-.232.07-.534.073-.907.01zM269.752 9.04V6.453h-3.163v9.896h4.263c.849 0 1.553-.119 2.112-.357.56-.238 1.006-.537 1.34-.897.335-.36.573-.755.714-1.186.142-.43.213-.84.213-1.225 0-.502-.068-.974-.203-1.418a2.656 2.656 0 00-.714-1.157c-.34-.328-.79-.589-1.35-.782-.56-.192-1.263-.289-2.112-.289zm.888 4.918h-.888v-2.527h.888c.411 0 .739.1.983.299.245.2.367.524.367.974 0 .45-.122.772-.367.965-.244.193-.572.289-.983.289zM277.044 16.35h3.163V8.962h2.392V6.454h-7.947v2.508h2.392zM287.596 14.556c-.412 0-.75-.122-1.013-.366-.264-.245-.396-.56-.396-.946 0-.231.049-.447.145-.646.096-.2.257-.373.482-.52.225-.149.527-.268.907-.358.38-.09.858-.148 1.437-.173v.714c0 .295-.026.581-.077.858-.052.276-.142.52-.27.733a1.562 1.562 0 01-.492.511c-.2.129-.44.193-.723.193zm-1.39 2.064c.438 0 .82-.051 1.148-.154.328-.103.618-.238.868-.405.251-.168.463-.364.637-.589a4.42 4.42 0 00.453-.723l.251.135c-.077.244-.148.485-.212.723a2.447 2.447 0 00-.097.627v.116h3.068V9.637c0-.514-.062-.984-.184-1.408a2.471 2.471 0 00-.656-1.1c-.315-.308-.752-.546-1.311-.713-.56-.168-1.27-.251-2.132-.251-.874 0-1.604.096-2.19.29-.584.192-1.044.45-1.378.77-.335.322-.56.692-.676 1.11a3.157 3.157 0 00-.077 1.302h2.624a1.882 1.882 0 01-.02-.598c.026-.193.094-.363.203-.511.11-.148.264-.267.463-.357.2-.09.447-.135.743-.135.488 0 .848.119 1.08.357.231.238.347.575.347 1.013v.694c-.63.026-1.292.084-1.987.174a6.848 6.848 0 00-1.91.52 3.64 3.64 0 00-1.427 1.11c-.373.482-.56 1.134-.56 1.958 0 .334.065.668.193 1.003.13.334.319.63.57.887.25.257.556.466.916.627.36.16.778.241 1.254.241zM294.058 16.35h7.06v2.392h2.913v-4.9h-1.042V6.454h-3.164v7.388h-2.604V6.454h-3.163zM305.285 16.35h4.031l1.37-3.029a37.71 37.71 0 00.993-2.575 30.916 30.916 0 00.627-2.035l.27.039a19.53 19.53 0 00-.135.868c-.051.373-.1.778-.145 1.215-.044.437-.083.881-.115 1.331-.033.45-.049.849-.049 1.196v2.99h3.048V6.454h-4.012l-1.37 3.029c-.18.398-.356.826-.53 1.283-.174.456-.334.897-.482 1.32a30.648 30.648 0 00-.627 2.007l-.251-.039a24.53 24.53 0 00.27-2.093c.039-.443.074-.89.106-1.34.032-.45.048-.855.048-1.215V6.454h-3.047zM326.195 16.659c1.633 0 2.88-.454 3.742-1.36.862-.907 1.293-2.209 1.293-3.907 0-1.697-.431-3-1.293-3.906-.861-.906-2.109-1.36-3.742-1.36-1.453 0-2.6.347-3.443 1.042-.843.694-1.36 1.704-1.553 3.028h-.926V6.454h-3.164v9.896h3.164v-3.742h.926c.206 1.311.73 2.315 1.572 3.009.842.694 1.984 1.042 3.424 1.042zm0-2.045c-.334 0-.614-.052-.84-.154a1.163 1.163 0 01-.54-.53c-.134-.252-.228-.583-.279-.994a12.78 12.78 0 01-.077-1.544c0-.604.025-1.112.077-1.523.051-.412.145-.743.28-.994.135-.25.315-.43.54-.54.225-.11.505-.164.839-.164.322 0 .592.055.81.164.219.11.392.29.521.54.129.25.222.582.28.994.058.411.086.92.086 1.523 0 .618-.028 1.132-.086 1.544-.058.411-.151.742-.28.993-.129.25-.302.428-.52.53-.22.103-.49.155-.811.155z" stroke-width=".01929"/></g><g fill="#333" stroke="#000"><path d="M.965 37.57h4.031l1.37-3.029a37.71 37.71 0 00.993-2.575 30.916 30.916 0 00.627-2.035l.27.039a19.53 19.53 0 00-.135.868c-.051.373-.1.778-.145 1.215-.045.437-.083.881-.115 1.331-.033.45-.049.849-.049 1.196v2.99h3.048v-9.896H6.848l-1.37 3.029c-.18.398-.356.826-.53 1.283-.174.456-.334.897-.482 1.32a30.648 30.648 0 00-.627 2.007l-.251-.039a24.53 24.53 0 00.27-2.093c.039-.443.074-.89.106-1.34.032-.45.048-.855.048-1.215v-2.952H.965zM20.949 37.86c1.633 0 2.88-.448 3.742-1.341.862-.894 1.293-2.19 1.293-3.887 0-1.698-.431-2.997-1.293-3.897-.861-.9-2.109-1.35-3.742-1.35-1.659 0-2.92.45-3.78 1.35-.863.9-1.293 2.2-1.293 3.897 0 1.697.43 2.993 1.292 3.887.862.893 2.122 1.34 3.781 1.34zm0-2.045c-.296 0-.553-.052-.772-.155a1.247 1.247 0 01-.54-.51c-.141-.239-.247-.564-.318-.975a9.339 9.339 0 01-.106-1.543c0-.605.035-1.11.106-1.515.07-.405.177-.733.318-.983.142-.251.322-.431.54-.54.219-.11.476-.164.772-.164.283 0 .53.054.743.164.212.109.389.289.53.54.142.25.248.578.318.983.071.406.107.91.107 1.515 0 .617-.036 1.131-.107 1.543-.07.411-.176.736-.318.974a1.261 1.261 0 01-.53.511c-.213.103-.46.155-.743.155zM29.05 37.57h3.164v-7.388h2.392v-2.508H26.66v2.508h2.392zM35.86 37.57h3.164v-3.704h.849c.257 0 .447.065.569.193.122.129.209.302.26.521a19.668 19.668 0 00.473 1.524c.109.309.225.598.347.868.122.27.235.47.337.598h3.473a7.438 7.438 0 01-.994-1.707 48.297 48.297 0 01-.742-1.842c-.168-.438-.377-.759-.627-.965-.251-.206-.62-.353-1.11-.444v-.173c.412-.09.743-.228.994-.415.25-.186.472-.472.665-.858.142-.283.27-.585.386-.907.116-.321.232-.637.347-.945a6.94 6.94 0 01.405-.887c.155-.283.341-.534.56-.753h-3.357a3.614 3.614 0 00-.366.656c-.129.283-.257.579-.386.887-.129.309-.241.598-.337.868-.097.27-.164.463-.203.58-.09.27-.19.452-.299.549-.11.096-.267.145-.473.145h-.771v-3.685H35.86zM51.215 35.872c-.501 0-.913-.25-1.234-.752-.322-.501-.483-1.324-.483-2.469 0-1.157.161-1.987.483-2.488.321-.502.733-.753 1.234-.753.489 0 .894.251 1.215.753.322.501.483 1.33.483 2.488 0 1.145-.161 1.968-.483 2.47-.321.5-.726.751-1.215.751zm1.177-8.487c-.36 0-.679.048-.955.145a2.655 2.655 0 00-.752.405 2.93 2.93 0 00-.589.607 10.31 10.31 0 00-.482.733l-.29-.135c.078-.244.136-.485.174-.723.039-.238.058-.447.058-.627v-.116h-3.163v13.33h3.163V38.11c0-.334-.035-.665-.106-.993a7.966 7.966 0 00-.26-.936l.308-.116c.077.155.193.332.348.53a3.361 3.361 0 001.427 1.052 2.94 2.94 0 001.1.193c.54 0 1.044-.106 1.514-.318.47-.212.877-.534 1.225-.965.347-.43.62-.97.82-1.62.199-.65.299-1.412.299-2.286 0-1.697-.341-3-1.023-3.906-.681-.907-1.62-1.36-2.816-1.36zM62.558 37.86c1.633 0 2.88-.448 3.742-1.341.862-.894 1.292-2.19 1.292-3.887 0-1.698-.43-2.997-1.292-3.897-.862-.9-2.109-1.35-3.742-1.35-1.66 0-2.92.45-3.781 1.35-.862.9-1.293 2.2-1.293 3.897 0 1.697.431 2.993 1.293 3.887.862.893 2.122 1.34 3.78 1.34zm0-2.045c-.296 0-.553-.052-.772-.155a1.247 1.247 0 01-.54-.51c-.141-.239-.248-.564-.318-.975a9.339 9.339 0 01-.106-1.543c0-.605.035-1.11.106-1.515.07-.405.177-.733.318-.983.141-.251.322-.431.54-.54.219-.11.476-.164.772-.164.283 0 .53.054.742.164.213.109.39.289.53.54.142.25.248.578.32.983.07.406.105.91.105 1.515 0 .617-.035 1.131-.106 1.543-.07.411-.177.736-.318.974a1.261 1.261 0 01-.53.511c-.213.103-.46.155-.743.155zM69.136 37.57h4.031l1.37-3.029a37.71 37.71 0 00.993-2.575 30.916 30.916 0 00.627-2.035l.27.039a19.53 19.53 0 00-.135.868 43.159 43.159 0 00-.26 2.546c-.032.45-.048.849-.048 1.196v2.99h3.047v-9.896H75.02l-1.37 3.029c-.18.398-.356.826-.53 1.283-.174.456-.334.897-.482 1.32a30.648 30.648 0 00-.627 2.007l-.251-.039a24.53 24.53 0 00.27-2.093c.039-.443.074-.89.106-1.34.032-.45.048-.855.048-1.215v-2.952h-3.047zm1.755-13.214v2.103c.514.103 1.026.18 1.534.231a15.19 15.19 0 003.067 0 17.157 17.157 0 001.553-.231v-2.103c-1.042.193-2.07.29-3.087.29-1.029 0-2.051-.097-3.067-.29zM82.677 37.57h3.164v-7.388h2.392v-2.508h-7.948v2.508h2.392zM98.302 34.271h-2.739c.051.605-.07 1.03-.367 1.274-.295.244-.7.366-1.215.366-.334 0-.614-.07-.839-.212a1.664 1.664 0 01-.55-.57 2.646 2.646 0 01-.308-.829 5.065 5.065 0 01-.097-1.012h6.134c.039-.219.065-.483.078-.791.013-.309.019-.553.019-.733 0-.579-.074-1.132-.222-1.66a3.563 3.563 0 00-.752-1.398c-.354-.405-.82-.726-1.399-.964-.578-.238-1.292-.357-2.141-.357-.887 0-1.646.141-2.276.424a4.181 4.181 0 00-1.553 1.167 4.746 4.746 0 00-.887 1.717c-.187.65-.28 1.34-.28 2.074 0 .746.096 1.427.29 2.045.192.617.488 1.15.887 1.6.398.45.91.801 1.533 1.052.624.25 1.366.376 2.228.376a7.47 7.47 0 001.977-.241c.585-.16 1.071-.396 1.457-.704.386-.309.669-.682.849-1.119.18-.437.237-.939.173-1.505zm-4.32-5.015c.578 0 .977.183 1.195.55.219.366.328.916.328 1.65v.096h-3.318c.013-.708.167-1.267.463-1.679.296-.411.74-.617 1.331-.617zM111.767 32.458v5.112h3.298v-12.5h-4.649l-2.16 5.305c-.154.386-.306.81-.453 1.273-.148.463-.283.91-.406 1.34-.122.431-.231.827-.328 1.187-.096.36-.163.63-.202.81l-.27-.038c.038-.193.077-.46.116-.801.038-.34.074-.727.106-1.157a39.67 39.67 0 00.106-2.807V25.07h-3.299v12.5h4.65l2.16-5.305c.154-.386.305-.807.453-1.263.148-.457.283-.904.405-1.34.122-.438.231-.837.328-1.197.096-.36.164-.63.202-.81l.27.038c-.038.193-.077.46-.115.801-.039.34-.074.727-.106 1.157a39.67 39.67 0 00-.106 2.807zM127.932 37.57v-12.5H117.38v12.5h3.299v-9.703h3.954v9.703zM133.526 27.674v9.896h4.764c.553 0 1.08-.042 1.582-.125a4.086 4.086 0 001.312-.434c.373-.206.672-.486.897-.84.225-.353.338-.806.338-1.36a2.34 2.34 0 00-.126-.742 1.878 1.878 0 00-.424-.695 2.43 2.43 0 00-.8-.54c-.335-.148-.747-.234-1.235-.26v-.232c.398-.077.739-.193 1.022-.347a2.36 2.36 0 00.685-.54c.173-.206.302-.424.386-.656.083-.231.125-.456.125-.675 0-.9-.328-1.534-.984-1.9-.656-.367-1.543-.55-2.662-.55zm4.61 7.91h-1.543v-1.95h1.582c.295 0 .569.072.82.213.25.141.376.392.376.752 0 .348-.113.598-.338.753-.225.154-.524.231-.897.231zm-.366-3.936h-1.177v-2.006h1.33c.297 0 .55.07.763.212.212.141.318.386.318.733 0 .36-.122.627-.366.8a1.46 1.46 0 01-.868.261zM150.077 37.57h3.298v-9.703h3.415V25.07h-10.128v2.797h3.415zM158.043 37.57h4.032l1.37-3.029a37.71 37.71 0 00.993-2.575 30.916 30.916 0 00.627-2.035l.27.039a19.53 19.53 0 00-.135.868c-.051.373-.1.778-.145 1.215-.045.437-.083.881-.115 1.331-.033.45-.049.849-.049 1.196v2.99h3.048v-9.896h-4.012l-1.37 3.029c-.18.398-.357.826-.53 1.283-.174.456-.334.897-.482 1.32a30.648 30.648 0 00-.627 2.007l-.251-.039a24.53 24.53 0 00.27-2.093c.039-.443.074-.89.106-1.34.032-.45.048-.855.048-1.215v-2.952h-3.048zM169.868 37.57h3.164v-3.704h2.835v3.704h3.164v-9.896h-3.164v3.685h-2.835v-3.685h-3.164zM184.124 30.26v-2.586h-3.164v9.896h4.263c.849 0 1.553-.119 2.112-.357.56-.238 1.007-.537 1.341-.897.334-.36.572-.755.714-1.186.141-.43.212-.84.212-1.225 0-.502-.068-.974-.203-1.418a2.656 2.656 0 00-.713-1.157c-.341-.328-.791-.589-1.35-.782-.56-.192-1.264-.289-2.113-.289zm.887 4.918h-.887v-2.527h.887c.411 0 .74.1.984.299.244.2.366.524.366.974 0 .45-.122.772-.366.965-.245.193-.573.289-.984.289zM190.856 37.57h3.163v-3.704h.85c.256 0 .446.065.568.193.122.129.21.302.26.521a19.668 19.668 0 00.473 1.524c.11.309.225.598.348.868.122.27.234.47.337.598h3.472a7.438 7.438 0 01-.993-1.707 48.297 48.297 0 01-.743-1.842c-.167-.438-.376-.759-.627-.965-.25-.206-.62-.353-1.109-.444v-.173c.412-.09.743-.228.994-.415.25-.186.472-.472.665-.858.141-.283.27-.585.386-.907.116-.321.231-.637.347-.945a6.94 6.94 0 01.405-.887c.154-.283.341-.534.56-.753h-3.357a3.614 3.614 0 00-.366.656c-.13.283-.258.579-.386.887-.129.309-.241.598-.338.868-.096.27-.164.463-.202.58-.09.27-.19.452-.3.549-.109.096-.266.145-.472.145h-.772v-3.685h-3.163zM205.304 37.86c1.633 0 2.88-.448 3.742-1.341.862-.894 1.293-2.19 1.293-3.887 0-1.698-.43-2.997-1.293-3.897-.861-.9-2.109-1.35-3.742-1.35-1.659 0-2.919.45-3.78 1.35-.862.9-1.293 2.2-1.293 3.897 0 1.697.43 2.993 1.292 3.887.862.893 2.122 1.34 3.781 1.34zm0-2.045c-.296 0-.553-.052-.771-.155a1.247 1.247 0 01-.54-.51c-.142-.239-.248-.564-.319-.975a9.339 9.339 0 01-.106-1.543c0-.605.035-1.11.106-1.515.07-.405.177-.733.318-.983.142-.251.322-.431.54-.54.22-.11.476-.164.772-.164.283 0 .53.054.743.164.212.109.389.289.53.54.142.25.248.578.319.983.07.406.106.91.106 1.515 0 .617-.036 1.131-.106 1.543-.071.411-.177.736-.319.974a1.261 1.261 0 01-.53.511c-.212.103-.46.155-.743.155zM217.534 30.105v5.13c-.386.335-.74.538-1.06.609a.902.902 0 01-.84-.213c-.238-.212-.424-.562-.56-1.051-.134-.489-.202-1.125-.202-1.91 0-.784.068-1.42.203-1.91.135-.488.321-.839.559-1.05a.902.902 0 01.84-.213c.32.07.674.273 1.06.608zm3.164-4.707v-.656h-3.164v.656c0 .373.006.698.02.974.012.277.032.524.057.743.026.218.061.418.106.598s.1.366.164.56l-.193.076a2.987 2.987 0 00-2.45-.877c-.45.045-.893.183-1.33.414a3.692 3.692 0 00-1.168.994c-.34.43-.617.961-.829 1.591-.212.63-.318 1.363-.318 2.2 0 .835.106 1.568.318 2.198.212.63.489 1.161.83 1.592.34.43.73.762 1.166.993.438.232.881.37 1.332.415.45.045.89-.006 1.32-.154.432-.148.808-.39 1.13-.724l.192.097c-.064.193-.119.38-.164.56-.045.18-.08.379-.106.597a10.73 10.73 0 00-.058.743c-.013.276-.019.601-.019.974v1.042h3.164v-1.042c0-.373-.007-.7-.02-.984a7.591 7.591 0 00-.067-.752 6.228 6.228 0 00-.116-.598c-.045-.18-.093-.36-.145-.54l.193-.097a2.937 2.937 0 002.43.897c.45-.045.898-.183 1.341-.414a3.608 3.608 0 001.177-1.004c.341-.437.617-.97.83-1.6.212-.63.318-1.364.318-2.2 0-1.247-.225-2.27-.675-3.067-.45-.797-.997-1.37-1.64-1.717a3.356 3.356 0 00-2.006-.405 2.847 2.847 0 00-1.775.868l-.193-.077c.052-.167.1-.344.145-.53a6.89 6.89 0 00.183-1.36c.013-.283.02-.611.02-.984zm0 9.838v-5.131c.385-.335.739-.537 1.06-.608.322-.07.602 0 .84.212s.424.563.56 1.052c.134.488.202 1.125.202 1.91 0 1.568-.248 2.555-.743 2.96-.495.405-1.135.274-1.92-.395zM233.834 30.105v5.13c-.386.335-.74.538-1.06.609a.902.902 0 01-.84-.213c-.238-.212-.424-.562-.56-1.051-.134-.489-.202-1.125-.202-1.91 0-.784.068-1.42.203-1.91.135-.488.321-.839.56-1.05a.902.902 0 01.838-.213c.322.07.675.273 1.061.608zm3.164-4.707v-.656h-3.164v.656c0 .373.006.698.02.974.012.277.032.524.057.743.026.218.061.418.106.598s.1.366.164.56l-.193.076a2.987 2.987 0 00-2.45-.877c-.45.045-.893.183-1.33.414a3.692 3.692 0 00-1.167.994c-.341.43-.618.961-.83 1.591-.212.63-.318 1.363-.318 2.2 0 .835.106 1.568.318 2.198.212.63.489 1.161.83 1.592.34.43.73.762 1.167.993.437.232.88.37 1.33.415.45.045.891-.006 1.322-.154.43-.148.807-.39 1.128-.724l.193.097c-.064.193-.119.38-.164.56-.045.18-.08.379-.106.597a10.73 10.73 0 00-.058.743c-.013.276-.019.601-.019.974v1.042h3.164v-1.042c0-.373-.007-.7-.02-.984a7.591 7.591 0 00-.067-.752 6.228 6.228 0 00-.116-.598c-.045-.18-.093-.36-.145-.54l.193-.097a2.937 2.937 0 002.43.897c.451-.045.898-.183 1.342-.414a3.608 3.608 0 001.176-1.004c.341-.437.618-.97.83-1.6.212-.63.318-1.364.318-2.2 0-1.247-.225-2.27-.675-3.067-.45-.797-.997-1.37-1.64-1.717a3.356 3.356 0 00-2.006-.405 2.847 2.847 0 00-1.775.868l-.193-.077c.052-.167.1-.344.145-.53a6.89 6.89 0 00.183-1.36c.013-.283.02-.611.02-.984zm0 9.838v-5.131c.385-.335.74-.537 1.06-.608.322-.07.602 0 .84.212s.424.563.56 1.052c.134.488.202 1.125.202 1.91 0 1.568-.248 2.555-.743 2.96-.495.405-1.135.274-1.92-.395z" stroke-width=".01929"/></g></svg>